<?xml version="1.0" standalone="no"?>
<!DOCTYPE svg PUBLIC "-//W3C//DTD SVG 20010904//EN"
 "http://www.w3.org/TR/2001/REC-SVG-20010904/DTD/svg10.dtd">
<svg version="1.0" xmlns="http://www.w3.org/2000/svg"
 width="675.000000pt" height="658.000000pt" viewBox="0 0 675.000000 658.000000"
 preserveAspectRatio="xMidYMid meet">

<g transform="translate(0.000000,658.000000) scale(0.100000,-0.100000)"
fill="#000000" stroke="none">
<path d="M5390 6526 c-222 -100 -362 -178 -595 -331 -263 -173 -450 -323 -678
-545 -392 -380 -649 -733 -901 -1236 -184 -369 -300 -678 -401 -1069 -149
-574 -221 -1208 -171 -1495 60 -339 253 -602 510 -696 95 -34 206 -47 301 -33
301 41 528 249 615 561 45 160 38 296 -35 710 -53 300 -63 387 -74 647 -52
1192 323 2148 1160 2956 63 61 182 165 264 231 83 67 167 140 189 164 35 39
38 46 33 84 -7 50 -53 96 -95 95 -15 0 -70 -19 -122 -43z m-826 -828 c-124
-154 -191 -249 -286 -408 -393 -654 -570 -1406 -528 -2245 14 -293 33 -456 81
-720 88 -476 61 -675 -115 -851 -318 -317 -774 -107 -862 397 -13 74 -15 135
-11 284 14 530 175 1254 412 1856 87 221 407 781 568 994 150 200 430 499 612
655 85 74 217 171 224 164 2 -2 -41 -59 -95 -126z"/>
<path d="M2323 5804 c-41 -20 -82 -84 -128 -201 -41 -103 -28 -95 -180 -108
-136 -12 -201 -43 -220 -103 -13 -43 14 -86 115 -187 112 -111 110 -107 85
-227 -19 -89 -21 -178 -4 -210 37 -69 95 -64 247 21 130 72 126 71 223 14 141
-83 209 -101 256 -68 36 25 44 76 27 169 -8 44 -18 110 -21 144 l-6 64 101
101 c126 127 142 165 93 221 -26 31 -71 44 -202 61 -91 12 -128 20 -137 33 -8
9 -37 67 -66 127 -72 150 -114 184 -183 149z m77 -405 c34 -66 57 -81 143 -94
26 -4 47 -12 47 -18 0 -5 -22 -34 -50 -63 -54 -57 -56 -65 -39 -144 6 -28 9
-53 7 -55 -2 -2 -30 10 -63 26 -71 35 -88 36 -140 8 -88 -45 -85 -46 -78 24 6
71 -8 115 -57 177 l-30 37 49 7 c68 9 111 41 141 103 14 29 28 53 32 53 4 0
22 -27 38 -61z"/>
<path d="M5151 4466 c-12 -13 -57 -93 -99 -178 -89 -178 -77 -169 -259 -187
-138 -14 -206 -34 -232 -68 -26 -32 -27 -78 -3 -118 23 -38 117 -134 201 -206
l63 -55 -25 -135 c-44 -233 -43 -273 9 -318 42 -36 83 -24 262 73 l157 85 90
-50 c231 -128 292 -147 337 -101 36 35 37 135 2 299 l-28 134 131 132 c139
140 153 159 153 205 0 72 -64 103 -248 122 -195 21 -190 18 -268 195 -32 73
-61 122 -89 152 -37 38 -47 43 -87 43 -34 0 -50 -6 -67 -24z m109 -387 c27
-74 87 -139 145 -156 22 -7 68 -15 103 -19 l63 -7 -75 -77 c-42 -43 -78 -89
-82 -106 -5 -18 0 -65 13 -126 24 -116 23 -117 -77 -57 -105 62 -129 62 -245
-1 -53 -28 -99 -50 -101 -47 -3 3 2 31 10 63 39 158 33 184 -64 277 -39 37
-70 70 -70 75 0 5 38 12 85 14 127 8 150 24 205 136 24 51 50 92 56 92 6 0 21
-28 34 -61z"/>
<path d="M1354 4335 c-14 -14 -56 -89 -93 -168 -37 -78 -77 -150 -89 -161 -16
-14 -58 -23 -174 -37 -84 -10 -172 -25 -194 -34 -50 -19 -70 -56 -59 -112 5
-32 28 -59 141 -168 91 -88 134 -137 134 -152 0 -12 -11 -73 -25 -137 -27
-124 -32 -230 -14 -270 30 -65 112 -52 279 44 58 33 120 65 138 71 37 12 20
19 249 -100 119 -62 167 -70 207 -32 40 37 42 91 12 239 -42 205 -46 190 88
318 127 123 156 162 156 216 0 69 -68 98 -288 122 -73 9 -136 17 -140 20 -8 5
-24 35 -96 187 -65 137 -104 179 -167 179 -29 0 -47 -7 -65 -25z m123 -417
c24 -49 53 -94 67 -103 14 -9 63 -22 111 -29 47 -7 91 -18 97 -24 9 -9 -6 -28
-55 -74 -82 -79 -93 -111 -72 -213 18 -86 19 -115 2 -115 -7 0 -44 18 -81 41
-99 59 -116 60 -232 5 -53 -25 -99 -44 -102 -42 -2 3 3 46 12 96 10 51 14 105
10 122 -4 21 -32 56 -82 104 l-77 73 27 10 c14 5 55 13 90 17 116 12 145 36
198 167 13 31 29 56 34 54 6 -1 30 -42 53 -89z"/>
<path d="M290 2581 c-225 -6 -248 -11 -272 -54 -10 -17 -14 -275 -16 -1230 -3
-1086 -2 -1211 12 -1233 37 -56 -204 -52 3356 -55 2311 -1 3293 1 3311 9 14 6
33 18 42 27 16 15 17 115 17 1244 l0 1227 -27 26 -28 26 -1130 5 c-1213 6
-1173 7 -1209 -44 -25 -37 -20 -124 20 -302 75 -332 54 -568 -71 -817 -57
-112 -130 -215 -223 -312 -122 -128 -263 -208 -452 -260 -112 -30 -378 -33
-478 -6 -292 81 -531 286 -680 584 -120 239 -179 597 -137 842 23 140 18 242
-14 276 -14 14 -41 31 -60 38 -40 12 -1567 20 -1961 9z m1816 -363 c-24 -521
126 -961 434 -1268 163 -164 340 -265 558 -322 208 -54 405 -41 671 44 204 64
327 140 474 291 134 138 243 322 307 516 46 143 61 227 67 386 5 134 3 165
-21 289 -14 77 -26 156 -26 178 l0 38 985 0 985 0 0 -1080 0 -1080 -3165 0
-3165 0 0 1080 0 1080 951 0 952 0 -7 -152z"/>
</g>
</svg>
