<svg xmlns="http://www.w3.org/2000/svg" width="64" height="64" viewBox="0 0 64 64" fill="none">
  <path d="M30.0695 57.8695C29.6404 57.7338 29.2334 57.5762 28.857 57.4011C25.3288 55.7771 24.948 51.3516 24.983 47.9417C25.0312 43.7701 25.6659 39.6642 26.9002 35.6764C29.3734 27.6835 33.9302 20.4652 39.2443 14.0656C41.1529 11.7675 43.1708 9.56132 45.2719 7.4383C47.1454 5.54729 48.997 3.60814 51.3345 2.28618C51.6278 2.11985 51.9517 1.95789 52.2844 2.01479C52.7703 2.09796 53.0635 2.64075 53.0373 3.13539C53.0198 3.62564 52.7615 4.07213 52.5164 4.49673C48.5461 11.321 44.4183 18.0227 41.1047 25.1796C38.2157 31.426 34.0265 39.4497 34.9589 46.541C35.3354 49.4169 38.3164 52.945 37.1564 55.8472C36.0226 58.6793 32.6739 58.6968 30.0695 57.8695Z" stroke="#F1633D" stroke-width="1.8389" stroke-miterlimit="10"/>
  <path d="M2 46.7963C5.26549 46.3673 8.49596 45.6888 11.7615 45.238C14.2872 44.8922 18.1655 43.8416 20.2316 45.842C21.7505 47.3084 21.7111 49.2563 22.1532 51.7558C22.5077 53.7431 23.055 56.8335 24.9547 58.9915C26.9595 61.2809 30.4483 62.4934 33.7532 61.9287C36.1738 61.5128 38.415 60.3223 39.8026 58.243C40.8794 56.6277 41.3565 54.6055 41.1115 52.6794C40.8707 50.7971 39.5487 48.8624 40.433 46.967C41.9737 43.6665 46.9989 44.8878 49.7391 45.2073C53.8276 45.6845 57.9248 46.1265 62 46.7088" stroke="#F1633D" stroke-width="1.84002" stroke-miterlimit="10" stroke-linecap="round"/>
  <path d="M5.95202 37.2704C5.65436 37.7301 5.40047 38.2247 5.17285 38.7237C4.80516 39.5379 4.3149 40.6935 4.65633 41.5821C4.94524 42.3263 5.89074 42.9829 6.70492 42.7859C7.35276 42.6283 7.66355 41.9498 7.74672 41.3458C7.95683 39.8005 7.05072 38.2772 5.95202 37.2704Z" stroke="#F1633D" stroke-width="1.44445" stroke-miterlimit="10"/>
  <path d="M13.4504 32.9236C13.1528 33.3876 12.8989 33.8823 12.6713 34.3812C12.3036 35.1955 11.8133 36.3511 12.1547 37.2397C12.4437 37.9838 13.3892 38.636 14.2033 38.439C14.8512 38.2814 15.1619 37.6074 15.2451 36.9989C15.4552 35.4581 14.5492 33.9348 13.4504 32.9236Z" stroke="#F1633D" stroke-width="1.44445" stroke-miterlimit="10"/>
  <path d="M17.7201 24.6273C17.4224 25.0869 17.1642 25.5816 16.9409 26.0805C16.5732 26.8948 16.0786 28.0504 16.4244 28.939C16.7089 29.6831 17.6544 30.3397 18.473 30.1384C19.1208 29.9808 19.4272 29.3067 19.5104 28.6982C19.7205 27.1574 18.8145 25.6341 17.7201 24.6273Z" stroke="#F1633D" stroke-width="1.44445" stroke-miterlimit="10"/>
  <path d="M7.57566 26.3183C7.278 26.7822 7.01974 27.2769 6.7965 27.7759C6.42881 28.5901 5.93416 29.7457 6.27997 30.6343C6.5645 31.3784 7.51 32.0306 8.32856 31.8337C8.97202 31.6761 9.28281 31.002 9.36602 30.3935C9.57613 28.8527 8.66999 27.325 7.57566 26.3183Z" stroke="#F1633D" stroke-width="1.44445" stroke-miterlimit="10"/>
  <path d="M20.9577 35.051C20.66 35.515 20.4018 36.0096 20.1785 36.5087C19.8065 37.3228 19.3162 38.4785 19.662 39.3671C19.9466 40.1112 20.8921 40.7635 21.7062 40.5665C22.3541 40.4089 22.6649 39.7348 22.748 39.1263C22.9581 37.5855 22.0521 36.0578 20.9577 35.051Z" stroke="#F1633D" stroke-width="1.44445" stroke-miterlimit="10"/>
  <path d="M44.6604 36.2243C44.2708 36.6095 43.9162 37.0385 43.588 37.4762C43.0539 38.1941 42.3273 39.2184 42.4718 40.1595C42.5943 40.9474 43.3778 41.7879 44.2139 41.7704C44.8793 41.7573 45.3257 41.1619 45.5402 40.5885C46.0742 39.1265 45.514 37.4413 44.6604 36.2243Z" stroke="#F1633D" stroke-width="1.44445" stroke-miterlimit="10"/>
  <path d="M52.9139 33.5805C52.5242 33.97 52.1696 34.3991 51.8414 34.8368C51.3073 35.5547 50.5807 36.5789 50.7252 37.5157C50.8477 38.308 51.6313 39.1484 52.4673 39.1309C53.1327 39.1177 53.5835 38.5225 53.7936 37.949C54.3277 36.4826 53.7674 34.8017 52.9139 33.5805Z" stroke="#F1633D" stroke-width="1.44445" stroke-miterlimit="10"/>
  <path d="M58.8626 26.3907C58.473 26.7803 58.1185 27.2093 57.7901 27.647C57.2561 28.3649 56.5294 29.3892 56.6739 30.3259C56.7964 31.1182 57.5756 31.9587 58.4161 31.9412C59.0814 31.9281 59.5279 31.3327 59.7425 30.7593C60.2765 29.2928 59.7162 27.612 58.8626 26.3907Z" stroke="#F1633D" stroke-width="1.44445" stroke-miterlimit="10"/>
  <path d="M48.5845 25.872C48.195 26.2616 47.836 26.6906 47.5077 27.1283C46.978 27.8462 46.2471 28.8704 46.3914 29.8116C46.5141 30.5995 47.2976 31.4399 48.1336 31.4225C48.8034 31.4094 49.2499 30.814 49.46 30.2362C49.9984 28.7786 49.4381 27.0933 48.5845 25.872Z" stroke="#F1633D" stroke-width="1.44445" stroke-miterlimit="10"/>
  <path d="M59.7862 37.2705C59.3923 37.6602 59.0377 38.0848 58.7094 38.5268C58.1754 39.2404 57.4487 40.2646 57.5932 41.2058C57.7158 41.9937 58.4993 42.8385 59.3354 42.821C60.0007 42.8035 60.4516 42.2125 60.6617 41.6347C61.1957 40.1728 60.6398 38.4874 59.7862 37.2705Z" stroke="#F1633D" stroke-width="1.44445" stroke-miterlimit="10"/>
</svg>