<svg xmlns="http://www.w3.org/2000/svg" width="64" height="64" viewBox="0 0 64 64" fill="none">
  <path d="M30.1032 55.9555C29.6932 55.8244 29.2959 55.668 28.9323 55.5031C25.5251 53.9348 25.1574 49.6611 25.1954 46.3681C25.2377 42.3395 25.8549 38.3743 27.0469 34.5191C29.4311 26.8044 33.8359 19.8337 38.9678 13.6535C40.8066 11.4341 42.7596 9.30361 44.7887 7.25339C46.5938 5.42722 48.3861 3.55455 50.6392 2.27793C50.9224 2.11729 51.2394 1.95666 51.5565 2.01161C52.0258 2.09616 52.3089 2.62033 52.2878 3.09378C52.2666 3.57147 52.0215 4.00265 51.7806 4.41268C47.9506 11.0029 43.9602 17.4749 40.7602 24.3864C37.9702 30.4187 33.9247 38.1672 34.8293 45.0153C35.1929 47.7927 38.0673 51.1998 36.9471 54.0024C35.8523 56.7375 32.6227 56.7501 30.1032 55.9555Z" stroke="#F1633D" stroke-width="1.77585" stroke-miterlimit="10"/>
  <path d="M3 45.2536C6.15352 44.8352 9.269 44.1841 12.4225 43.7487C14.8617 43.4148 18.6112 42.4003 20.6064 44.3321C22.0691 45.744 22.031 47.6294 22.458 50.0431C22.8004 51.9622 23.333 54.9425 25.1634 57.0307C27.1037 59.2416 30.4729 60.4125 33.6644 59.8672C36.0021 59.4656 38.1622 58.3116 39.5023 56.3079C40.5421 54.748 41.0071 52.7951 40.7662 50.935C40.5379 49.1173 39.2571 47.2489 40.111 45.4185C41.6032 42.2269 46.4518 43.4106 49.0981 43.7192C53.0506 44.1799 57.003 44.6068 60.9385 45.1691" stroke="#F1633D" stroke-width="1.77693" stroke-miterlimit="10" stroke-linecap="round"/>
  <path d="M15.1321 37.8048C15.1321 38.832 14.2952 39.6648 13.2679 39.6648C12.2449 39.6648 11.408 38.832 11.408 37.8048C11.408 36.7776 12.2449 35.9448 13.2679 35.9448C14.2952 35.9448 15.1321 36.7776 15.1321 37.8048Z" stroke="#F1633D" stroke-width="1.39059" stroke-miterlimit="10"/>
  <path d="M16.988 29.2066C16.988 30.2296 16.1594 31.0666 15.128 31.0666C14.1008 31.0666 13.2722 30.2296 13.2722 29.2066C13.2722 28.1794 14.1008 27.3425 15.128 27.3425C16.1594 27.3425 16.988 28.1794 16.988 29.2066Z" stroke="#F1633D" stroke-width="1.39059" stroke-miterlimit="10"/>
  <path d="M22.0226 36.7523C22.0226 37.7795 21.1941 38.6123 20.1668 38.6123C19.1354 38.6123 18.3069 37.7795 18.3069 36.7523C18.3069 35.7251 19.1354 34.8922 20.1668 34.8922C21.1941 34.8922 22.0226 35.7251 22.0226 36.7523Z" stroke="#F1633D" stroke-width="1.39059" stroke-miterlimit="10"/>
  <path d="M42.0893 38.6059C42.0893 39.6373 41.2565 40.4701 40.2293 40.4701C39.2021 40.4701 38.3693 39.6373 38.3693 38.6059C38.3693 37.5828 39.2021 36.7501 40.2293 36.7501C41.2565 36.7501 42.0893 37.5828 42.0893 38.6059Z" stroke="#F1633D" stroke-width="1.39059" stroke-miterlimit="10"/>
  <path d="M56.0074 31.4323C56.0074 32.4595 55.1747 33.2923 54.1474 33.2923C53.1202 33.2923 52.2875 32.4595 52.2875 31.4323C52.2875 30.4051 53.1202 29.5724 54.1474 29.5724C55.1747 29.5724 56.0074 30.4051 56.0074 31.4323Z" stroke="#F1633D" stroke-width="1.39059" stroke-miterlimit="10"/>
  <path d="M60.1946 38.6059C60.1946 39.6373 59.366 40.4701 58.3346 40.4701C57.3074 40.4701 56.4788 39.6373 56.4788 38.6059C56.4788 37.5828 57.3074 36.7501 58.3346 36.7501C59.366 36.7501 60.1946 37.5828 60.1946 38.6059Z" stroke="#F1633D" stroke-width="1.39059" stroke-miterlimit="10"/>
  <path d="M7.26526 35.9406C7.26526 36.9678 6.43249 37.8006 5.40527 37.8006C4.37805 37.8006 3.54529 36.9678 3.54529 35.9406C3.54529 34.9134 4.37805 34.0806 5.40527 34.0806C6.43249 34.0806 7.26526 34.9134 7.26526 35.9406Z" stroke="#F1633D" stroke-width="1.39059" stroke-miterlimit="10"/>
  <path d="M50.9496 37.8048C50.9496 38.832 50.1211 39.6648 49.0897 39.6648C48.0624 39.6648 47.2339 38.832 47.2339 37.8048C47.2339 36.7776 48.0624 35.9448 49.0897 35.9448C50.1211 35.9448 50.9496 36.7776 50.9496 37.8048Z" stroke="#F1633D" stroke-width="1.39059" stroke-miterlimit="10"/>
</svg>