<svg xmlns="http://www.w3.org/2000/svg" width="64" height="64" viewBox="0 0 64 64" fill="none">
  <path d="M53.7286 35.2076C55.4763 39.6834 55.422 42.1758 53.5992 46.5889C52.9694 48.1239 52.0726 49.538 51.3218 51.0104C51.1466 51.3483 51.0089 51.7446 51.0006 52.1116C50.9088 54.7228 50.9463 57.3465 50.7628 59.9494C50.7169 60.7002 50.646 61.4427 50.5542 62.1851H48.5396C48.7773 60.5583 48.8774 58.9232 48.9149 57.2672C49.0067 53.1085 48.9776 48.9373 48.94 44.7786C48.9149 41.3415 46.2412 39.2475 43.167 40.1652C42.387 40.3863 41.6112 40.6908 40.8145 40.8159C38.9207 41.0996 37.0145 41.3749 35.1124 41.5167C32.3218 41.7085 29.5271 41.5667 26.7658 41.0871C25.3476 40.8451 23.9544 40.3571 22.5361 40.0443C19.8832 39.4436 17.4014 41.425 17.3013 44.324C17.2095 46.8725 17.1928 49.4253 17.1928 51.9781C17.1928 52.7706 17.1803 53.5757 17.1928 54.3682C17.2095 56.992 17.2637 59.6031 17.6141 62.1851H15.6244C15.224 59.0442 15.1781 55.8699 15.224 52.6998C15.2324 51.9489 15.0322 51.4275 14.5274 50.9103C12.4794 48.7454 11.0235 46.1926 10.5105 43.0934C10.035 40.2445 10.4271 37.5123 11.4156 34.8678" stroke="#F1633D" stroke-width="1.5" stroke-miterlimit="10"/>
  <path d="M63 30.5338C63 32.7904 62.6245 34.9845 61.9196 37.0576H3.38481C2.6757 34.9845 2.30029 32.7904 2.30029 30.5338C2.30029 16.9815 15.8902 5.99866 32.6543 5.99866C49.4226 5.99866 63 16.9815 63 30.5338Z" stroke="#F1633D" stroke-width="0.917266" stroke-miterlimit="10"/>
  <path d="M3.04492 35.6311H62.2596" stroke="#F1633D" stroke-width="2.60124" stroke-miterlimit="10"/>
  <path d="M2 30.0687H63" stroke="#F1633D" stroke-width="2.65143" stroke-miterlimit="10"/>
  <path d="M3.21387 24.5065H62.0782" stroke="#F1633D" stroke-width="2.63755" stroke-miterlimit="10"/>
  <path d="M25.9009 0.997437V5.84857" stroke="#F1633D" stroke-width="1.37644" stroke-miterlimit="10" stroke-linecap="round"/>
  <path d="M36.9692 1.08289V6.18012" stroke="#F1633D" stroke-width="1.37644" stroke-miterlimit="10" stroke-linecap="round"/>
</svg>