<svg xmlns="http://www.w3.org/2000/svg" width="64" height="64" viewBox="0 0 64 64" fill="none">
  <g clip-path="url(#clip0_4_4205)">
    <path d="M27.0769 35.8079C29.628 27.553 34.3412 20.0942 39.8324 13.4812C41.8 11.1065 43.8898 8.8268 46.061 6.63304C47.9923 4.679 49.9102 2.6752 52.3211 1.30918C52.6242 1.13731 52.9634 0.96542 53.3026 1.02422C53.8047 1.11469 54.1078 1.67557 54.0852 2.18217C54.0625 2.69329 53.8002 3.15466 53.5424 3.59342C49.4443 10.6407 45.1743 17.5702 41.7503 24.9657C41.0763 26.4312 40.3255 27.9917 39.5882 29.6111" stroke="#F1633D" stroke-width="1.4926" stroke-miterlimit="10"/>
    <path d="M39.7113 29.3575C38.6846 31.0763 37.4045 30.6512 37.1964 32.6413C36.9929 34.6226 39.4219 34.5366 39.0012 36.4771C38.576 38.4401 36.1877 37.3275 35.758 39.2905C35.3283 41.231 37.7392 41.1541 37.5266 43.1353C37.314 45.1255 34.8308 44.5737 34.9846 46.5729C35.0976 48.0023 37.4769 46.6272 37.9021 47.9932C38.3228 49.3457 35.7942 49.4045 36.2737 50.7343C36.7622 52.0822 38.9243 50.49 39.3043 51.8697C39.6797 53.2267 37.2327 52.8738 37.2552 54.276C37.2778 55.6873 39.9194 55.3706 39.3676 56.6733C38.8701 57.8404 37.608 55.5652 36.4908 56.1668C35.3555 56.7774 36.6446 58.7676 35.3555 58.8762C34.0392 58.9892 34.9167 56.4336 33.596 56.3929C32.2842 56.3567 32.9627 57.9353 31.9179 58.7269C31.4157 59.1068 30.7463 59.5818 30.8141 58.953C30.9272 57.958 31.1715 56.6869 32.0219 57.2116C32.8722 57.7408 31.5424 58.3334 30.9227 59.1159C30.7508 59.333 30.4342 58.9576 30.5654 58.7088C31.0132 57.8404 31.271 56.8045 31.9179 57.5373C32.5782 58.2836 31.5785 59.7175 30.7553 59.1566C29.4662 58.2791 31.3343 56.8407 30.199 55.7778C29.0637 54.7148 27.6026 56.7502 26.7794 55.4339C25.9517 54.1042 28.5073 53.6292 27.951 52.1682C27.3991 50.7072 25.2008 52.0416 24.9159 50.5081C24.6309 48.9748 27.286 49.4135 27.1549 47.8621C27.0236 46.279 24.6716 47.1519 24.5042 45.5687C24.3414 43.9993 26.802 44.3837 26.6256 42.8142C26.4538 41.231 23.8846 42.1085 23.9434 40.5208C24.0022 39.0056 25.9155 40.0187 26.7477 38.7568C27.5619 37.5219 26.6934 37.1284 27.0916 35.6991" stroke="#F1633D" stroke-width="1.4926" stroke-miterlimit="10"/>
    <path d="M2 46.291C5.37434 45.8431 8.71249 45.1466 12.0868 44.6807C14.6922 44.3188 18.7043 43.2377 20.8393 45.3003C22.4088 46.8156 22.3636 48.8329 22.825 51.4157C23.1913 53.4693 23.7568 56.6582 25.7153 58.8927C27.7915 61.2538 31.4011 62.5067 34.8116 61.9233C37.313 61.4981 39.6288 60.2632 41.0582 58.1192C42.1754 56.4501 42.6684 54.3603 42.4152 52.3702C42.1664 50.4252 40.7958 48.4259 41.7141 46.4673C43.3062 43.0523 48.4989 44.3142 51.3304 44.6444C55.5552 45.1375 59.7889 45.5989 64 46.2005" stroke="#F1633D" stroke-width="1.90135" stroke-miterlimit="10" stroke-linecap="round"/>
    <path d="M46.5222 28.7992C47.5897 25.7008 49.1955 21.9285 51.6606 17.9118C53.6373 14.6912 55.7406 12.0045 57.7218 9.81517" stroke="#F1633D" stroke-width="1.90135" stroke-miterlimit="10" stroke-linecap="round"/>
    <path d="M58.2918 13.1646L57.1384 10.4959L54.4199 9.46914L60.7298 6.72806L58.2918 13.1646Z" fill="#F1633D"/>
    <path d="M23.4402 30.0341C24.5032 26.9402 26.1089 23.1632 28.5696 19.1466C30.5417 15.9216 32.645 13.2347 34.6216 11.041" stroke="#F1633D" stroke-width="1.90135" stroke-miterlimit="10" stroke-linecap="round"/>
    <path d="M35.1868 14.3927L34.0334 11.724L31.3104 10.7017L37.6203 7.95611L35.1868 14.3927Z" fill="#F1633D"/>
  </g>
  <defs>
    <clipPath id="clip0_4_4205">
      <rect width="64" height="64" fill="white"/>
    </clipPath>
  </defs>
</svg>