<svg xmlns="http://www.w3.org/2000/svg" width="64" height="64" viewBox="0 0 64 64" fill="none">
  <g clip-path="url(#clip0_4_4057)">
    <path d="M30.0009 58.7284C29.5576 58.5882 29.1369 58.4254 28.748 58.2444C25.1022 56.5663 24.7087 51.9933 24.7494 48.4697C24.7946 44.1591 25.455 39.9163 26.7305 35.7957C29.2816 27.5362 33.9948 20.0774 39.4815 13.4644C41.4537 11.0897 43.5434 8.81 45.71 6.61627C47.646 4.66223 49.5593 2.65843 51.9748 1.29243C52.2778 1.12056 52.6125 0.95321 52.9563 1.012C53.4584 1.0979 53.7614 1.65883 53.7388 2.16992C53.7162 2.6765 53.4538 3.13791 53.196 3.57665C49.098 10.6284 44.828 17.5535 41.4039 24.9489C38.4186 31.4036 34.0899 39.6946 35.0533 47.0223C35.4468 49.9941 38.5227 53.6398 37.324 56.6387C36.1525 59.5653 32.6922 59.5833 30.0009 58.7284Z" stroke="#F1633D" stroke-width="2" stroke-miterlimit="10"/>
    <path d="M1 47.2724C4.37886 46.8291 7.71249 46.128 11.0868 45.6621C13.6967 45.3047 17.7088 44.2192 19.8438 46.2863C21.4088 47.8016 21.3682 49.8144 21.8295 52.3972C22.1914 54.4508 22.7613 57.6442 24.7198 59.8741C26.796 62.2397 30.401 63.4926 33.8116 62.9092C36.3174 62.4795 38.6288 61.2492 40.0626 59.1007C41.1753 57.4316 41.6729 55.3418 41.4151 53.3516C41.1708 51.4112 39.8003 49.4073 40.714 47.4488C42.3061 44.0383 47.4988 45.3002 50.3304 45.6304C54.5551 46.1234 58.7888 46.5803 63 47.1819" stroke="#F1633D" stroke-width="2" stroke-miterlimit="10" stroke-linecap="round"/>
    <path d="M41.4987 5.04511C38.9928 5.43861 37.8846 6.5558 39.1466 8.9848C41.0735 12.5129 44.7826 15.245 48.7856 15.8556C51.5085 16.2808 51.3322 13.7478 50.8166 11.8209C51.6578 13.1417 52.4313 15.6747 50.5542 16.6381C47.7317 17.7282 44.6694 16.222 42.3309 14.7293C39.0109 12.6894 34.2343 4.51587 41.4987 5.04511Z" fill="#F1633D"/>
    <path d="M33.8238 17.3626C31.2049 17.937 29.9475 19.1493 31.5124 21.6822C33.2856 24.4279 36.1035 26.5583 39.2245 27.5986C42.9969 28.8923 46.1541 28.838 44.3901 23.9077C45.4123 25.2466 46.3758 27.965 44.3539 29.0506C41.3821 30.3307 38.035 28.9963 35.3979 27.576C31.5939 25.5903 25.8856 17.2948 33.8238 17.3626Z" fill="#F1633D"/>
    <path d="M26.3115 30.8845C21.2816 32.8973 24.2398 35.8601 27.397 37.8593C30.3145 39.6776 33.915 40.5597 37.3301 40.2249C40.5189 39.8767 39.8359 37.511 38.6056 35.3896C40.9984 37.5563 41.3512 40.6501 37.5833 41.5096C32.4856 42.5138 26.9764 40.614 23.7015 36.5476C21.4852 33.716 22.8783 31.2328 26.3115 30.8845Z" fill="#F1633D"/>
  </g>
  <defs>
    <clipPath id="clip0_4_4057">
      <rect width="64" height="64" fill="white"/>
    </clipPath>
  </defs>
</svg>