<?xml version="1.0" standalone="no"?>
<!DOCTYPE svg PUBLIC "-//W3C//DTD SVG 20010904//EN"
 "http://www.w3.org/TR/2001/REC-SVG-20010904/DTD/svg10.dtd">
<svg version="1.0" xmlns="http://www.w3.org/2000/svg"
 width="4020.000000pt" height="4000.000000pt" viewBox="0 0 4020.000000 4000.000000"
 preserveAspectRatio="xMidYMid meet">

<g transform="translate(0.000000,4000.000000) scale(0.100000,-0.100000)"
fill="#000000" stroke="none">
<path d="M14743 39990 c-44 -14 -136 -101 -177 -168 -90 -149 -134 -328 -170
-692 -122 -1221 -111 -2426 30 -3480 324 -2417 1310 -4065 2914 -4869 317
-159 451 -205 943 -322 161 -38 355 -88 432 -111 204 -60 236 -68 267 -68 47
0 134 -39 181 -81 147 -129 139 -368 -23 -689 -174 -345 -440 -541 -854 -632
-90 -20 -130 -23 -366 -23 -199 0 -296 5 -390 18 -204 29 -505 92 -840 178
-173 44 -400 102 -505 129 -235 60 -404 95 -560 115 -142 19 -506 22 -670 5
-613 -60 -1165 -280 -1615 -643 -126 -102 -352 -331 -436 -442 -123 -165 -340
-533 -422 -716 l-37 -84 -3 -4262 c-1 -2484 -6 -4263 -11 -4263 -9 0 -363 134
-435 165 -108 46 -242 159 -322 272 -25 33 -65 103 -91 154 -87 177 -254 719
-393 1284 -198 803 -330 1512 -600 3220 -323 2040 -507 2960 -766 3820 l-45
149 45 311 c539 3656 766 7593 646 11180 l-10 300 -31 63 c-56 115 -170 170
-333 160 -139 -9 -241 -69 -290 -171 -29 -59 -48 -171 -70 -422 -60 -652 -59
-1197 4 -2715 65 -1564 61 -2072 -25 -3010 -60 -647 -117 -1094 -335 -2620
-234 -1637 -299 -2174 -354 -2924 l-14 -190 49 -180 c177 -644 348 -1434 525
-2416 30 -168 144 -838 254 -1490 260 -1551 366 -2127 516 -2805 153 -692 373
-1497 491 -1789 84 -210 195 -386 338 -535 190 -198 380 -305 648 -363 92 -20
128 -22 353 -20 l252 1 5 -387 c3 -239 11 -446 21 -542 110 -1088 455 -2066
1043 -2960 826 -1255 2061 -2219 3553 -2773 198 -74 390 -136 636 -206 l169
-48 6 -509 c4 -280 9 -694 13 -921 l6 -412 -272 -90 c-720 -237 -1239 -371
-2633 -676 -1521 -334 -2218 -531 -2894 -817 -1445 -614 -2335 -1595 -2796
-3083 -193 -623 -577 -2285 -759 -3285 -102 -562 -140 -855 -141 -1090 0 -171
2 -189 23 -242 27 -68 98 -149 168 -194 l50 -32 10495 -21 c15491 -30 13950
-29 14043 -8 192 44 235 94 257 300 59 539 -380 2883 -836 4467 -134 466 -252
793 -367 1025 -339 676 -816 1213 -1458 1640 -297 197 -576 347 -930 498 -694
297 -1338 477 -2970 832 -1183 257 -1704 388 -2255 569 -182 60 -593 209 -599
217 -1 2 4 292 10 644 7 352 13 735 13 851 l1 211 188 73 c1323 515 2194 995
2957 1629 183 152 594 561 735 730 215 260 412 545 584 845 548 955 848 2022
985 3510 13 142 22 201 32 207 8 5 31 9 52 9 70 0 328 30 432 51 460 88 750
331 940 783 105 250 167 467 403 1411 721 2871 1225 5220 1407 6550 76 561 93
835 77 1243 -33 791 -103 1374 -366 3047 -290 1841 -358 2554 -342 3600 6 451
11 595 51 1520 14 314 30 723 36 910 13 388 7 1394 -10 1610 -15 190 -48 485
-67 592 -35 202 -144 338 -303 379 -142 36 -271 -17 -366 -150 -95 -135 -124
-258 -154 -656 -48 -641 -61 -1016 -61 -1772 0 -1580 86 -2786 420 -5853 206
-1895 279 -2652 345 -3576 l16 -217 -846 -4083 c-465 -2246 -851 -4105 -858
-4131 -12 -45 -23 -56 -432 -398 l-420 -351 -6 4218 c-4 3018 -8 4233 -16
4269 -57 262 -137 452 -283 671 -114 172 -195 269 -364 439 -538 538 -1260
898 -1843 921 -334 13 -632 -29 -1703 -242 -920 -183 -1114 -212 -1435 -222
-232 -7 -338 4 -468 48 -121 40 -167 69 -276 174 -196 189 -382 484 -441 699
-18 64 -21 99 -18 175 5 116 24 165 104 262 52 64 57 68 107 74 1543 190 2934
1132 3792 2565 309 517 566 1194 659 1742 102 594 167 1661 182 2969 10 877
-25 1841 -77 2099 -26 130 -109 238 -226 293 -62 29 -77 32 -163 32 -121 0
-176 -23 -253 -104 -89 -93 -122 -180 -156 -403 -78 -521 -81 -1025 -16 -2298
66 -1286 59 -1886 -26 -2370 -91 -519 -336 -1132 -697 -1745 -109 -185 -304
-485 -314 -485 -6 0 -85 47 -177 104 -415 260 -728 420 -1138 584 -915 366
-1858 545 -3228 614 -358 17 -1600 14 -2310 -6 -1197 -35 -2243 -32 -2890 7
l-189 12 -64 195 c-115 352 -204 737 -256 1115 -96 694 -110 1287 -65 2780 12
385 6 1485 -9 1656 l-7 86 -54 59 c-152 167 -302 246 -408 214z m6292 -6810
c414 -21 676 -51 1027 -116 503 -92 1081 -234 1344 -330 67 -24 248 -98 402
-164 292 -124 459 -186 596 -221 45 -11 97 -24 118 -30 l36 -9 32 -132 c70
-290 17 -455 -179 -550 -36 -18 -100 -56 -141 -84 -158 -109 -368 -206 -616
-287 -148 -48 -257 -79 -634 -177 -617 -161 -880 -296 -1035 -530 -139 -211
-187 -530 -124 -841 117 -584 639 -1248 1209 -1538 268 -137 484 -183 755
-162 276 22 517 66 1190 216 877 195 1245 255 1675 271 585 22 1063 -116 1392
-403 370 -322 568 -880 568 -1604 l0 -126 -167 -78 c-539 -250 -1031 -390
-1623 -461 -208 -25 -719 -30 -950 -10 -1030 90 -1962 470 -2745 1120 -189
158 -286 267 -419 478 -119 188 -166 218 -344 218 -203 0 -377 -95 -865 -474
-386 -300 -540 -396 -971 -607 -881 -431 -1818 -673 -2855 -740 -239 -15 -915
-6 -1141 15 -1179 112 -2202 436 -3197 1012 -112 65 -203 121 -203 126 0 27
123 336 186 466 298 619 756 959 1424 1057 154 22 420 29 605 16 350 -26 625
-73 1353 -231 858 -186 1171 -230 1522 -217 270 11 455 56 661 163 493 257
937 865 1049 1439 86 443 -13 811 -292 1081 -189 184 -339 244 -903 364 -283
60 -456 107 -620 167 -141 53 -453 202 -610 293 -527 303 -937 677 -1138 1036
-59 106 -254 570 -244 580 3 4 127 -1 274 -10 707 -43 1274 -43 2483 0 953 34
1633 38 2115 14z m1650 -6835 c1240 -1062 2858 -1496 4613 -1240 351 52 673
126 1099 253 145 44 265 77 268 74 3 -3 5 -1839 5 -4081 0 -4549 7 -4127 -74
-4449 -85 -334 -271 -927 -373 -1186 -336 -853 -892 -1611 -1646 -2245 -1151
-968 -2733 -1593 -4477 -1770 -404 -41 -516 -46 -1060 -46 -545 0 -648 5
-1050 46 -1669 171 -3241 746 -4400 1609 -1045 778 -1750 1755 -2108 2920
-107 351 -172 585 -216 781 l-26 116 0 4432 c0 2437 3 4431 7 4431 3 0 108
-47 232 -104 318 -147 391 -178 605 -263 768 -303 1575 -491 2441 -569 245
-21 905 -30 1173 -15 1626 93 3083 596 4409 1523 l196 137 146 -139 c80 -76
187 -173 236 -215z m-3880 -15234 c470 -105 878 -167 1385 -208 274 -22 1332
-26 1640 -5 423 28 804 61 1174 102 99 11 188 20 198 20 18 0 18 -29 16 -957
l-3 -958 -28 -90 c-34 -110 -108 -264 -176 -365 -260 -390 -767 -790 -1238
-978 -190 -75 -370 -116 -632 -142 -134 -13 -415 -13 -539 1 -240 26 -509 100
-713 196 -932 441 -1441 1545 -1328 2883 9 107 52 451 65 512 4 23 10 27 27
23 12 -3 81 -18 152 -34z m-701 -2463 c174 -434 372 -743 656 -1028 223 -222
457 -389 745 -531 325 -159 601 -242 985 -296 179 -25 672 -25 855 1 768 106
1399 413 1896 922 236 243 387 460 556 802 64 127 117 232 119 232 1 0 105
-34 231 -76 614 -204 1137 -334 2538 -628 1193 -251 1632 -357 2204 -532 412
-126 669 -227 961 -375 1047 -531 1692 -1408 2075 -2818 127 -471 196 -833
400 -2096 75 -466 132 -776 205 -1116 33 -156 60 -286 60 -291 0 -4 -5265 -8
-11700 -8 -6435 0 -11700 2 -11700 5 0 2 30 109 66 237 144 508 228 894 384
1768 161 895 237 1251 355 1665 300 1044 755 1766 1440 2281 452 340 937 560
1765 798 502 144 912 241 1985 471 1081 232 1520 336 2024 481 210 60 717 226
793 259 18 8 36 14 39 15 4 0 32 -64 63 -142z"/>
<path d="M17900 22704 c-19 -3 -65 -11 -102 -20 -64 -15 -72 -21 -185 -126
-235 -218 -385 -307 -596 -355 -103 -23 -320 -22 -412 1 -161 42 -286 118
-480 291 -71 64 -150 129 -175 146 -54 36 -128 59 -192 59 -130 0 -307 -62
-350 -122 -45 -64 -35 -203 26 -347 76 -181 252 -389 421 -500 405 -266 964
-349 1470 -220 454 116 815 385 933 697 22 57 26 84 26 177 1 101 -1 114 -26
161 -35 66 -99 121 -163 139 -58 16 -144 24 -195 19z"/>
<path d="M26025 22704 c-73 -9 -152 -27 -175 -39 -14 -7 -79 -64 -145 -125
-137 -128 -227 -195 -335 -250 -269 -136 -577 -143 -825 -20 -96 48 -169 103
-333 248 -68 61 -151 125 -185 144 -59 31 -67 33 -162 33 -181 -1 -260 -43
-328 -173 -72 -137 -74 -240 -10 -373 116 -242 349 -435 666 -553 582 -217
1337 -148 1807 167 91 61 242 210 295 291 111 170 141 366 77 493 -29 56 -100
118 -158 136 -53 17 -142 27 -189 21z"/>
<path d="M21861 18135 c-71 -16 -68 -13 -225 -171 -61 -61 -137 -129 -168
-152 -173 -126 -344 -183 -558 -184 -253 -1 -413 68 -762 333 -167 126 -249
168 -344 176 -140 11 -304 -49 -346 -127 -41 -78 -14 -248 64 -403 91 -182
251 -371 398 -469 353 -236 856 -322 1325 -226 376 76 736 278 930 521 118
148 168 272 169 418 0 77 -3 93 -29 145 -36 69 -93 117 -167 139 -64 19 -200
18 -287 0z"/>
<path d="M38075 35253 c-263 -21 -446 -54 -634 -114 -727 -235 -1185 -813
-1302 -1639 -19 -129 -16 -462 5 -605 104 -732 504 -1327 1088 -1621 171 -86
382 -150 594 -180 141 -20 430 -22 584 -5 780 88 1355 511 1629 1198 145 366
192 820 126 1232 -113 702 -527 1288 -1101 1557 -284 133 -672 203 -989 177z
m274 -803 c462 -48 792 -320 955 -789 187 -536 74 -1147 -272 -1472 -194 -183
-447 -283 -785 -309 -609 -46 -1048 252 -1242 844 -57 174 -79 308 -78 481 1
241 42 434 134 625 63 131 116 205 215 301 154 149 335 238 583 289 179 36
334 46 490 30z"/>
<path d="M523 26765 c-234 -63 -443 -308 -504 -590 -17 -79 -17 -246 0 -315
37 -153 136 -278 271 -343 125 -61 182 -72 375 -72 157 1 176 3 251 28 213 71
370 238 430 457 24 87 24 252 0 340 -38 141 -125 263 -255 359 -75 56 -209
122 -283 140 -64 15 -221 13 -285 -4z"/>
<path d="M37000 17933 c-71 -12 -188 -47 -233 -70 -115 -58 -221 -200 -263
-353 -28 -99 -25 -300 4 -405 35 -123 86 -209 172 -296 122 -123 259 -173 475
-172 186 0 317 48 433 158 79 74 133 160 169 270 23 69 26 98 27 210 1 148
-13 213 -71 335 -28 58 -55 94 -117 155 -132 131 -249 176 -456 173 -63 0
-126 -3 -140 -5z"/>
<path d="M4560 17644 c-77 -16 -96 -35 -141 -142 -97 -232 -160 -669 -145
-1007 22 -512 169 -882 373 -941 157 -46 292 32 384 222 87 180 128 420 136
793 6 280 -5 479 -38 706 -41 284 -148 386 -405 384 -54 0 -128 -7 -164 -15z"/>
<path d="M2200 14973 c-167 -9 -308 -26 -355 -44 -61 -23 -126 -87 -155 -153
-11 -23 -24 -74 -30 -114 -24 -150 36 -343 118 -386 59 -31 304 -41 977 -40
701 0 779 4 843 47 85 56 135 172 136 317 1 125 -19 191 -79 258 -69 77 -132
91 -490 112 -151 9 -821 11 -965 3z"/>
<path d="M6180 14969 c-248 -15 -305 -33 -383 -119 -60 -66 -88 -141 -95 -253
-9 -154 42 -278 131 -317 68 -30 262 -41 827 -47 557 -6 903 5 963 31 80 34
151 152 166 272 17 144 -19 276 -95 343 -65 57 -140 72 -474 91 -202 11 -842
11 -1040 -1z"/>
<path d="M4607 13626 c-125 -45 -219 -185 -272 -408 -44 -185 -50 -263 -50
-613 1 -619 47 -855 195 -1005 77 -79 135 -105 230 -105 62 1 86 6 140 31 36
17 80 43 98 59 113 95 215 515 229 940 17 544 -119 992 -332 1091 -58 28 -175
32 -238 10z"/>
</g>
</svg>
