<svg width="160" height="170" viewBox="0 0 160 170" fill="none" xmlns="http://www.w3.org/2000/svg">
<g clip-path="url(#clip0_674_3719)">
<path d="M72.4142 17.9822C74.393 20.398 75.9144 23.0723 76.9762 25.911L14.3635 77.2337C11.7916 75.6326 9.46374 73.6172 7.4851 71.2041C-4.39813 56.7064 0.510161 33.042 18.44 18.3428C36.3727 3.64343 60.531 3.48445 72.4142 17.9822Z" stroke="#E38534" stroke-width="1.26895" stroke-miterlimit="10"/>
<path d="M12.7433 76.0033L76.0828 24.0844" stroke="#E38534" stroke-width="3.59676" stroke-miterlimit="10"/>
<path d="M6.75525 70.9629L72.0052 17.4799" stroke="#E38534" stroke-width="3.66774" stroke-miterlimit="10"/>
<path d="M3.16235 63.9437L66.1272 12.3344" stroke="#E38534" stroke-width="3.64786" stroke-miterlimit="10"/>
<path d="M9.11719 17.0375L13.3697 22.2268" stroke="#E38534" stroke-width="1.90484" stroke-miterlimit="10" stroke-linecap="round"/>
<path d="M21.0269 7.42535L25.498 12.8787" stroke="#E38534" stroke-width="1.90484" stroke-miterlimit="10" stroke-linecap="round"/>
<path d="M34.0344 108.779C37.8242 122.465 49.2846 131.966 62.2408 132.236C75.6088 132.514 87.6823 122.907 91.5999 108.779" stroke="#E38534" stroke-width="1.6096" stroke-miterlimit="10"/>
<path d="M77.207 27.6825C78.7123 28.747 86.1642 29.8116 88.2984 30.9941C95.3448 34.8985 98.4697 42.1477 101.246 49.9119C104.499 58.9989 104.397 68.1285 101.008 77.0905C99.8324 80.2105 98.1631 83.0806 96.7665 86.0754C96.4428 86.7567 96.1873 87.563 96.1703 88.3067C96 93.6124 96.0681 98.9409 95.7275 104.23C95.6423 105.757 95.506 107.264 95.3357 108.772H91.5857C92.0286 105.467 92.2159 102.143 92.2868 98.7763C92.4544 90.3308 92.4033 81.8627 92.3352 73.4144C92.2868 66.4337 87.3105 62.1783 81.5874 64.0378C80.1397 64.492 78.6919 65.1137 77.207 65.3607C73.6812 65.9398 70.1384 66.4961 66.5956 66.7857C61.3978 67.1774 56.2028 66.8879 51.0589 65.917C48.4188 65.423 45.827 64.4296 43.1869 63.7909C38.2474 62.573 33.6285 66.5983 33.4412 72.4861C33.2708 77.6697 33.3901 82.8534 33.3901 88.0371H33.2368C33.2368 89.6495 33.2197 91.2789 33.2368 92.8915C33.2708 98.2198 33.373 103.525 34.0203 108.772H30.3242C29.5747 102.39 29.4895 95.9459 29.5747 89.5047C29.5917 87.9745 29.217 86.9215 28.2802 85.8682C26.6868 83.7455 23 78.6 21 75" stroke="#E38534" stroke-width="1.6096" stroke-miterlimit="10" stroke-linecap="round"/>
<path d="M48.1564 128.005V152.169" stroke="#E38534" stroke-width="1.6096" stroke-miterlimit="10"/>
<path d="M81.1075 125.032V152.169" stroke="#E38534" stroke-width="1.6096" stroke-miterlimit="10"/>
<path d="M1.76514 170C12.0643 163.036 26.7523 155.437 45.2357 152.465C75.7217 147.559 99.9735 157.81 109.83 162.134C115.896 164.796 120.785 167.513 124.214 169.568" stroke="#E38534" stroke-width="1.6096" stroke-miterlimit="10"/>
<path d="M26.3164 128.223C29.1581 132.021 33.0218 138.394 34.2993 146.965C34.6625 149.392 34.7251 152.744 34.6795 154.78" stroke="#E38534" stroke-width="1.46199" stroke-miterlimit="10" stroke-linecap="round"/>
<path d="M30.9561 137.062C30.9561 137.062 15.5982 141.874 14.1703 127.671C12.7395 113.469 14.3378 108.929 14.3378 108.929C14.3378 108.929 39.5492 119.603 31.2287 136.579" stroke="#E38534" stroke-width="1.46199" stroke-miterlimit="10" stroke-linecap="round"/>
<path d="M140.918 41.4183C144.595 38.8862 145.781 34.0714 143.57 30.6791C141.333 27.2555 136.496 26.5459 132.8 29.1008C129.135 31.6357 127.99 36.4277 130.239 39.84C132.487 43.2521 137.237 43.9562 140.918 41.4183ZM76.2562 45.316C76.0093 45.1513 75.5521 44.8562 75.5208 44.524C75.4357 43.5985 77.8829 43.6922 78.4335 43.6524C83.6342 43.2947 88.815 41.8584 93.888 40.7257C100.59 39.2125 107.265 37.5661 114.007 36.2403C117.473 35.559 120.959 34.9629 124.468 34.5398C126.108 34.3412 126.807 33.8104 127.423 32.2659C129.035 28.2178 132.167 25.7907 136.442 25.2201C140.757 24.6467 144.033 26.2846 146.065 29.836C148.458 34.0148 146.823 39.9818 142.715 43.0592C138.346 46.3323 132.317 46.2243 128.831 42.2897C128.24 41.6227 127.792 40.8136 127.372 40.0159C126.798 38.923 126.12 38.5227 124.794 38.6788C120.508 39.1842 116.28 40.104 112.09 41.123C107.764 42.1705 103.466 43.3402 99.1369 44.3763C96.7693 44.9413 94.3819 45.4295 91.9861 45.8639C89.6696 46.2839 87.3842 46.8575 85.0166 46.9512C82.1722 47.0647 78.7373 46.8603 76.2562 45.316Z" fill="#E38534"/>
<path d="M140.918 41.4183C144.595 38.8862 145.781 34.0714 143.57 30.6791C141.333 27.2555 136.496 26.5459 132.8 29.1008C129.135 31.6357 127.99 36.4277 130.239 39.84C132.487 43.2521 137.237 43.9562 140.918 41.4183ZM76.2562 45.316C76.0093 45.1513 75.5521 44.8562 75.5208 44.524C75.4357 43.5985 77.8829 43.6922 78.4335 43.6524C83.6342 43.2947 88.815 41.8584 93.888 40.7257C100.59 39.2125 107.265 37.5661 114.007 36.2403C117.473 35.559 120.959 34.9629 124.468 34.5398C126.108 34.3412 126.807 33.8104 127.423 32.2659C129.035 28.2178 132.167 25.7907 136.442 25.2201C140.757 24.6467 144.033 26.2846 146.065 29.836C148.458 34.0148 146.823 39.9818 142.715 43.0592C138.346 46.3323 132.317 46.2243 128.831 42.2897C128.24 41.6227 127.792 40.8136 127.372 40.0159C126.798 38.923 126.12 38.5227 124.794 38.6788C120.508 39.1842 116.28 40.104 112.09 41.123C107.764 42.1705 103.466 43.3402 99.1369 44.3763C96.7693 44.9413 94.3819 45.4295 91.9861 45.8639C89.6696 46.2839 87.3842 46.8575 85.0166 46.9512C82.1722 47.0647 78.7373 46.8603 76.2562 45.316Z" fill="#E38534"/>
<path d="M109.752 5.27267C112.841 1.97966 117.84 1.52829 120.911 4.2649C124.009 7.02705 123.997 11.9808 120.883 15.2908C117.797 18.5696 112.821 18.9813 109.738 16.2077C106.652 13.4342 106.661 8.57137 109.752 5.27267ZM96.0748 69.4667C96.5432 70.3494 97.1336 70.2587 97.5254 69.3417C98.2124 67.7434 98.5588 66.026 99.0896 64.3738C101.125 58.0319 103.646 51.8603 106.093 45.666C109.062 38.1488 112.037 30.6033 114.186 22.7995C114.629 21.187 115.268 20.5682 116.909 20.1878C121.207 19.1942 124.108 16.432 125.314 12.2391C126.535 8.0036 125.386 4.47498 122.129 1.8945C118.297 -1.14019 112.074 -0.419127 108.375 3.22306C104.444 7.09518 103.652 13.1475 107.072 17.2439C107.651 17.9366 108.395 18.51 109.133 19.0522C110.144 19.7932 110.442 20.5341 110.087 21.8371C108.94 26.05 107.385 30.1434 105.741 34.1832C104.04 38.3532 102.229 42.4781 100.543 46.654C99.6234 48.9391 98.7745 51.2528 97.9825 53.5863C97.2613 55.7127 96.4638 57.8217 95.9443 60.0134C95.5695 61.5918 95.3992 63.2156 95.4133 64.8393C95.4248 66.273 95.385 68.1664 96.0748 69.4667Z" fill="#E38534"/>
<path d="M109.752 5.27267C112.841 1.97966 117.84 1.52829 120.911 4.2649C124.009 7.02705 123.997 11.9808 120.883 15.2908C117.797 18.5696 112.821 18.9813 109.738 16.2077C106.652 13.4342 106.661 8.57137 109.752 5.27267ZM96.0748 69.4667C96.5432 70.3494 97.1336 70.2587 97.5254 69.3417C98.2124 67.7434 98.5588 66.026 99.0896 64.3738C101.125 58.0319 103.646 51.8603 106.093 45.666C109.062 38.1488 112.037 30.6033 114.186 22.7995C114.629 21.187 115.268 20.5682 116.909 20.1878C121.207 19.1942 124.108 16.432 125.314 12.2391C126.535 8.0036 125.386 4.47498 122.129 1.8945C118.297 -1.14019 112.074 -0.419127 108.375 3.22306C104.444 7.09518 103.652 13.1475 107.072 17.2439C107.651 17.9366 108.395 18.51 109.133 19.0522C110.144 19.7932 110.442 20.5341 110.087 21.8371C108.94 26.05 107.385 30.1434 105.741 34.1832C104.04 38.3532 102.229 42.4781 100.543 46.654C99.6234 48.9391 98.7745 51.2528 97.9825 53.5863C97.2613 55.7127 96.4638 57.8217 95.9443 60.0134C95.5695 61.5918 95.3992 63.2156 95.4133 64.8393C95.4248 66.273 95.385 68.1664 96.0748 69.4667Z" fill="#E38534"/>
<path d="M134.233 31.172C136.699 29.4772 139.799 29.9541 141.298 32.2621C142.76 34.5132 141.983 37.6302 139.547 39.3024C137.12 40.9686 134.003 40.5173 132.512 38.2889C131.005 36.0376 131.771 32.864 134.233 31.172Z" fill="#E38534"/>
<path d="M112.836 6.17039C115.309 4.48697 118.392 4.98377 119.891 7.3059C121.339 9.5514 120.541 12.6798 118.094 14.3376C115.661 15.9898 112.538 15.5186 111.071 13.2816C109.58 11.0077 110.364 7.85381 112.836 6.17039Z" fill="#E38534"/>
<path d="M107.208 107.97L99.887 143.802C99.887 143.802 104.699 151.086 113.723 148.083L127.168 114.738C127.168 114.738 131.585 110.077 131.983 108.799C132.377 107.522 134.603 100.331 134.603 100.331C134.603 100.331 131.537 99.6753 130.643 102.375C129.748 105.075 124.127 102.869 124.127 102.869L114.538 99.7264C114.538 99.7264 110.853 98.236 112.117 95.4767C113.38 92.7144 109.891 91.1674 109.891 91.1674L106.527 102.034L107.109 108.458" stroke="#E38534" stroke-width="1.96445" stroke-miterlimit="10"/>
<path d="M126.451 103.066L128.1 97.735" stroke="#E38534" stroke-width="1.96445" stroke-miterlimit="10" stroke-linecap="round"/>
<path d="M123.307 102.102L124.956 96.7703" stroke="#E38534" stroke-width="1.96445" stroke-miterlimit="10" stroke-linecap="round"/>
<path d="M120.679 101.286L122.328 95.9552" stroke="#E38534" stroke-width="1.96445" stroke-miterlimit="10" stroke-linecap="round"/>
<path d="M117.702 100.355L119.351 95.0237" stroke="#E38534" stroke-width="1.96445" stroke-miterlimit="10" stroke-linecap="round"/>
<path d="M114.658 99.4235L116.307 94.0922" stroke="#E38534" stroke-width="1.96445" stroke-miterlimit="10" stroke-linecap="round"/>
<path d="M126.51 114.626L107.655 108.793" stroke="#E38534" stroke-width="1.96445" stroke-miterlimit="10"/>
<path d="M111.38 110.752L107.224 129.769C106.898 131.256 107.766 132.747 109.223 133.198L111.341 133.854C112.984 134.362 114.741 133.55 115.42 131.972L122.991 114.343L111.38 110.752Z" stroke="#E38534" stroke-width="1.96445" stroke-miterlimit="10"/>
</g>
<defs>
<clipPath id="clip0_674_3719">
<rect width="160" height="170" fill="white"/>
</clipPath>
</defs>
</svg>
