<svg width="160" height="170" viewBox="0 0 160 170" fill="none" xmlns="http://www.w3.org/2000/svg">
<g clip-path="url(#clip0_674_3747)">
<path d="M144.714 29.588C147.055 27.9793 149.997 28.432 151.42 30.6227C152.808 32.7594 152.07 35.718 149.758 37.3053C147.454 38.8868 144.495 38.4584 143.081 36.3433C141.65 34.2064 142.377 31.194 144.714 29.588Z" fill="#E38534"/>
<path d="M52.2974 109.584C55.9719 122.854 67.0838 132.066 79.646 132.328C92.6076 132.597 104.314 123.283 108.112 109.584" stroke="#E38534" stroke-width="1.56066" stroke-miterlimit="10"/>
<path d="M117.466 52.5064C114.774 44.9783 110.397 39.011 104.912 34.1639C101.031 30.7205 96.6872 30.0187 92.1097 31.9398C90.293 32.7023 88.5755 33.8033 86.6432 34.8437C86.4451 34.3456 86.0652 33.7042 85.9661 33.0215C85.7845 31.7802 85.7184 30.5003 85.6523 29.2369C85.5367 27.456 84.9092 26.6358 83.3898 26.7349C81.9035 26.8532 80.3979 27.0348 78.9281 27.4147C73.2139 28.9175 68.1108 32.0801 63.5335 36.2861C60.181 39.3909 57.1092 42.8947 53.9549 46.2582C52.8153 47.4803 51.6234 48.1603 49.8728 47.5794C50.2857 46.7206 50.649 45.9583 51.0454 45.2178C51.7555 43.8747 51.6894 42.6553 50.8472 41.9121C50.0379 41.2129 49.014 41.4745 48.1718 42.5535C45.133 46.4593 42.7879 50.8853 41.1034 55.7708C39.3198 60.9759 38.6096 66.3651 39.4684 71.972C40.3932 78.0771 43.0191 83.103 46.7185 87.3695C47.6268 88.3907 47.9901 89.4117 47.9736 90.8954C47.891 97.1407 47.9736 103.389 48.7002 109.576H52.284C51.6564 104.49 51.5573 99.3455 51.5243 94.1792C51.5078 92.6156 51.5243 91.0358 51.5243 89.4724H51.6729C51.6729 84.4463 51.5573 79.4202 51.7225 74.3943C51.9041 68.6855 56.3826 64.7826 61.1719 65.9634C63.7317 66.5827 66.2446 67.546 68.8045 68.0249C73.792 68.9663 78.829 69.247 83.8687 68.8672C87.3038 68.5864 90.7389 68.047 94.1575 67.4855C95.5972 67.246 97.001 66.6432 98.4047 66.2029C103.954 64.3999 108.779 68.5259 108.826 75.2944C108.892 83.4858 108.941 91.6964 108.779 99.8851C108.713 103.149 108.528 106.373 108.099 109.576H111.735C111.9 108.115 112.032 106.653 112.115 105.173C112.445 100.045 112.379 94.8782 112.544 89.7338C112.561 89.0127 112.808 88.2309 113.122 87.5703C114.476 84.6666 116.095 81.8838 117.234 78.8587C120.521 70.1692 120.62 61.3172 117.466 52.5064Z" stroke="#E38534" stroke-width="1.56066" stroke-miterlimit="10"/>
<path d="M66.0061 128.225V151.654" stroke="#E38534" stroke-width="1.56066" stroke-miterlimit="10"/>
<path d="M97.9399 125.343V151.654" stroke="#E38534" stroke-width="1.56066" stroke-miterlimit="10"/>
<path d="M21.0095 168.943C30.9956 162.191 45.2397 154.823 63.1583 151.941C92.7171 147.185 116.232 157.121 125.788 161.316C131.67 163.898 136.41 166.532 139.735 168.525" stroke="#E38534" stroke-width="1.56066" stroke-miterlimit="10"/>
<path d="M123.521 113.321L116.422 148.063C116.422 148.063 121.088 155.126 129.838 152.214L142.873 119.883C142.873 119.883 147.156 115.363 147.542 114.125C147.924 112.886 150.082 105.914 150.082 105.914C150.082 105.914 147.109 105.278 146.242 107.896C145.375 110.514 139.926 108.375 139.926 108.375L130.628 105.328C130.628 105.328 127.055 103.883 128.28 101.207C129.505 98.5291 126.122 97.0291 126.122 97.0291L122.86 107.566L123.424 113.794" stroke="#E38534" stroke-width="1.90472" stroke-miterlimit="10"/>
<path d="M136.582 106.841L138.182 101.672" stroke="#E38534" stroke-width="1.90472" stroke-miterlimit="10" stroke-linecap="round"/>
<path d="M133.679 105.937L135.278 100.768" stroke="#E38534" stroke-width="1.90472" stroke-miterlimit="10" stroke-linecap="round"/>
<path d="M130.744 105.034L132.343 99.8649" stroke="#E38534" stroke-width="1.90472" stroke-miterlimit="10" stroke-linecap="round"/>
<path d="M142.236 119.775L123.954 114.118" stroke="#E38534" stroke-width="1.90472" stroke-miterlimit="10"/>
<path d="M127.549 116.018L123.52 134.457C123.203 135.899 124.046 137.344 125.458 137.782L127.511 138.418C129.105 138.91 130.808 138.123 131.466 136.593L138.807 119.5L127.549 116.018Z" stroke="#E38534" stroke-width="1.90472" stroke-miterlimit="10"/>
<path d="M150.932 40.1589C154.497 37.7037 155.647 33.0354 153.503 29.7462C151.334 26.4267 146.644 25.7387 143.06 28.2159C139.507 30.6737 138.397 35.32 140.577 38.6286C142.757 41.9369 147.362 42.6196 150.932 40.1589ZM88.2361 43.9381C87.9967 43.7783 87.5534 43.4922 87.5231 43.1702C87.4405 42.2728 89.8133 42.3636 90.3471 42.325C95.3898 41.9782 100.413 40.5856 105.332 39.4873C111.83 38.0202 118.302 36.4238 124.839 35.1383C128.199 34.4777 131.58 33.8997 134.982 33.4895C136.572 33.2969 137.249 32.7823 137.847 31.2848C139.41 27.3598 142.446 25.0064 146.592 24.4532C150.775 23.8972 153.952 25.4854 155.922 28.9287C158.243 32.9805 156.657 38.766 152.674 41.7499C148.438 44.9234 142.592 44.8188 139.212 41.0038C138.64 40.3571 138.205 39.5726 137.797 38.7991C137.241 37.7394 136.584 37.3513 135.298 37.5027C131.142 37.9927 127.043 38.8845 122.981 39.8725C118.786 40.8882 114.619 42.0224 110.421 43.0269C108.125 43.5748 105.811 44.0481 103.488 44.4693C101.242 44.8766 99.0257 45.4327 96.7302 45.5235C93.9722 45.6336 90.6417 45.4354 88.2361 43.9381Z" fill="#E38534"/>
<path d="M150.932 40.1589C154.497 37.7037 155.647 33.0354 153.503 29.7462C151.334 26.4267 146.644 25.7387 143.06 28.2159C139.507 30.6737 138.397 35.32 140.577 38.6286C142.757 41.9369 147.362 42.6196 150.932 40.1589ZM88.2361 43.9381C87.9967 43.7783 87.5534 43.4922 87.5231 43.1702C87.4405 42.2728 89.8133 42.3636 90.3471 42.325C95.3898 41.9782 100.413 40.5856 105.332 39.4873C111.83 38.0202 118.302 36.4238 124.839 35.1383C128.199 34.4777 131.58 33.8997 134.982 33.4895C136.572 33.2969 137.249 32.7823 137.847 31.2848C139.41 27.3598 142.446 25.0064 146.592 24.4532C150.775 23.8972 153.952 25.4854 155.922 28.9287C158.243 32.9805 156.657 38.766 152.674 41.7499C148.438 44.9234 142.592 44.8188 139.212 41.0038C138.64 40.3571 138.205 39.5726 137.797 38.7991C137.241 37.7394 136.584 37.3513 135.298 37.5027C131.142 37.9927 127.043 38.8845 122.981 39.8725C118.786 40.8882 114.619 42.0224 110.421 43.0269C108.125 43.5748 105.811 44.0481 103.488 44.4693C101.242 44.8766 99.0257 45.4327 96.7302 45.5235C93.9722 45.6336 90.6417 45.4354 88.2361 43.9381Z" fill="#E38534"/>
<path d="M120.713 5.11224C123.708 1.91936 128.555 1.48171 131.533 4.13511C134.536 6.81328 134.525 11.6164 131.506 14.8258C128.514 18.0049 123.689 18.404 120.7 15.7148C117.708 13.0257 117.716 8.31064 120.713 5.11224ZM107.452 67.3544C107.906 68.2103 108.479 68.1223 108.858 67.2332C109.525 65.6835 109.86 64.0184 110.375 62.4164C112.349 56.2673 114.793 50.2833 117.165 44.2774C120.045 36.9888 122.929 29.6727 125.013 22.1061C125.442 20.5427 126.062 19.9427 127.652 19.5738C131.82 18.6105 134.633 15.9323 135.803 11.8668C136.986 7.76014 135.871 4.3388 132.714 1.83678C128.998 -1.10563 122.965 -0.406494 119.378 3.12495C115.566 6.87934 114.798 12.7477 118.115 16.7195C118.677 17.3911 119.398 17.9471 120.113 18.4728C121.093 19.1912 121.382 19.9096 121.038 21.173C119.926 25.2578 118.418 29.2268 116.824 33.1437C115.175 37.187 113.419 41.1865 111.784 45.2353C110.893 47.451 110.07 49.6943 109.302 51.9569C108.602 54.0186 107.829 56.0635 107.325 58.1886C106.962 59.7189 106.797 61.2934 106.811 62.8677C106.822 64.2578 106.783 66.0937 107.452 67.3544Z" fill="#E38534"/>
<path d="M120.713 5.11224C123.708 1.91936 128.555 1.48171 131.533 4.13511C134.536 6.81328 134.525 11.6164 131.506 14.8258C128.514 18.0049 123.689 18.404 120.7 15.7148C117.708 13.0257 117.716 8.31064 120.713 5.11224ZM107.452 67.3544C107.906 68.2103 108.479 68.1223 108.858 67.2332C109.525 65.6835 109.86 64.0184 110.375 62.4164C112.349 56.2673 114.793 50.2833 117.165 44.2774C120.045 36.9888 122.929 29.6727 125.013 22.1061C125.442 20.5427 126.062 19.9427 127.652 19.5738C131.82 18.6105 134.633 15.9323 135.803 11.8668C136.986 7.76014 135.871 4.3388 132.714 1.83678C128.998 -1.10563 122.965 -0.406494 119.378 3.12495C115.566 6.87934 114.798 12.7477 118.115 16.7195C118.677 17.3911 119.398 17.9471 120.113 18.4728C121.093 19.1912 121.382 19.9096 121.038 21.173C119.926 25.2578 118.418 29.2268 116.824 33.1437C115.175 37.187 113.419 41.1865 111.784 45.2353C110.893 47.451 110.07 49.6943 109.302 51.9569C108.602 54.0186 107.829 56.0635 107.325 58.1886C106.962 59.7189 106.797 61.2934 106.811 62.8677C106.822 64.2578 106.783 66.0937 107.452 67.3544Z" fill="#E38534"/>
<path d="M123.703 5.98232C126.101 4.35008 129.09 4.83178 130.543 7.08331C131.947 9.26053 131.174 12.2938 128.801 13.9012C126.442 15.5032 123.414 15.0463 121.991 12.8773C120.546 10.6726 121.306 7.61455 123.703 5.98232Z" fill="#E38534"/>
<path d="M22.4341 36.9147C21.1009 36.9147 19.7677 36.9254 18.4344 36.9576C15.3594 37.0222 12.6284 36.8718 10.5856 34.2374C7.4245 30.1411 9.44586 22.819 14.596 21.4641C15.1766 21.3029 15.7895 21.2276 16.3593 21.0127C18.3054 20.2815 17.327 18.7761 17.9614 17.2925C18.671 15.6366 20.7999 15.0776 21.1762 14.9701C24.0469 14.2067 25.4984 16.1957 27.3477 15.3249C28.8208 14.6259 28.5196 13.0669 29.6701 11.4864C32.2076 7.98135 39.8629 7.03505 44.153 10.1425C46.4969 11.8413 49.5503 15.9808 49.7869 19.4429C49.8193 19.8837 49.8515 20.9912 50.5934 21.4966C51.5825 22.1739 52.7976 21.0556 54.2597 21.0556C57.0982 21.0556 60.7538 25.2812 60.4314 29.7216C60.2701 31.8828 59.2487 33.8611 57.6143 35.2589C55.851 36.7964 53.0017 36.7964 50.7761 36.9362C41.3038 37.5276 31.8742 36.9147 22.4341 36.9147Z" stroke="#E38534" stroke-width="2.33961" stroke-miterlimit="10"/>
<mask id="mask0_674_3747" style="mask-type:luminance" maskUnits="userSpaceOnUse" x="-10" y="61" width="123" height="130">
<path d="M24.1003 63.2387L110.998 91.9564L78.6975 189.696L-8.20024 160.978L24.1003 63.2387Z" fill="white" stroke="white" stroke-width="2.06437"/>
</mask>
<g mask="url(#mask0_674_3747)">
<path d="M9.90762 85.987C13.432 94.648 13.3526 114.008 17.183 129.248C18.2445 133.471 20.2364 139.882 24.2402 147.297C39.3116 161.349 54.532 140.888 51.6124 140.026C48.6828 139.159 46.8049 126.853 46.8049 126.853C46.8049 126.853 51.8255 130.335 51.5171 122.77C51.1983 115.203 36.5354 107.866 32.9733 103.02C29.4111 98.1735 30.5806 82.265 30.5806 82.265" stroke="#E38534" stroke-width="2.33961" stroke-miterlimit="10"/>
</g>
<path d="M142.162 108.566L143.761 103.397" stroke="#E38534" stroke-width="1.90472" stroke-miterlimit="10" stroke-linecap="round"/>
<path d="M139.13 107.631L140.729 102.462" stroke="#E38534" stroke-width="1.90472" stroke-miterlimit="10" stroke-linecap="round"/>
</g>
<defs>
<clipPath id="clip0_674_3747">
<rect width="160" height="170" fill="white"/>
</clipPath>
</defs>
</svg>
