<svg width="160" height="170" viewBox="0 0 160 170" fill="none" xmlns="http://www.w3.org/2000/svg">
<g clip-path="url(#clip0_674_3686)">
<path d="M52.8058 111.325C56.438 124.441 67.4218 133.548 79.8394 133.806C92.6515 134.073 104.223 124.866 107.978 111.325" stroke="#E38534" stroke-width="1.54268" stroke-miterlimit="10"/>
<path d="M117.223 54.9049C114.562 47.4635 110.236 41.565 104.814 36.7738C100.977 33.3701 96.6839 32.6763 92.1591 34.5752C90.3634 35.329 88.6657 36.4173 86.7557 37.4457C86.5598 36.9533 86.1843 36.3193 86.0864 35.6445C85.9068 34.4175 85.8415 33.1524 85.7762 31.9035C85.6619 30.1431 85.0416 29.3324 83.5397 29.4303C82.0705 29.5473 80.5823 29.7268 79.1294 30.1023C73.4811 31.5878 68.4368 34.714 63.9122 38.8715C60.5983 41.9405 57.5619 45.404 54.4439 48.7287C53.3175 49.9367 52.1393 50.6089 50.4089 50.0347C50.817 49.1858 51.1761 48.4322 51.5679 47.7002C52.2699 46.3726 52.2046 45.1673 51.372 44.4327C50.5721 43.7415 49.56 44.0001 48.7275 45.0667C45.7237 48.9274 43.4056 53.3024 41.7405 58.1317C39.9775 63.2768 39.2755 68.6039 40.1244 74.1461C41.0386 80.1809 43.6342 85.1489 47.2909 89.3662C48.1887 90.3757 48.5479 91.3849 48.5316 92.8515C48.4499 99.0249 48.5316 105.201 49.2498 111.317H52.7923C52.172 106.289 52.074 101.204 52.0414 96.0974C52.025 94.5519 52.0414 92.9903 52.0414 91.4449H52.1883C52.1883 86.4767 52.074 81.5085 52.2372 76.5405C52.4168 70.8975 56.8436 67.0396 61.5778 68.2068C64.1081 68.819 66.5921 69.7711 69.1224 70.2445C74.0525 71.1751 79.0315 71.4526 84.0131 71.0771C87.4087 70.7996 90.8042 70.2664 94.1834 69.7113C95.6065 69.4746 96.9941 68.8788 98.3817 68.4435C103.867 66.6613 108.636 70.7398 108.682 77.4302C108.748 85.5273 108.797 93.6432 108.636 101.738C108.571 104.964 108.389 108.15 107.964 111.317H111.558C111.722 109.873 111.852 108.428 111.934 106.964C112.26 101.895 112.195 96.7884 112.358 91.7033C112.375 90.9905 112.619 90.2177 112.93 89.5647C114.268 86.6945 115.868 83.9438 116.994 80.9535C120.243 72.3641 120.341 63.6141 117.223 54.9049Z" stroke="#E38534" stroke-width="1.54268" stroke-miterlimit="10"/>
<path d="M66.3564 129.751V152.91" stroke="#E38534" stroke-width="1.54268" stroke-miterlimit="10"/>
<path d="M97.9216 126.902V152.91" stroke="#E38534" stroke-width="1.54268" stroke-miterlimit="10"/>
<path d="M21.8783 170C31.7493 163.326 45.8293 156.042 63.5415 153.194C92.7597 148.492 116.003 158.314 125.45 162.461C131.264 165.013 135.949 167.617 139.236 169.587" stroke="#E38534" stroke-width="1.54268" stroke-miterlimit="10"/>
<path d="M123.208 115.019L116.191 149.36C116.191 149.36 120.803 156.342 129.452 153.463L142.338 121.505C142.338 121.505 146.571 117.038 146.952 115.813C147.33 114.589 149.463 107.697 149.463 107.697C149.463 107.697 146.525 107.069 145.668 109.656C144.811 112.244 139.424 110.13 139.424 110.13L130.233 107.118C130.233 107.118 126.702 105.689 127.912 103.045C129.123 100.397 125.779 98.9147 125.779 98.9147L122.555 109.33L123.113 115.487" stroke="#E38534" stroke-width="1.88277" stroke-miterlimit="10"/>
<path d="M141.635 110.319L143.215 105.209" stroke="#E38534" stroke-width="1.88277" stroke-miterlimit="10" stroke-linecap="round"/>
<path d="M138.638 109.394L140.219 104.285" stroke="#E38534" stroke-width="1.88277" stroke-miterlimit="10" stroke-linecap="round"/>
<path d="M136.119 108.613L137.699 103.503" stroke="#E38534" stroke-width="1.88277" stroke-miterlimit="10" stroke-linecap="round"/>
<path d="M133.249 107.72L134.83 102.611" stroke="#E38534" stroke-width="1.88277" stroke-miterlimit="10" stroke-linecap="round"/>
<path d="M130.348 106.828L131.928 101.718" stroke="#E38534" stroke-width="1.88277" stroke-miterlimit="10" stroke-linecap="round"/>
<path d="M141.708 121.398L123.636 115.807" stroke="#E38534" stroke-width="1.88277" stroke-miterlimit="10"/>
<path d="M127.191 117.685L123.207 135.911C122.895 137.337 123.727 138.765 125.123 139.198L127.153 139.826C128.728 140.313 130.412 139.535 131.062 138.022L138.319 121.127L127.191 117.685Z" stroke="#E38534" stroke-width="1.88277" stroke-miterlimit="10"/>
<path d="M48.1819 30.4499C41.9704 26.9836 34.0284 27.3482 28.0673 31.9979C20.1281 38.196 18.7133 49.6558 24.9085 57.5978C25.9424 58.9201 27.1205 60.0628 28.4074 61.0204" stroke="#E38534" stroke-width="2.31265" stroke-miterlimit="10"/>
<path d="M6.28699 40.3078L17.6734 41.7146" stroke="#E38534" stroke-width="2.31265" stroke-miterlimit="10"/>
<path d="M6 51.3275L17.3619 49.7385" stroke="#E38534" stroke-width="2.31265" stroke-miterlimit="10"/>
<path d="M9.82605 61.8492L20.165 56.873" stroke="#E38534" stroke-width="2.31265" stroke-miterlimit="10"/>
<path d="M15.884 70.5699L23.9947 62.4537" stroke="#E38534" stroke-width="2.31265" stroke-miterlimit="10"/>
<path d="M9.49133 28.6522L18.9515 35.1468" stroke="#E38534" stroke-width="2.31265" stroke-miterlimit="10"/>
<path d="M16.5854 20.2249L24.0404 28.9449" stroke="#E38534" stroke-width="2.31265" stroke-miterlimit="10"/>
<path d="M26.4058 14.8753L30.8516 25.4537" stroke="#E38534" stroke-width="2.31265" stroke-miterlimit="10"/>
<path d="M36.7362 12.36L37.4327 23.8117" stroke="#E38534" stroke-width="2.31265" stroke-miterlimit="10"/>
<path d="M46.5863 12.8885L44.2927 24.1308" stroke="#E38534" stroke-width="2.31265" stroke-miterlimit="10"/>
<path d="M60.1414 26.1244C53.3177 31.0463 34.8001 45.8174 32.5854 68.6256C32.3134 71.4252 32.2697 74.5216 32.6099 77.8871" stroke="#E38534" stroke-width="2.31265" stroke-miterlimit="10"/>
<path d="M50.3975 117.28C50.6777 121.573 51.4315 125.453 53.7822 129.112C56.1411 132.785 58.4319 136.886 58.2225 141.397C58.0701 144.683 56.6117 147.837 53.7169 149.567C47.6387 153.202 38.6438 148.669 38.6493 141.443C38.6519 136.956 40.4042 132.674 42.5372 128.805C43.5357 126.99 44.6186 125.211 45.8048 123.513C47.3013 121.377 48.4304 119.089 50.3975 117.28Z" stroke="#E38534" stroke-width="2.26912" stroke-miterlimit="10"/>
<path d="M150.304 42.6997C153.827 40.2728 154.964 35.6582 152.845 32.407C150.701 29.1257 146.065 28.4456 142.522 30.8943C139.01 33.3238 137.913 37.9165 140.068 41.187C142.223 44.4572 146.775 45.132 150.304 42.6997ZM88.3301 46.4353C88.0934 46.2774 87.6552 45.9946 87.6252 45.6763C87.5436 44.7892 89.8891 44.879 90.4168 44.8408C95.4013 44.498 100.367 43.1214 105.229 42.0359C111.652 40.5856 118.049 39.0076 124.511 37.737C127.833 37.084 131.174 36.5126 134.537 36.1072C136.109 35.9168 136.779 35.4081 137.369 33.9278C138.915 30.0481 141.916 27.7218 146.013 27.1749C150.149 26.6254 153.288 28.1952 155.236 31.5989C157.53 35.604 155.963 41.3229 152.026 44.2723C147.839 47.4093 142.06 47.3059 138.719 43.5349C138.153 42.8956 137.723 42.1201 137.32 41.3555C136.771 40.3081 136.12 39.9245 134.85 40.074C130.741 40.5585 126.69 41.44 122.674 42.4166C118.528 43.4206 114.409 44.5417 110.259 45.5346C107.99 46.0762 105.702 46.5441 103.406 46.9604C101.186 47.363 98.9953 47.9127 96.7262 48.0025C94 48.1113 90.708 47.9154 88.3301 46.4353Z" fill="#E38534"/>
<path d="M150.304 42.6997C153.827 40.2728 154.964 35.6582 152.845 32.407C150.701 29.1257 146.065 28.4456 142.522 30.8943C139.01 33.3238 137.913 37.9165 140.068 41.187C142.223 44.4572 146.775 45.132 150.304 42.6997ZM88.3301 46.4353C88.0934 46.2774 87.6552 45.9946 87.6252 45.6763C87.5436 44.7892 89.8891 44.879 90.4168 44.8408C95.4013 44.498 100.367 43.1214 105.229 42.0359C111.652 40.5856 118.049 39.0076 124.511 37.737C127.833 37.084 131.174 36.5126 134.537 36.1072C136.109 35.9168 136.779 35.4081 137.369 33.9278C138.915 30.0481 141.916 27.7218 146.013 27.1749C150.149 26.6254 153.288 28.1952 155.236 31.5989C157.53 35.604 155.963 41.3229 152.026 44.2723C147.839 47.4093 142.06 47.3059 138.719 43.5349C138.153 42.8956 137.723 42.1201 137.32 41.3555C136.771 40.3081 136.12 39.9245 134.85 40.074C130.741 40.5585 126.69 41.44 122.674 42.4166C118.528 43.4206 114.409 44.5417 110.259 45.5346C107.99 46.0762 105.702 46.5441 103.406 46.9604C101.186 47.363 98.9953 47.9127 96.7262 48.0025C94 48.1113 90.708 47.9154 88.3301 46.4353Z" fill="#E38534"/>
<path d="M120.433 8.05694C123.393 4.90086 128.185 4.46826 131.128 7.09108C134.097 9.73838 134.086 14.4861 131.101 17.6586C128.144 20.801 123.374 21.1956 120.419 18.5374C117.462 15.8792 117.47 11.2185 120.433 8.05694ZM107.324 69.5818C107.773 70.4278 108.339 70.3409 108.715 69.462C109.373 67.9302 109.705 66.2842 110.214 64.7008C112.165 58.6225 114.581 52.7075 116.926 46.7708C119.772 39.5661 122.623 32.3343 124.683 24.855C125.107 23.3096 125.72 22.7165 127.292 22.3519C131.411 21.3996 134.192 18.7523 135.348 14.7337C136.518 10.6743 135.417 7.29242 132.296 4.81924C128.623 1.91073 122.659 2.60181 119.114 6.09256C115.345 9.80368 114.586 15.6044 117.865 19.5304C118.42 20.1943 119.133 20.7439 119.84 21.2636C120.809 21.9737 121.094 22.6838 120.754 23.9327C119.655 27.9704 118.164 31.8936 116.589 35.7654C114.959 39.762 113.223 43.7155 111.607 47.7176C110.726 49.9078 109.912 52.1253 109.153 54.3618C108.462 56.3997 107.697 58.4211 107.199 60.5217C106.84 62.0343 106.677 63.5907 106.69 65.1468C106.701 66.521 106.663 68.3356 107.324 69.5818Z" fill="#E38534"/>
<path d="M120.433 8.05694C123.393 4.90086 128.185 4.46826 131.128 7.09108C134.097 9.73838 134.086 14.4861 131.101 17.6586C128.144 20.801 123.374 21.1956 120.419 18.5374C117.462 15.8792 117.47 11.2185 120.433 8.05694ZM107.324 69.5818C107.773 70.4278 108.339 70.3409 108.715 69.462C109.373 67.9302 109.705 66.2842 110.214 64.7008C112.165 58.6225 114.581 52.7075 116.926 46.7708C119.772 39.5661 122.623 32.3343 124.683 24.855C125.107 23.3096 125.72 22.7165 127.292 22.3519C131.411 21.3996 134.192 18.7523 135.348 14.7337C136.518 10.6743 135.417 7.29242 132.296 4.81924C128.623 1.91073 122.659 2.60181 119.114 6.09256C115.345 9.80368 114.586 15.6044 117.865 19.5304C118.42 20.1943 119.133 20.7439 119.84 21.2636C120.809 21.9737 121.094 22.6838 120.754 23.9327C119.655 27.9704 118.164 31.8936 116.589 35.7654C114.959 39.762 113.223 43.7155 111.607 47.7176C110.726 49.9078 109.912 52.1253 109.153 54.3618C108.462 56.3997 107.697 58.4211 107.199 60.5217C106.84 62.0343 106.677 63.5907 106.69 65.1468C106.701 66.521 106.663 68.3356 107.324 69.5818Z" fill="#E38534"/>
<path d="M143.896 32.8794C146.26 31.2551 149.231 31.7122 150.668 33.9242C152.069 36.0817 151.323 39.0691 148.989 40.6718C146.663 42.2687 143.675 41.8361 142.247 39.7005C140.802 37.5428 141.537 34.5011 143.896 32.8794Z" fill="#E38534"/>
<path d="M123.389 8.91735C125.759 7.30393 128.714 7.78008 130.151 10.0057C131.538 12.1578 130.774 15.1561 128.428 16.745C126.097 18.3285 123.104 17.8769 121.697 15.7329C120.269 13.5535 121.02 10.5308 123.389 8.91735Z" fill="#E38534"/>
</g>
<defs>
<clipPath id="clip0_674_3686">
<rect width="160" height="170" fill="white"/>
</clipPath>
</defs>
</svg>
