<svg width="160" height="170" viewBox="0 0 160 170" fill="none" xmlns="http://www.w3.org/2000/svg">
<g clip-path="url(#clip0_674_3653)">
<path d="M35.5742 88.3322L37.9461 87.7529L32.7624 73.6608L32.0462 73.8426L35.5742 88.3322Z" stroke="#E38534" stroke-width="0.820181" stroke-miterlimit="10"/>
<path d="M34.2662 88.6571L36.6381 88.0779L31.4712 74.0491L30.7552 74.2311L34.2662 88.6571Z" stroke="#E38534" stroke-width="0.820181" stroke-miterlimit="10"/>
<path d="M32.1593 88.7204L34.2649 88.082L28.9229 75.7142L28.2874 75.9132L32.1593 88.7204Z" stroke="#E38534" stroke-width="0.739113" stroke-miterlimit="10"/>
<path d="M29.1238 89.9583L31.4955 89.3789L26.3288 75.3503L25.6126 75.5321L29.1238 89.9583Z" stroke="#E38534" stroke-width="0.820181" stroke-miterlimit="10"/>
<path d="M26.527 90.5927L28.8988 90.0134L23.7321 75.9848L23.0159 76.1666L26.527 90.5927Z" stroke="#E38534" stroke-width="0.820181" stroke-miterlimit="10"/>
<path d="M23.9681 91.252L26.3397 90.6726L21.173 76.644L20.4568 76.8258L23.9681 91.252Z" stroke="#E38534" stroke-width="0.820181" stroke-miterlimit="10"/>
<path d="M21.3817 91.8847L23.7536 91.3054L18.5933 77.3018L17.8791 77.4818L21.3817 91.8847Z" stroke="#E38534" stroke-width="0.820181" stroke-miterlimit="10"/>
<path d="M19.0818 92.4082L21.4537 91.8289L16.2868 77.8002L15.5706 77.982L19.0818 92.4082Z" stroke="#E38534" stroke-width="0.820181" stroke-miterlimit="10"/>
<path d="M16.4534 93.0051L18.8251 92.4258L13.6584 78.3971L12.9422 78.579L16.4534 93.0051Z" stroke="#E38534" stroke-width="0.820181" stroke-miterlimit="10"/>
<path d="M33.0281 88.9614L35.4 88.3821L30.2175 74.2958L29.5013 74.4776L33.0281 88.9614Z" stroke="#E38534" stroke-width="0.820181" stroke-miterlimit="10"/>
<path d="M30.4846 89.5928L32.8563 89.0134L27.6752 74.9329L26.9573 75.1126L30.4846 89.5928Z" stroke="#E38534" stroke-width="0.820181" stroke-miterlimit="10"/>
<path d="M27.9272 90.2365L30.2989 89.6571L25.1133 75.5669L24.399 75.7471L27.9272 90.2365Z" stroke="#E38534" stroke-width="0.820181" stroke-miterlimit="10"/>
<path d="M25.3894 90.9222L27.7611 90.3428L22.5666 76.2162L21.8504 76.398L25.3894 90.9222Z" stroke="#E38534" stroke-width="0.820181" stroke-miterlimit="10"/>
<path d="M22.6836 91.5439L25.0553 90.9645L19.9019 76.9822L19.1861 77.1604L22.6836 91.5439Z" stroke="#E38534" stroke-width="0.820181" stroke-miterlimit="10"/>
<path d="M20.263 92.0891L22.6347 91.5097L17.468 77.4811L16.7517 77.6629L20.263 92.0891Z" stroke="#E38534" stroke-width="0.820181" stroke-miterlimit="10"/>
<path d="M17.7078 92.7144L20.0795 92.135L14.9128 78.1064L14.1966 78.2882L17.7078 92.7144Z" stroke="#E38534" stroke-width="0.820181" stroke-miterlimit="10"/>
<path d="M15.1661 93.3476L17.538 92.7683L12.3711 78.7396L11.6551 78.9215L15.1661 93.3476Z" stroke="#E38534" stroke-width="0.820181" stroke-miterlimit="10"/>
<path d="M10.467 79.4819C18.4709 77.5019 26.3813 75.5428 34.3758 73.5636C34.2118 72.9834 34.2623 73.1099 34.1043 72.575C33.5511 70.6897 32.923 68.8235 32.3982 66.9321C31.9212 65.2561 31.1249 63.6405 29.9258 62.3614C28.4949 60.8325 26.6164 59.9329 24.6954 59.467C22.7925 59.0069 21.1435 58.0183 20.0376 56.2816C19.3885 55.2626 18.9013 54.0653 18.6134 52.8961C16.5505 44.5947 14.5562 36.2787 12.5426 27.968C11.9051 25.3423 10.5051 24.4027 8.10115 24.9875C7.45274 25.1456 6.80028 25.3069 6.15103 25.4723C4.01197 26.0168 3.26004 27.5312 4.02368 29.7867C5.64845 34.5836 7.28293 39.3763 8.91542 44.1705C10.1294 47.7359 11.3682 51.2951 12.5494 54.8702C13.6044 58.0549 13.0645 60.7817 10.8294 62.9569C8.07729 65.6362 7.14302 68.8698 8.44007 72.9729C9.89982 77.5875 8.81368 73.7836 10.1797 78.4226C10.2679 78.7228 10.3303 79.0535 10.467 79.4819Z" stroke="#E38534" stroke-width="1.93291" stroke-miterlimit="10"/>
<path d="M52.9175 110.301C56.4046 122.894 66.9494 131.636 78.8707 131.884C91.1709 132.14 102.28 123.301 105.885 110.301" stroke="#E38534" stroke-width="1.48103" stroke-miterlimit="10"/>
<path d="M114.777 56.1358C112.222 48.9918 108.069 43.329 102.863 38.7292C99.1803 35.4615 95.0585 34.7955 90.7147 36.6185C88.9908 37.3422 87.3609 38.3869 85.5272 39.3743C85.3391 38.9016 84.9787 38.2929 84.8847 37.6451C84.7123 36.4671 84.6496 35.2525 84.5869 34.0536C84.4772 32.3635 83.8816 31.5852 82.4398 31.6792C81.0293 31.7915 79.6004 31.9639 78.2055 32.3243C72.7829 33.7505 67.9402 36.7517 63.5965 40.7431C60.415 43.6895 57.5 47.0145 54.5066 50.2064C53.4226 51.3661 52.2942 52.0114 50.633 51.4601C51.0248 50.6452 51.3696 49.9217 51.7457 49.219C52.4196 47.9445 52.3569 46.7873 51.5576 46.082C50.7897 45.4185 49.818 45.6667 49.0187 46.6907C46.135 50.3972 43.9096 54.5973 42.311 59.2336C40.6184 64.1731 39.9445 69.2873 40.7567 74.608C41.6371 80.4017 44.129 85.1711 47.6396 89.2199C48.5015 90.189 48.8463 91.1579 48.8307 92.5659C48.7523 98.4925 48.8307 104.422 49.5202 110.294H52.9211C52.3256 105.467 52.2315 100.585 52.2002 95.6821C52.1845 94.1983 52.2002 92.6991 52.2002 91.2155H52.3412C52.3412 86.4459 52.2315 81.6762 52.3883 76.9068C52.5607 71.4893 56.8104 67.7855 61.3553 68.9061C63.7845 69.4938 66.1693 70.4079 68.5984 70.8624C73.3315 71.7557 78.1115 72.0221 82.8943 71.6617C86.1541 71.3952 89.4139 70.8833 92.6581 70.3505C94.0241 70.1232 95.3563 69.5512 96.6884 69.1333C101.954 67.4223 106.533 71.3378 106.578 77.7609C106.64 85.5343 106.687 93.326 106.533 101.097C106.468 104.195 106.295 107.253 105.888 110.294H109.338C109.495 108.907 109.621 107.52 109.699 106.115C110.012 101.248 109.95 96.3454 110.106 91.4635C110.122 90.7792 110.357 90.0374 110.655 89.4105C111.94 86.6549 113.476 84.0141 114.557 81.1434C117.676 72.8972 117.77 64.4969 114.777 56.1358Z" stroke="#E38534" stroke-width="1.48103" stroke-miterlimit="10"/>
<path d="M65.9268 127.991V150.225" stroke="#E38534" stroke-width="1.48103" stroke-miterlimit="10"/>
<path d="M96.2305 125.256V150.225" stroke="#E38534" stroke-width="1.48103" stroke-miterlimit="10"/>
<path d="M23.2251 166.632C32.7015 160.224 46.2188 153.232 63.2232 150.497C91.274 145.983 113.589 155.413 122.658 159.394C128.239 161.844 132.737 164.343 135.893 166.235" stroke="#E38534" stroke-width="1.48103" stroke-miterlimit="10"/>
<path d="M33.4617 3C48.7684 3 75.7795 3.24815 91.086 3.24815C94.2988 4.00564 97.4072 4.96686 100.03 6.98075C104.658 10.5305 107.119 15.0859 107.184 20.6939C107.228 24.3612 104.17 27.2762 100.257 27.305C93.1757 27.3546 86.0944 27.352 79.0131 27.3076C75.0872 27.2841 72.0286 24.5467 72.0834 20.7305C72.1383 16.802 71.0465 16.2248 67.0266 16.2822C60.2064 16.3815 40.2114 16.1125 33.3887 16.1072" stroke="#E38534" stroke-width="1.93291" stroke-miterlimit="10" stroke-linecap="round"/>
<path d="M116.056 134.124C116.93 133.563 117.83 133.468 118.76 133.929C119.877 134.479 120.562 135.882 119.992 137.2C119.638 138.014 119.138 138.733 118.546 139.378C117.859 140.128 117.131 140.84 116.408 141.557C116.139 141.824 115.983 141.808 115.7 141.553C114.627 140.586 113.613 139.564 112.782 138.375C112.417 137.851 112.088 137.305 111.958 136.672C111.739 135.593 112.337 134.424 113.354 133.927C114.286 133.471 115.184 133.564 116.056 134.124Z" fill="#E38534"/>
<path d="M123.473 131.853C123.566 131.366 123.649 130.922 123.737 130.48C123.776 130.291 123.899 130.188 124.097 130.188C124.287 130.188 124.398 130.295 124.444 130.47C124.459 130.528 124.449 130.595 124.438 130.656C124.305 131.406 124.169 132.156 124.036 132.905C123.996 133.13 123.806 133.27 123.594 133.228C122.88 133.087 122.168 132.948 121.455 132.809C121.407 132.8 121.358 132.788 121.311 132.775C121.087 132.723 120.957 132.546 120.997 132.348C121.04 132.142 121.231 132.019 121.468 132.062C121.871 132.133 122.272 132.214 122.674 132.289C122.729 132.299 122.784 132.304 122.867 132.315C122.833 132.252 122.818 132.208 122.79 132.173C121.387 130.292 119.533 129.157 117.207 128.823C113.122 128.236 109.325 130.762 108.113 134.564C106.75 138.846 109.155 143.574 113.419 144.951C117.943 146.412 122.639 143.966 124.04 139.416C124.091 139.253 124.152 139.106 124.333 139.059C124.614 138.986 124.848 139.232 124.769 139.526C124.541 140.363 124.195 141.149 123.722 141.876C122.246 144.146 120.174 145.575 117.499 145.984C114.193 146.489 111.392 145.436 109.175 142.924C107.923 141.507 107.225 139.823 107.043 137.944C106.668 134.09 108.755 130.508 112.201 128.869C113.656 128.178 115.195 127.891 116.794 128.037C119.492 128.283 121.669 129.501 123.32 131.652C123.361 131.707 123.404 131.762 123.473 131.853Z" fill="#E38534"/>
<path d="M152.304 46.9897C155.687 44.6598 156.778 40.2297 154.744 37.1083C152.685 33.9582 148.234 33.3053 144.834 35.6561C141.461 37.9885 140.409 42.3977 142.477 45.5375C144.546 48.677 148.916 49.3248 152.304 46.9897ZM92.8069 50.5761C92.5796 50.4244 92.1592 50.1529 92.1304 49.8473C92.0521 48.9957 94.3036 49.0819 94.8104 49.0453C99.5957 48.7162 104.363 47.3946 109.03 46.3524C115.197 44.9601 121.338 43.4452 127.542 42.2253C130.731 41.5984 133.939 41.0499 137.167 40.6606C138.677 40.4779 139.32 39.9895 139.886 38.5684C141.37 34.8437 144.251 32.6104 148.185 32.0854C152.155 31.5578 155.169 33.0649 157.04 36.3326C159.241 40.1775 157.737 45.6679 153.957 48.4995C149.937 51.5111 144.39 51.4118 141.182 47.7915C140.639 47.1777 140.226 46.4333 139.839 45.6993C139.312 44.6937 138.687 44.3254 137.468 44.469C133.523 44.9341 129.634 45.7804 125.779 46.718C121.798 47.6818 117.843 48.7581 113.86 49.7114C111.682 50.2313 109.485 50.6805 107.28 51.0801C105.149 51.4667 103.046 51.9944 100.868 52.0806C98.2504 52.185 95.0899 51.997 92.8069 50.5761Z" fill="#E38534"/>
<path d="M152.304 46.9897C155.687 44.6598 156.778 40.2297 154.744 37.1083C152.685 33.9582 148.234 33.3053 144.834 35.6561C141.461 37.9885 140.409 42.3977 142.477 45.5375C144.546 48.677 148.916 49.3248 152.304 46.9897ZM92.8069 50.5761C92.5796 50.4244 92.1592 50.1529 92.1304 49.8473C92.0521 48.9957 94.3036 49.0819 94.8104 49.0453C99.5957 48.7162 104.363 47.3946 109.03 46.3524C115.197 44.9601 121.338 43.4452 127.542 42.2253C130.731 41.5984 133.939 41.0499 137.167 40.6606C138.677 40.4779 139.32 39.9895 139.886 38.5684C141.37 34.8437 144.251 32.6104 148.185 32.0854C152.155 31.5578 155.169 33.0649 157.04 36.3326C159.241 40.1775 157.737 45.6679 153.957 48.4995C149.937 51.5111 144.39 51.4118 141.182 47.7915C140.639 47.1777 140.226 46.4333 139.839 45.6993C139.312 44.6937 138.687 44.3254 137.468 44.469C133.523 44.9341 129.634 45.7804 125.779 46.718C121.798 47.6818 117.843 48.7581 113.86 49.7114C111.682 50.2313 109.485 50.6805 107.28 51.0801C105.149 51.4667 103.046 51.9944 100.868 52.0806C98.2504 52.185 95.0899 51.997 92.8069 50.5761Z" fill="#E38534"/>
<path d="M123.627 13.7316C126.469 10.7016 131.068 10.2863 133.895 12.8043C136.745 15.3458 136.734 19.9038 133.869 22.9494C131.029 25.9663 126.45 26.3452 123.614 23.7932C120.775 21.2411 120.782 16.7668 123.627 13.7316ZM111.042 72.7977C111.473 73.6099 112.016 73.5265 112.377 72.6827C113.009 71.2121 113.327 69.6319 113.816 68.1117C115.689 62.2763 118.008 56.5977 120.26 50.8983C122.992 43.9816 125.729 37.0388 127.707 29.8583C128.114 28.3747 128.702 27.8053 130.212 27.4552C134.166 26.5411 136.836 23.9994 137.946 20.1415C139.069 16.2444 138.011 12.9976 135.015 10.6232C131.489 7.83097 125.763 8.49443 122.36 11.8457C118.742 15.4085 118.013 20.9774 121.161 24.7466C121.694 25.3839 122.378 25.9115 123.057 26.4104C123.987 27.0922 124.262 27.7739 123.935 28.9728C122.88 32.8492 121.448 36.6156 119.936 40.3327C118.371 44.1696 116.705 47.965 115.153 51.8073C114.307 53.9099 113.526 56.0388 112.797 58.1859C112.134 60.1424 111.4 62.083 110.922 64.0996C110.577 65.5518 110.42 67.046 110.433 68.54C110.444 69.8592 110.407 71.6013 111.042 72.7977Z" fill="#E38534"/>
<path d="M123.627 13.7316C126.469 10.7016 131.068 10.2863 133.895 12.8043C136.745 15.3458 136.734 19.9038 133.869 22.9494C131.029 25.9663 126.45 26.3452 123.614 23.7932C120.775 21.2411 120.782 16.7668 123.627 13.7316ZM111.042 72.7977C111.473 73.6099 112.016 73.5265 112.377 72.6827C113.009 71.2121 113.327 69.6319 113.816 68.1117C115.689 62.2763 118.008 56.5977 120.26 50.8983C122.992 43.9816 125.729 37.0388 127.707 29.8583C128.114 28.3747 128.702 27.8053 130.212 27.4552C134.166 26.5411 136.836 23.9994 137.946 20.1415C139.069 16.2444 138.011 12.9976 135.015 10.6232C131.489 7.83097 125.763 8.49443 122.36 11.8457C118.742 15.4085 118.013 20.9774 121.161 24.7466C121.694 25.3839 122.378 25.9115 123.057 26.4104C123.987 27.0922 124.262 27.7739 123.935 28.9728C122.88 32.8492 121.448 36.6156 119.936 40.3327C118.371 44.1696 116.705 47.965 115.153 51.8073C114.307 53.9099 113.526 56.0388 112.797 58.1859C112.134 60.1424 111.4 62.083 110.922 64.0996C110.577 65.5518 110.42 67.046 110.433 68.54C110.444 69.8592 110.407 71.6013 111.042 72.7977Z" fill="#E38534"/>
<path d="M146.06 37.8373C148.099 36.4367 150.661 36.8308 151.899 38.7383C153.108 40.5987 152.465 43.1748 150.452 44.5567C148.446 45.9338 145.87 45.5608 144.638 43.7192C143.392 41.8586 144.026 39.2357 146.06 37.8373Z" fill="#E38534"/>
<path d="M126.465 14.5578C128.74 13.0089 131.577 13.466 132.956 15.6027C134.288 17.6688 133.555 20.5472 131.303 22.0728C129.065 23.593 126.191 23.1592 124.841 21.1011C123.47 19.0088 124.19 16.1068 126.465 14.5578Z" fill="#E38534"/>
</g>
<defs>
<clipPath id="clip0_674_3653">
<rect width="160" height="170" fill="white"/>
</clipPath>
</defs>
</svg>
