<svg xmlns="http://www.w3.org/2000/svg" width="50" height="64" viewBox="0 0 50 64" fill="none">
  <g clip-path="url(#clip0_4_4251)">
    <path d="M47.6946 33.6279C47.7189 36.0012 47.7987 38.3746 47.7571 40.7442C47.646 46.6264 45.4194 51.2525 41.0322 54.221C37.1383 56.8609 33.0915 59.216 29.0412 61.5345C26.0192 63.2652 22.886 63.1411 19.864 61.3848C16.3486 59.3438 12.8438 57.2771 9.38402 55.1192C4.5279 52.096 1.99216 47.3312 1.80805 41.0218C1.66216 35.8734 1.683 30.7214 1.6309 25.5696C1.6309 25.4418 1.58921 25.2848 1.64131 25.2008C1.82194 24.8867 1.9991 24.4157 2.24573 24.3574C2.46803 24.3026 2.91962 24.6275 3.0273 24.9086C3.62476 26.4787 4.14928 28.0817 4.68421 29.6845C4.75368 29.9036 4.76062 30.1811 4.71895 30.4112C3.62476 36.5927 6.66417 41.8725 12.1282 43.5557C13.3752 43.939 14.6813 44.1947 15.9701 44.2714C17.0156 44.3334 18.0055 44.4722 18.9712 44.9432C20.3537 45.6187 21.7189 45.5457 23.0597 44.7752C24.4422 43.9793 25.8316 44.0012 27.2107 44.7934C28.5063 45.542 29.8471 45.6588 31.1288 44.903C32.685 43.9866 34.4253 44.2494 36.0232 43.709C37.3675 43.2526 38.7466 42.7998 39.9762 42.0587C43.7104 39.8059 45.4957 35.3878 44.7733 30.5937C44.7176 30.2103 44.7351 29.7794 44.8289 29.407C45.1762 28.0342 45.5896 26.6832 45.937 25.3067C46.0933 24.6823 46.3503 24.2843 46.9512 24.3866C47.5383 24.4888 47.6216 24.9818 47.6251 25.5696C47.639 28.257 47.6737 30.9405 47.7015 33.6279C47.7015 33.6279 47.6981 33.6279 47.6946 33.6279Z" stroke="#476AB2" stroke-width="2.38914" stroke-miterlimit="10"/>
    <path d="M24.6913 29.7754C25.8822 28.6085 27.0799 28.7747 28.3177 29.5018C29.5721 30.2324 30.8099 31.0115 32.1045 31.6313C33.8005 32.445 35.5869 32.58 37.303 31.7732C38.1928 31.3508 38.9488 30.5786 39.7818 29.997C40.1364 29.7477 40.6014 29.3529 40.8991 29.4568C41.1668 29.5503 41.3976 30.2255 41.431 30.6618C41.7288 34.4739 40.0328 37.5001 36.8246 38.7881C33.6299 40.0692 30.4754 39.7957 27.488 37.9952C26.4744 37.3824 25.6213 36.4233 24.6178 35.5577C24.7081 35.4781 24.6212 35.53 24.5643 35.6096C22.1958 38.9439 18.9743 39.8719 15.3917 39.6711C13.5584 39.5672 11.8356 38.9544 10.3804 37.6213C8.34315 35.7447 7.71091 33.2517 8.02202 30.3951C8.04878 30.1597 8.31974 29.7754 8.46358 29.7823C8.79477 29.7997 9.22296 29.9104 9.43036 30.1701C10.454 31.4373 11.7252 32.0709 13.1871 32.3757C15.0605 32.7704 16.7631 32.1853 18.4057 31.2746C19.2486 30.8072 20.0481 30.2428 20.8611 29.7061C22.1289 28.8648 23.3968 28.6189 24.6913 29.7754Z" stroke="#476AB2" stroke-width="2.38914" stroke-miterlimit="10"/>
    <path d="M32.1934 18.2885L7.49245 15.7217C7.49245 15.7217 3.73399 10.9057 7.49245 5.38859L31.8078 3.25625C31.8078 3.25625 35.7156 1.2298 36.6258 1.2298H42.642C42.642 1.2298 42.451 3.45707 40.5231 3.49723C38.5918 3.53739 38.8939 7.83129 38.8939 7.83129L39.0086 15.0316C39.0086 15.0316 39.2344 17.854 41.2804 17.5765C43.3229 17.299 43.625 20.0046 43.625 20.0046H35.9066L31.8564 18.252" stroke="#476AB2" stroke-width="2" stroke-miterlimit="10"/>
    <path d="M39.2283 6.21632H43.0146" stroke="#476AB2" stroke-width="1.59276" stroke-miterlimit="10" stroke-linecap="round"/>
    <path d="M39.2283 8.55765H43.0146" stroke="#476AB2" stroke-width="1.59276" stroke-miterlimit="10" stroke-linecap="round"/>
    <path d="M39.2283 10.524H43.0146" stroke="#476AB2" stroke-width="1.59276" stroke-miterlimit="10" stroke-linecap="round"/>
    <path d="M39.2283 12.75H43.0146" stroke="#476AB2" stroke-width="1.59276" stroke-miterlimit="10" stroke-linecap="round"/>
    <path d="M39.2283 15.0191H43.0146" stroke="#476AB2" stroke-width="1.59276" stroke-miterlimit="10" stroke-linecap="round"/>
    <path d="M31.7449 3.71983V17.8027" stroke="#476AB2" stroke-width="2" stroke-miterlimit="10"/>
    <path d="M31.2191 14.8603L18.054 13.6847C17.0224 13.5934 16.2304 12.6842 16.2304 11.5998V10.0151C16.2304 8.78829 17.1092 7.76228 18.2694 7.63449L31.2191 6.18858V14.8603Z" stroke="#476AB2" stroke-width="2" stroke-miterlimit="10"/>
  </g>
  <defs>
    <clipPath id="clip0_4_4251">
      <rect width="49.2308" height="64" fill="white" transform="translate(0.384644)"/>
    </clipPath>
  </defs>
</svg>