<svg xmlns="http://www.w3.org/2000/svg" width="64" height="64" viewBox="0 0 64 64" fill="none">
  <path d="M23.4555 37.7066V37.7225C23.4427 37.7146 23.4234 37.7066 23.4041 37.7066" fill="#F2643E"/>
  <path d="M34.6207 13.3917H8.22153C6.44436 13.3917 5 11.6759 5 9.5645V5.04631C5 2.93501 6.44436 1.22293 8.22153 1.22293H34.6207C36.4011 1.22293 37.8422 2.93501 37.8422 5.04631V9.5645C37.8422 11.6759 36.4011 13.3917 34.6207 13.3917Z" stroke="#476AB2" stroke-width="2" stroke-miterlimit="10"/>
  <path d="M27.925 18.8473H15.042C14.1341 18.8473 13.3941 17.972 13.3941 16.8896V13.5805H29.576V16.8896C29.576 17.972 28.8361 18.8473 27.925 18.8473Z" stroke="#476AB2" stroke-width="2.0952" stroke-miterlimit="10"/>
  <path d="M22.8983 61.9999H20.4716C19.1597 61.9999 18.0934 60.7369 18.0934 59.1783V19.5971H25.2764V59.1783C25.2764 60.7369 24.2101 61.9999 22.8983 61.9999Z" stroke="#476AB2" stroke-width="2" stroke-miterlimit="10"/>
  <path d="M9.82336 2.29156L10.8444 7.51992L9.83952 13.324L33.7894 12.9824L31.7698 7.58133L33.5632 2.09578L9.82336 2.29156Z" stroke="#476AB2" stroke-width="2" stroke-miterlimit="10"/>
  <path d="M10.8625 5.67191L32.5085 5.51453" stroke="#476AB2" stroke-width="2" stroke-miterlimit="10"/>
  <path d="M10.8099 9.88795H32.4041" stroke="#476AB2" stroke-width="2" stroke-miterlimit="10"/>
  <path d="M48.4277 44.0479C49.8979 43.5949 51.7914 43.2303 53.9887 43.3722C56.0373 43.5066 56.6157 43.9711 56.8063 44.1323C58.5964 45.6908 59.0455 49.8981 57.6496 51.7138C56.4217 53.3107 53.6623 52.4009 52.1274 52.2589C48.473 51.9172 44.812 51.9211 41.1639 52.3587C44.198 51.7138 47.3129 51.5948 50.3729 52.0132C52.8868 52.3549 55.4104 53.0804 57.5591 54.6774C58.2022 55.1571 58.8226 55.733 59.1877 56.5238C59.9244 58.1283 59.3557 59.8251 58.1538 60.8116C56.7223 61.9901 54.6413 61.637 52.9869 61.6831C49.1644 61.7828 45.3322 61.8481 41.5097 61.8135C39.6 61.7943 37.6806 61.7905 35.7839 61.491C34.1199 61.2301 32.2974 60.8193 31.1891 59.1572C30.8531 58.6542 30.6237 58.063 30.5138 57.4336C30.5009 57.3529 30.488 57.2723 30.475 57.1917C30.2392 55.4259 31.1052 53.6869 32.165 52.8078C34.0358 51.2647 36.721 52.2282 36.7404 52.0516C36.7662 51.8328 32.3006 52.1591 31.3152 49.5487C30.5267 47.4682 31.1988 44.7542 32.8048 43.522C33.8064 42.7504 35.0505 42.5507 36.2427 42.6007C37.4351 42.6505 38.6112 42.927 39.8036 43.0306C41.7196 43.1956 43.7489 42.8617 45.3095 41.5143C46.9123 40.1285 49.061 35.4453 51.4683 35.7408C51.9885 35.8061 52.3472 36.0786 52.596 36.2591C55.0679 38.1132 54.5282 43.1496 54.483 43.5411" stroke="#476AB2" stroke-width="2" stroke-miterlimit="10"/>
</svg>