<svg xmlns="http://www.w3.org/2000/svg" width="64" height="64" viewBox="0 0 64 64" fill="none">
  <g clip-path="url(#clip0_4_4053)">
    <path d="M51.7739 37.1326C50.3362 33.5915 48.0041 30.7812 45.0805 28.4986C43.01 26.8765 40.6951 26.5482 38.2565 27.455C37.2866 27.8107 36.3717 28.3305 35.3432 28.8191C35.2367 28.5846 35.0337 28.2836 34.9821 27.9632C34.8858 27.3769 34.8479 26.775 34.8136 26.1808C34.7517 25.3405 34.418 24.9536 33.6063 25.0044C32.8153 25.0591 32.0138 25.1451 31.2296 25.3248C28.1822 26.0323 25.4616 27.5214 23.0229 29.4993C21.2378 30.961 19.5972 32.6104 17.9152 34.1934C17.3099 34.7719 16.6736 35.0884 15.7415 34.8148C15.9616 34.4122 16.1542 34.0527 16.3674 33.7048C16.7458 33.0717 16.7114 32.497 16.2608 32.1492C15.8309 31.8169 15.284 31.9421 14.8334 32.4502C13.2134 34.2872 11.9649 36.3705 11.0671 38.6726C10.1144 41.1232 9.73606 43.656 10.1935 46.2981C10.6888 49.1709 12.0887 51.5395 14.0595 53.5485C14.5445 54.0254 14.7371 54.5061 14.7302 55.2057C14.6855 58.1449 14.7302 61.0881 15.1155 64H17.0278C16.6942 61.6041 16.6392 59.1808 16.622 56.7497C16.6151 56.0148 16.622 55.2722 16.622 54.5374H16.7011C16.7011 52.1688 16.6392 49.8041 16.7286 47.4355C16.8249 44.7504 19.2119 42.9134 21.764 43.4683C23.1295 43.7616 24.4675 44.2149 25.833 44.4377C28.4917 44.8833 31.178 45.0162 33.8642 44.8364C35.6941 44.7035 37.5274 44.4494 39.3468 44.1836C40.1139 44.0742 40.8637 43.7889 41.61 43.5818C44.5715 42.7336 47.1408 44.6761 47.1683 47.8616C47.2027 51.7154 47.2302 55.5809 47.1408 59.4348C47.1064 60.9748 47.0101 62.4913 46.7796 64H48.716C48.8056 63.3121 48.8743 62.6242 48.919 61.9246C49.0944 59.5129 49.06 57.0819 49.1494 54.6585C49.1564 54.3185 49.2905 53.9511 49.4556 53.6384C50.1779 52.2743 51.0412 50.9611 51.65 49.5383C53.4007 45.45 53.4557 41.2835 51.7739 37.1326Z" stroke="#486AB3" stroke-width="2" stroke-miterlimit="10"/>
    <path d="M5.05025 1C16.2544 1 36.0193 1.19727 47.2196 1.19727C49.5695 1.80845 51.8459 2.58209 53.7628 4.20671C57.1484 7.06528 58.9533 10.7362 58.9997 15.2542C59.0306 18.2056 56.7928 20.5575 53.929 20.5767C48.7463 20.6194 43.5674 20.6155 38.3845 20.5806C35.513 20.5613 33.2753 18.3564 33.3139 15.2812C33.3564 12.1171 32.5525 11.6529 29.6153 11.6993C24.6218 11.7767 9.99339 11.564 5 11.5601" stroke="#486AB3" stroke-width="2" stroke-miterlimit="10" stroke-linecap="round"/>
  </g>
  <defs>
    <clipPath id="clip0_4_4053">
      <rect width="64" height="64" fill="white"/>
    </clipPath>
  </defs>
</svg>