<svg xmlns="http://www.w3.org/2000/svg" width="64" height="64" viewBox="0 0 64 64" fill="none">
  <g clip-path="url(#clip0_4_4272)">
    <path d="M4.12771 2.41341C15.9313 2.41341 36.7609 2.61435 48.5646 2.61435C51.041 3.23691 53.44 4.02495 55.4643 5.67985C59.0323 8.59168 60.9303 12.331 60.9792 16.9332C61.0117 19.9435 58.6576 22.3351 55.6354 22.3588C50.1775 22.3982 44.7155 22.3943 39.2537 22.3588C36.2273 22.3391 33.8691 20.0932 33.9098 16.9647C33.9546 13.7377 33.1115 13.2648 30.0118 13.3121C24.7495 13.3948 9.33305 13.1742 4.07068 13.1702" stroke="#486AB3" stroke-width="2" stroke-miterlimit="10" stroke-linecap="round"/>
    <path d="M2.03955 56.0918C1.75851 58.6293 3.45289 60.9343 5.8234 61.2377C8.21836 61.5451 10.3974 59.7168 10.6744 57.1635C10.9514 54.6379 9.24883 52.3565 6.85796 52.061C4.46301 51.7615 2.32467 53.5542 2.03955 56.0918ZM25.1786 26.6623C25.3495 26.615 25.655 26.5283 25.8179 26.6386C26.262 26.9459 25.2803 27.9704 25.0848 28.2226C23.2438 30.6064 21.8956 33.3843 20.4497 36.0006C18.5475 39.4641 16.7147 42.963 14.7148 46.3753C13.6844 48.1286 12.6091 49.8583 11.4483 51.5369C10.9066 52.3171 10.874 52.8175 11.3302 53.6606C12.5195 55.8633 12.4014 58.1249 11.0084 60.1857C9.60727 62.2661 7.61147 63.0738 5.24096 62.6326C2.45093 62.1125 0.410336 59.1849 0.618061 56.2612C0.833931 53.1524 3.20037 50.5833 6.30402 50.54C6.82945 50.5321 7.36301 50.6385 7.88029 50.7527C8.59307 50.9104 9.02889 50.7686 9.46877 50.1342C10.8943 48.0931 12.1081 45.9221 13.2689 43.7313C14.4623 41.4657 15.5946 39.1725 16.7961 36.9147C17.456 35.6775 18.1526 34.4639 18.8816 33.2661C19.5862 32.1037 20.2094 30.902 21.077 29.846C22.1237 28.5694 23.533 27.1587 25.1786 26.6623Z" fill="#486AB3"/>
    <path d="M30.2031 56.0528C30.4882 58.6139 28.7653 60.9465 26.3582 61.2538C23.9306 61.5691 21.719 59.7172 21.4379 57.1403C21.1569 54.5831 22.892 52.278 25.3155 51.9747C27.7471 51.6712 29.918 53.4838 30.2031 56.0528ZM6.75056 26.2371C6.17627 26.1111 5.9889 26.3987 6.24958 26.9108C6.70168 27.8014 7.333 28.5933 7.87065 29.4365C9.92345 32.6794 11.7156 36.068 13.5403 39.433C15.7642 43.515 17.9922 47.6128 20.6559 51.4466C21.2098 52.2387 21.2384 52.743 20.7781 53.598C19.5684 55.8242 19.6906 58.1096 21.0999 60.194C22.5213 62.298 24.5457 63.1137 26.9529 62.6645C29.7836 62.1364 31.8567 59.1773 31.649 56.2182C31.4331 53.0779 29.0301 50.4813 25.8817 50.438C25.3481 50.4301 24.8064 50.5365 24.2769 50.6547C23.5559 50.8163 23.1119 50.6666 22.6639 50.0321C21.2221 47.9635 19.9879 45.7689 18.8149 43.5543C17.6052 41.2651 16.4567 38.9483 15.2347 36.663C14.5708 35.4139 13.858 34.1845 13.1208 32.9749C12.4487 31.8717 11.8093 30.7408 11.0313 29.7006C10.4692 28.948 9.80534 28.2703 9.07626 27.6753C8.42865 27.1434 7.59775 26.4223 6.75056 26.2371Z" fill="#486AB3"/>
    <path d="M9.19652 57.0043C9.00509 58.7025 7.59581 59.8649 5.98695 59.6561C4.41883 59.4473 3.32319 57.9539 3.51462 56.2753C3.70198 54.6087 5.1031 53.4266 6.6753 53.6078C8.25971 53.7931 9.38387 55.31 9.19652 57.0043Z" fill="#486AB3"/>
    <path d="M28.6117 57.062C28.4121 58.7563 27.0029 59.9068 25.3899 59.6901C23.8258 59.4813 22.7343 57.9721 22.9338 56.2936C23.1334 54.627 24.5427 53.4488 26.1108 53.6497C27.6993 53.8508 28.8113 55.3637 28.6117 57.062Z" fill="#486AB3"/>
    <path d="M39.0797 29.6555V62.3632" stroke="#486AB3" stroke-width="2" stroke-miterlimit="10" stroke-linecap="round"/>
    <path d="M50.0919 29.8178V54.1132" stroke="#486AB3" stroke-width="2" stroke-miterlimit="10" stroke-linecap="round"/>
    <path d="M59.4977 29.6499V42.6133" stroke="#486AB3" stroke-width="2" stroke-miterlimit="10" stroke-linecap="round"/>
  </g>
  <defs>
    <clipPath id="clip0_4_4272">
      <rect width="62.7924" height="64" fill="white" transform="translate(0.60376)"/>
    </clipPath>
  </defs>
</svg>