<?xml version="1.0" standalone="no"?>
<!DOCTYPE svg PUBLIC "-//W3C//DTD SVG 20010904//EN"
 "http://www.w3.org/TR/2001/REC-SVG-20010904/DTD/svg10.dtd">
<svg version="1.0" xmlns="http://www.w3.org/2000/svg"
 width="3937.000000pt" height="4000.000000pt" viewBox="0 0 3937.000000 4000.000000"
 preserveAspectRatio="xMidYMid meet">

<g transform="translate(0.000000,4000.000000) scale(0.100000,-0.100000)"
fill="#000000" stroke="none">
<path d="M26080 39990 c-851 -56 -1802 -314 -3020 -820 -466 -194 -857 -369
-1784 -802 -1316 -613 -1740 -793 -2387 -1013 -515 -174 -1039 -324 -1939
-555 -1452 -372 -1816 -472 -2365 -650 -1003 -327 -2072 -810 -3043 -1376
-1602 -934 -2972 -2108 -4013 -3439 -319 -409 -675 -944 -927 -1395 -1004
-1801 -1390 -3769 -1136 -5785 228 -1807 956 -3681 2250 -5793 l145 -237 -7
-60 c-51 -491 -589 -1995 -792 -2215 l-48 -53 -127 -13 c-378 -39 -934 -42
-1612 -9 -165 8 -460 22 -655 31 -438 21 -1260 24 -1500 6 -728 -56 -1203
-168 -1643 -388 -251 -126 -449 -267 -642 -459 -301 -299 -509 -643 -665
-1102 -288 -845 -201 -1706 247 -2432 397 -644 1060 -1133 1795 -1326 291 -76
511 -100 822 -92 230 6 352 21 551 69 405 96 784 282 1125 553 156 123 261
235 414 439 79 106 168 214 198 241 85 78 657 398 1178 659 305 153 473 225
526 229 l38 2 27 -254 c69 -629 91 -949 91 -1321 0 -429 -19 -588 -99 -815
-181 -519 -183 -527 -204 -796 -26 -342 12 -708 107 -1039 271 -935 1025
-1677 2004 -1973 503 -153 1056 -166 1553 -37 371 95 742 283 1047 528 128
103 355 332 464 467 413 516 607 1050 608 1675 0 537 -140 1066 -443 1673
-251 500 -506 931 -1199 2022 -427 673 -594 945 -802 1309 -168 294 -173 304
-155 324 68 80 813 909 821 914 27 18 137 -34 252 -120 152 -113 299 -247 595
-542 490 -489 953 -1002 1344 -1490 869 -1084 1425 -1996 1675 -2750 298 -896
362 -1887 190 -2899 -176 -1029 -598 -2117 -1291 -3328 -406 -709 -890 -1444
-1683 -2557 -308 -433 -303 -422 -293 -573 19 -316 351 -491 657 -347 59 28
92 53 155 118 182 187 525 644 998 1332 941 1367 1582 2590 1983 3778 344
1018 499 1953 481 2891 -16 788 -144 1495 -404 2223 -61 171 -65 187 -49 196
679 410 1271 946 1744 1578 1011 1354 1525 3227 1489 5423 -12 703 -31 878
-186 1780 -125 724 -161 966 -197 1335 -25 246 -25 745 -1 920 62 438 183 719
420 966 364 381 864 511 1497 388 537 -103 1149 -397 1708 -818 424 -320 737
-655 1026 -1098 546 -837 855 -1853 961 -3153 29 -360 36 -541 42 -1045 7
-627 0 -911 -67 -2540 -33 -814 -42 -1748 -20 -2230 47 -1058 184 -1881 440
-2634 256 -752 600 -1360 1106 -1951 265 -310 799 -824 1186 -1142 915 -750
2077 -1480 3290 -2067 l246 -119 -20 -71 c-35 -127 -154 -478 -213 -626 -300
-757 -715 -1446 -1243 -2063 -130 -152 -221 -239 -487 -462 -168 -142 -352
-321 -420 -410 -30 -38 -69 -101 -87 -140 -32 -68 -33 -73 -33 -200 0 -158 19
-215 96 -300 112 -122 289 -161 493 -109 100 26 145 56 306 206 170 159 689
683 895 903 672 721 1253 1778 1492 2718 22 85 31 106 43 101 86 -34 683 -227
850 -274 1712 -486 3318 -572 4569 -245 953 250 1686 733 2198 1450 312 438
546 1013 667 1640 142 738 81 1848 -169 3100 -266 1329 -686 2564 -1146 3365
-165 289 -235 375 -421 518 -144 111 -186 155 -225 239 -47 99 -71 194 -85
351 -21 231 5 505 106 1107 110 654 110 666 46 1299 -35 344 -38 472 -14 519
9 17 75 91 145 164 113 117 133 143 173 225 58 120 86 227 93 358 15 277 -91
501 -403 855 -384 436 -468 569 -496 780 -27 199 46 324 404 694 476 490 582
646 652 961 98 440 69 792 -91 1101 -67 130 -145 236 -265 358 -159 162 -291
266 -703 551 -462 320 -601 433 -905 739 -436 438 -807 920 -1192 1551 -400
655 -739 1326 -1426 2820 -606 1318 -904 1919 -1259 2535 -670 1161 -1375
2004 -2183 2609 -96 72 -228 165 -293 206 l-118 75 6 140 c38 968 -12 1872
-151 2715 -287 1743 -915 2885 -1824 3319 -213 102 -454 165 -740 196 -181 19
-542 26 -720 15z m553 -925 c404 -53 722 -225 992 -538 234 -270 414 -607 575
-1072 134 -390 328 -1268 359 -1630 15 -174 15 -1755 0 -1755 -7 0 -48 20 -93
44 -268 146 -650 294 -971 375 -331 85 -598 120 -960 128 -498 11 -943 -45
-1500 -187 -611 -155 -1149 -352 -2475 -903 -3624 -1506 -6661 -3386 -8679
-5372 -575 -566 -877 -911 -1332 -1520 -307 -411 -506 -711 -588 -885 -29 -63
-35 -86 -35 -141 0 -173 176 -357 394 -414 48 -13 91 -16 165 -12 132 6 199
31 256 95 53 60 202 270 464 652 342 500 375 543 665 865 442 490 957 990
1495 1451 1809 1549 4162 2943 6955 4121 277 117 862 354 866 351 1 -2 -13
-61 -31 -131 -148 -570 -169 -1239 -59 -1847 113 -623 359 -1225 699 -1710
238 -339 547 -652 877 -888 193 -138 478 -292 708 -380 121 -47 348 -117 432
-133 32 -7 58 -14 58 -18 0 -3 -33 -78 -74 -166 -163 -354 -244 -621 -320
-1067 -281 -1632 -30 -3777 690 -5890 576 -1691 1354 -3115 2300 -4210 1100
-1274 2304 -2072 3435 -2277 340 -62 805 -67 1091 -13 52 10 58 4 58 -67 0
-60 30 -243 62 -376 206 -863 831 -1658 1603 -2035 335 -164 579 -224 920
-224 169 0 218 3 314 22 494 99 909 398 1243 895 43 63 63 86 68 76 20 -37
309 -773 390 -994 863 -2347 1025 -4112 490 -5331 -235 -537 -601 -958 -1108
-1276 -1249 -783 -3136 -740 -5437 122 -928 348 -1966 866 -2880 1438 -1223
766 -2241 1624 -2770 2337 -833 1120 -1173 2583 -1141 4900 6 477 13 698 46
1565 40 1061 44 1200 44 1840 0 643 -8 901 -39 1320 -147 1930 -674 3285
-1708 4392 -632 677 -1478 1181 -2354 1403 -356 91 -597 120 -968 119 -295 0
-443 -15 -655 -65 -936 -218 -1545 -861 -1740 -1839 -55 -276 -65 -392 -65
-770 1 -540 47 -985 235 -2270 164 -1119 196 -1500 187 -2169 -10 -697 -85
-1241 -268 -1951 -217 -840 -617 -1622 -1179 -2300 -127 -154 -447 -475 -593
-596 -203 -167 -437 -325 -647 -437 l-106 -56 -58 107 c-293 535 -708 1094
-1271 1712 -203 223 -276 299 -815 855 -546 563 -636 657 -831 870 -171 188
-379 426 -379 435 0 3 1077 1129 2393 2502 2128 2220 2397 2504 2437 2573 170
298 214 641 124 953 -55 188 -155 355 -304 502 -103 103 -194 169 -317 229
-282 139 -620 160 -930 56 -211 -71 -70 46 -2120 -1756 -2184 -1921 -1912
-1683 -1917 -1678 -6 7 24 282 55 494 63 431 142 795 384 1765 260 1038 334
1376 394 1795 85 587 92 932 25 1163 -61 209 -215 421 -414 569 -220 164 -543
247 -825 213 -290 -35 -537 -153 -735 -350 -109 -110 -175 -206 -260 -383
-238 -495 -453 -1214 -795 -2657 -210 -888 -342 -1397 -452 -1750 -25 -80 -58
-193 -74 -252 -15 -58 -39 -129 -53 -156 -28 -55 -80 -105 -105 -100 -36 7
-502 908 -705 1362 -540 1210 -871 2327 -1020 3446 -60 449 -80 764 -80 1245
0 615 45 1098 155 1652 336 1701 1172 3228 2583 4716 541 570 1173 1101 1837
1543 1097 732 2273 1261 4059 1829 358 113 806 249 1705 515 878 260 1392 419
1900 587 1012 335 1328 460 2403 957 221 102 583 270 805 372 2096 969 3262
1377 4207 1473 147 15 508 12 633 -4z m107 -5345 c1518 -112 2790 -976 4000
-2715 317 -456 695 -1081 1042 -1725 264 -489 454 -864 1187 -2340 398 -802
565 -1128 773 -1510 539 -989 1009 -1682 1497 -2208 191 -206 271 -270 855
-690 455 -326 616 -453 768 -602 106 -105 132 -136 160 -195 32 -67 33 -75 32
-185 -1 -95 -6 -131 -28 -205 -57 -191 -202 -440 -394 -680 -119 -149 -453
-485 -587 -591 -197 -156 -437 -295 -840 -489 -936 -449 -1191 -601 -1460
-870 -201 -201 -351 -476 -429 -790 -66 -264 -66 -546 -1 -1070 47 -382 55
-474 55 -660 0 -578 -182 -1017 -498 -1205 -230 -136 -544 -158 -912 -65 -739
187 -1804 871 -2465 1581 -608 655 -1161 1485 -1679 2524 -511 1026 -901 2073
-1174 3155 -199 787 -310 1463 -363 2220 -16 220 -16 846 -1 1045 41 520 127
969 257 1349 109 317 164 409 457 773 210 260 288 396 307 529 17 125 -28 265
-113 352 -120 124 -293 147 -722 93 -242 -30 -357 -32 -475 -10 -679 127
-1288 651 -1674 1439 -388 791 -478 1661 -245 2367 172 521 501 901 980 1132
289 139 597 212 1040 245 165 12 493 13 650 1z m-15936 -9665 c189 -34 186
-33 186 -53 0 -22 -1415 -7131 -1421 -7136 -4 -4 -980 171 -984 176 -1 2 422
1527 939 3389 l941 3386 89 131 c49 73 94 132 99 132 5 0 73 -11 151 -25z
m4766 -2473 c53 -38 65 -84 64 -232 -1 -74 -6 -148 -11 -163 -5 -18 -1012
-1058 -2668 -2757 -1463 -1500 -2661 -2727 -2663 -2725 -2 2 96 414 217 916
190 785 224 917 244 932 12 10 113 93 225 184 507 413 970 824 1922 1708 1023
949 1353 1246 1899 1705 304 255 413 338 522 395 131 68 193 77 249 37z
m20520 -2696 c0 -29 41 -148 70 -206 54 -107 146 -229 311 -415 190 -213 237
-274 276 -352 31 -64 35 -79 31 -132 -6 -80 -39 -129 -128 -187 -144 -93 -330
-151 -876 -274 -756 -169 -1057 -275 -1382 -486 -45 -30 -87 -54 -92 -54 -12
0 -83 221 -107 330 -25 119 -25 407 0 500 65 235 189 426 382 588 244 205 566
372 1095 570 363 135 405 150 413 145 4 -2 7 -14 7 -27z m459 -2407 c26 -75 6
-272 -80 -779 -122 -716 -111 -612 -105 -985 17 -959 18 -1237 7 -1413 -25
-389 -73 -633 -163 -821 -55 -115 -144 -206 -239 -243 -394 -157 -874 13
-1329 471 -353 355 -610 798 -680 1171 -87 468 -34 925 155 1318 193 402 534
737 981 965 412 209 855 318 1406 345 32 2 37 -1 47 -29z m-27749 -213 c219
-47 457 -204 579 -384 107 -158 153 -297 154 -467 1 -177 -54 -334 -174 -495
-159 -213 -364 -322 -609 -322 -388 -1 -772 300 -881 687 -31 112 -31 269 0
380 79 283 316 525 582 594 90 24 254 27 349 7z m-5665 -1366 c680 -62 1206
-430 1506 -1055 353 -734 270 -1637 -206 -2230 -291 -364 -727 -591 -1260
-656 -223 -27 -546 -11 -755 37 -776 180 -1316 805 -1441 1669 -20 133 -17
455 5 590 39 247 88 402 196 620 102 204 184 319 340 475 155 155 272 239 465
334 263 130 496 191 840 219 89 8 206 6 310 -3z m2910 -51 c506 -23 923 -45
926 -48 6 -6 53 -1521 47 -1525 -2 -1 -241 -125 -533 -276 -291 -150 -563
-291 -603 -313 l-74 -40 7 139 c31 611 -184 1278 -631 1962 -70 106 -89 142
-76 142 9 1 431 -18 937 -41z m1978 -894 c61 -41 179 -89 275 -111 49 -11 165
-18 431 -24 333 -8 365 -10 381 -27 17 -18 1170 -2104 1170 -2117 0 -3 -105
-4 -232 0 -762 21 -1371 -134 -1906 -485 l-91 -60 -5 42 c-4 37 -87 2703 -86
2785 0 17 2 32 5 32 3 0 29 -16 58 -35z m2035 -3186 c587 -63 1074 -381 1360
-888 270 -477 351 -1060 226 -1620 -59 -265 -192 -557 -342 -756 -301 -397
-715 -626 -1241 -686 -135 -15 -460 -7 -611 16 -571 86 -1005 347 -1295 780
-137 204 -235 435 -289 677 -37 172 -50 286 -50 473 0 341 66 635 210 935 303
632 868 1008 1609 1073 93 8 333 6 423 -4z"/>
</g>
</svg>
