<svg xmlns="http://www.w3.org/2000/svg" width="64" height="64" viewBox="0 0 64 64" fill="none">
  <g clip-path="url(#clip0_4_4281)">
    <path d="M54.0586 36.9297C52.5078 33.3571 49.9925 30.5264 46.839 28.2299C44.6056 26.5975 42.1088 26.2636 39.4784 27.1762C38.4322 27.5361 37.4454 28.0592 36.3361 28.5526C36.221 28.3152 36.0021 28.011 35.9465 27.6882C35.8427 27.0984 35.8019 26.4899 35.7647 25.8926C35.698 25.0468 35.3381 24.6573 34.4625 24.7054C33.6093 24.7611 32.7448 24.8464 31.8989 25.0282C28.6119 25.7405 25.6773 27.2431 23.047 29.2353C21.1215 30.7082 19.3518 32.3701 17.5376 33.9654C16.8847 34.5441 16.202 34.8669 15.1929 34.5924C15.4304 34.1843 15.6381 33.8244 15.8681 33.472C16.2762 32.8339 16.2391 32.2552 15.7531 31.9027C15.2894 31.5726 14.6995 31.695 14.2135 32.207C12.4661 34.0619 11.1194 36.158 10.1511 38.4767C9.12341 40.9476 8.71531 43.5037 9.20873 46.1601C9.74297 49.0575 11.2529 51.4393 13.3787 53.4649C13.9019 53.9508 14.1096 54.4332 14.1022 55.138C14.054 58.0986 14.1022 61.0628 14.5177 63.9974H16.5805C16.2206 61.5822 16.1612 59.1447 16.1427 56.6925C16.1353 55.9506 16.1427 55.2011 16.1427 54.4591H16.228C16.228 52.0774 16.1612 49.6919 16.2577 47.3101C16.3616 44.6019 18.9363 42.7505 21.6891 43.3108C23.1619 43.6039 24.6052 44.0602 26.078 44.2903C28.9459 44.7354 31.8433 44.869 34.7408 44.6909C36.7145 44.5536 38.6919 44.2976 40.6581 44.0342C41.4818 43.9193 42.2906 43.6336 43.0956 43.4259C46.2899 42.5688 49.0613 44.5276 49.091 47.7368C49.128 51.6211 49.1577 55.5165 49.0613 59.4008C49.0241 60.9478 48.9203 62.4763 48.6717 63.9974H50.7604C50.8569 63.3036 50.9312 62.6098 50.9794 61.9087C51.1685 59.475 51.1314 57.0264 51.2279 54.5853C51.2353 54.244 51.38 53.873 51.5581 53.5576C52.3372 52.1812 53.2685 50.8642 53.925 49.4285C55.8135 45.3067 55.8729 41.107 54.0586 36.9297Z" stroke="#476AB2" stroke-width="2.30244" stroke-miterlimit="10"/>
    <path d="M37.1658 19.3328L10.7841 16.7285C10.7841 16.7285 6.7699 11.835 10.7841 6.22934L36.754 4.06272C36.754 4.06272 40.9276 2 41.8996 2H48.3253C48.3253 2 48.1213 4.26306 46.0622 4.30387C43.9995 4.34468 44.3223 8.71128 44.3223 8.71128L44.4446 16.0236C44.4446 16.0236 44.6858 18.8951 46.871 18.6094C49.0525 18.3274 49.3752 21.0765 49.3752 21.0765H41.1317L36.8058 19.2994" stroke="#476AB2" stroke-width="2.30244" stroke-miterlimit="10"/>
    <path d="M44.6797 7.06812H48.7236" stroke="#476AB2" stroke-width="1.53496" stroke-miterlimit="10" stroke-linecap="round"/>
    <path d="M44.6797 9.44165H48.7236" stroke="#476AB2" stroke-width="1.53496" stroke-miterlimit="10" stroke-linecap="round"/>
    <path d="M44.6797 11.4421H48.7236" stroke="#476AB2" stroke-width="1.53496" stroke-miterlimit="10" stroke-linecap="round"/>
    <path d="M44.6797 13.709H48.7236" stroke="#476AB2" stroke-width="1.53496" stroke-miterlimit="10" stroke-linecap="round"/>
    <path d="M44.6797 16.0098H48.7236" stroke="#476AB2" stroke-width="1.53496" stroke-miterlimit="10" stroke-linecap="round"/>
    <path d="M36.7793 4.13672V19.0953" stroke="#476AB2" stroke-width="2.30244" stroke-miterlimit="10"/>
    <path d="M36.135 15.85L22.0742 14.6553C20.9723 14.5626 20.1265 13.6425 20.1265 12.5369V10.9305C20.1265 9.684 21.0688 8.6378 22.3042 8.50796L36.135 7.03882V15.85Z" stroke="#476AB2" stroke-width="2.30244" stroke-miterlimit="10"/>
  </g>
  <defs>
    <clipPath id="clip0_4_4281">
      <rect width="64" height="64" fill="white"/>
    </clipPath>
  </defs>
</svg>