<svg xmlns="http://www.w3.org/2000/svg" width="64" height="64" viewBox="0 0 64 64" fill="none">
  <path d="M13.2055 42.9047C19.8711 42.4002 22.4986 38.3232 22.5789 35.9338C28.3402 41.8486 30.469 43.0132 41.7738 41.3681C50.8177 40.0519 52.0808 29.3755 51.5027 24.9155C50.3551 26.5914 47.268 29.5263 44.1004 27.8593C40.9327 26.1922 38.1209 25.9284 37.111 26.0048C35.3018 17.879 27.9326 18.4831 24.4741 19.8009C18.7447 16.4209 14.589 20.0227 13.2273 22.246C2.87992 22.3937 3.8206 29.0492 5.58437 32.3585C2.08419 36.596 4.87341 43.5354 13.2055 42.9047Z" stroke="#486AB3" stroke-width="2"/>
  <path d="M10.1973 43.0501C10.1973 48.815 13.2324 62.6002 25.9565 62.6002C39.5667 62.6002 41.5628 48.6144 42.5179 40.8445" stroke="#486AB3" stroke-width="2"/>
  <path d="M52.3433 18.7602C53.5088 17.2672 53.3362 15.1518 51.9573 14.0372C50.5645 12.9107 48.4765 13.2168 47.3075 14.7215C46.1492 16.2086 46.3362 18.3123 47.731 19.4298C49.1269 20.5514 51.1753 20.2518 52.3433 18.7602ZM26.2722 28.3366C26.1458 28.2999 25.9191 28.2357 25.8592 28.1026C25.6984 27.7356 26.7172 27.4708 26.9389 27.3877C29.0297 26.5991 30.9627 25.3697 32.8945 24.2804C35.4442 22.8337 37.9639 21.3377 40.5555 19.9614C41.8889 19.2553 43.2414 18.5816 44.6281 17.9735C45.2739 17.6917 45.4894 17.3884 45.5295 16.6783C45.6361 14.8242 46.5912 13.4419 48.2733 12.6828C49.9681 11.9146 51.543 12.1815 52.8682 13.3831C54.4277 14.7979 54.5765 17.4412 53.307 19.2067C51.9603 21.086 49.4655 21.787 47.4886 20.606C47.1538 20.4064 46.8582 20.1315 46.576 19.8579C46.1873 19.4808 45.8568 19.4007 45.332 19.63C43.6371 20.364 42.0252 21.2625 40.4392 22.1941C38.8035 23.1602 37.1955 24.1676 35.5577 25.1256C34.6592 25.65 33.7468 26.1452 32.8201 26.6178C31.9225 27.0776 31.0611 27.5938 30.102 27.9229C28.9439 28.3216 27.5047 28.6638 26.2722 28.3366Z" fill="#486AB3"/>
  <path d="M34.5423 7.81946C35.3594 6.09107 37.3557 5.28879 38.9955 6.03191C40.6513 6.77795 41.3269 8.80856 40.5011 10.5454C39.683 12.2697 37.6897 13.0499 36.0411 12.2979C34.3874 11.5428 33.7221 9.55289 34.5423 7.81946ZM37.7445 35.78C38.0581 36.0832 38.2884 35.9745 38.3232 35.5496C38.3844 34.8111 38.294 34.0652 38.2828 33.3234C38.249 30.4762 38.4366 27.6384 38.5944 24.8029C38.7792 21.3592 38.9677 17.9039 38.7782 14.4456C38.7367 13.7297 38.9151 13.4 39.5386 13.0394C41.1694 12.1044 41.982 10.6136 41.9035 8.74853C41.8251 6.86637 40.8643 5.56307 39.1691 4.9095C37.1758 4.14084 34.7145 5.20242 33.6936 7.15203C32.6072 9.2193 33.1138 11.7947 35.0852 13.0479C35.4192 13.2606 35.8027 13.4044 36.1831 13.5359C36.7013 13.7145 36.9234 13.982 36.9593 14.5571C37.0644 16.4248 36.9894 18.2913 36.868 20.1465C36.7406 22.0633 36.5639 23.9736 36.4458 25.8925C36.3787 26.9398 36.3502 27.9938 36.3448 29.0447C36.3397 30.0031 36.3033 30.9662 36.3896 31.926C36.4515 32.6202 36.6069 33.3066 36.8357 33.9662C37.0376 34.5543 37.2815 35.3332 37.7445 35.78Z" fill="#486AB3"/>
  <path d="M48.1794 15.3972C48.9614 14.3993 50.304 14.2139 51.2387 14.9722C52.1478 15.7146 52.2582 17.0843 51.4838 18.0698C50.7166 19.0494 49.3715 19.2504 48.4492 18.5238C47.5207 17.7899 47.4014 16.3943 48.1794 15.3972Z" fill="#486AB3"/>
  <path d="M35.9399 7.80182C36.7257 6.80954 38.0636 6.6316 38.9978 7.39648C39.9043 8.13732 40.006 9.51539 39.2265 10.4977C38.4515 11.4725 37.1028 11.6679 36.1907 10.9304C35.2659 10.185 35.1526 8.79661 35.9399 7.80182Z" fill="#486AB3"/>
</svg>