<svg width="64" height="64" viewBox="0 0 64 64" fill="none" xmlns="http://www.w3.org/2000/svg">
<g clip-path="url(#clip0_90_13523)">
<path d="M20.0831 36.131C21.6443 41.437 26.3651 45.1206 31.7022 45.2252C37.2089 45.3331 42.1822 41.6087 43.796 36.131" stroke="#476AB2" stroke-width="1.59318" stroke-miterlimit="10"/>
<path d="M47.7698 13.3081C46.6261 10.298 44.7668 7.91192 42.4362 5.97376C40.7874 4.5969 38.9421 4.31625 36.9973 5.08441C36.2256 5.38934 35.4959 5.82955 34.6749 6.24558C34.5907 6.0464 34.4294 5.78993 34.3873 5.51695C34.3101 5.02061 34.282 4.50883 34.254 4.00365C34.2048 3.29153 33.9382 2.96358 33.2927 3.0032C32.6613 3.0505 32.0216 3.12314 31.3972 3.27502C28.9695 3.87595 26.8015 5.14054 24.8568 6.82232C23.4325 8.0638 22.1275 9.46484 20.7873 10.8097C20.3032 11.2984 19.7968 11.5703 19.0531 11.338C19.2285 10.9947 19.3829 10.6898 19.5512 10.3937C19.8529 9.85668 19.8249 9.36909 19.467 9.07193C19.1232 8.79235 18.6882 8.89693 18.3304 9.32839C17.0394 10.8901 16.0431 12.6599 15.3274 14.6134C14.5696 16.6947 14.2679 18.8497 14.6328 21.0916C15.0257 23.5328 16.1413 25.5424 17.713 27.2484C18.0989 27.6567 18.2532 28.065 18.2462 28.6583C18.2111 31.1555 18.2462 33.6539 18.5549 36.128H20.0775C19.8108 34.0941 19.7687 32.0371 19.7547 29.9713C19.7477 29.3461 19.7547 28.7144 19.7547 28.0893H19.8179C19.8179 26.0795 19.7687 24.0698 19.8389 22.0602C19.9161 19.7775 21.8187 18.2169 23.8535 18.689C24.941 18.9367 26.0086 19.3218 27.0962 19.5133C29.2151 19.8897 31.3551 20.002 33.4962 19.8501C34.9556 19.7378 36.415 19.5222 37.8674 19.2976C38.479 19.2019 39.0754 18.9608 39.6718 18.7848C42.0293 18.0638 44.0792 19.7137 44.0991 22.4201C44.1272 25.6955 44.1482 28.9785 44.0792 32.2529C44.0511 33.5581 43.9728 34.8469 43.7904 36.128H45.3351C45.4053 35.5436 45.4614 34.9592 45.4965 34.3671C45.6368 32.3167 45.6088 30.2508 45.6789 28.1938C45.6859 27.9054 45.7912 27.5928 45.9245 27.3287C46.4998 26.1676 47.1874 25.0549 47.6716 23.8453C49.0678 20.3707 49.1099 16.8312 47.7698 13.3081Z" stroke="#476AB2" stroke-width="1.59318" stroke-miterlimit="10"/>
<path d="M39.4742 42.4325V52.9531" stroke="#476AB2" stroke-width="1.59318" stroke-miterlimit="10"/>
<path d="M6.79041 59.8662C7.72338 59.2725 8.74385 58.6669 9.84916 58.0711M57.2307 59.699C56.742 59.4233 56.1814 59.1169 55.5535 58.7913M41.7355 53.7187C37.0662 52.6788 31.2291 52.0786 24.6973 53.0678C24.3007 53.1278 23.9083 53.1927 23.5203 53.2622" stroke="#476AB2" stroke-width="1.59318" stroke-miterlimit="10"/>
<path d="M25.8966 43.4755V52.8438" stroke="#476AB2" stroke-width="1.59318" stroke-miterlimit="10"/>
<path d="M5.78024 34.4516C7.18333 37.9158 6.98028 45.7226 8.4541 51.8368C8.86254 53.5312 9.64225 56.1002 11.2575 59.0582C17.4591 64.6036 24.0258 56.2325 22.8082 55.9079C21.5863 55.582 20.9061 50.6348 20.9061 50.6348C20.9061 50.6348 22.9825 51.9988 22.9195 48.9513C22.852 45.9025 16.763 43.061 15.3106 41.1354C13.8582 39.2098 14.4884 32.7861 14.4884 32.7861" stroke="#476AB2" stroke-width="1.59318" stroke-miterlimit="10"/>
<mask id="mask0_90_13523" style="mask-type:luminance" maskUnits="userSpaceOnUse" x="18" y="25" width="53" height="52">
<path d="M55.0291 25.9318L19.0033 36.7604L33.3463 76.2349L69.372 65.4064L55.0291 25.9318Z" fill="white" stroke="white" stroke-width="1.06212"/>
</mask>
<g mask="url(#mask0_90_13523)">
<path d="M59.1859 34.9539C57.7829 38.418 57.9859 46.2249 56.5121 52.339C56.1037 54.0335 55.3239 56.6025 53.7087 59.5605C47.5071 65.1059 40.9404 56.7348 42.158 56.4102C43.3798 56.0843 44.06 51.1371 44.06 51.1371C44.06 51.1371 41.9836 52.5011 42.0467 49.4535C42.1142 46.4048 48.2032 43.5633 49.6556 41.6377C51.108 39.7121 50.4777 33.2884 50.4777 33.2884" stroke="#476AB2" stroke-width="1.59318" stroke-miterlimit="10"/>
</g>
</g>
<defs>
<clipPath id="clip0_90_13523">
<rect width="64" height="64" fill="white"/>
</clipPath>
</defs>
</svg>
