<svg width="63" height="63" viewBox="0 0 63 63" fill="none" xmlns="http://www.w3.org/2000/svg">
<path d="M26.6169 4.18223C27.2317 3.49563 27.9843 2.9464 28.8257 2.57037C29.6671 2.19435 30.5784 2 31.5 2C32.4216 2 33.3329 2.19435 34.1743 2.57037C35.0157 2.9464 35.7683 3.49563 36.3831 4.18223L38.6772 6.74505C39.3328 7.4775 40.1448 8.05309 41.0531 8.42921C41.9613 8.80533 42.9425 8.97234 43.9241 8.91787L47.3652 8.72779C48.2856 8.67705 49.2063 8.82102 50.0673 9.1503C50.9283 9.47958 51.7102 9.98676 52.3618 10.6387C53.0135 11.2907 53.5203 12.0728 53.8491 12.9339C54.178 13.795 54.3216 14.7159 54.2704 15.6362L54.0803 19.0741C54.0263 20.0551 54.1936 21.0357 54.5697 21.9433C54.9458 22.8509 55.5211 23.6624 56.2531 24.3177L58.8159 26.6118C59.5031 27.2266 60.0528 27.9794 60.4291 28.8211C60.8055 29.6629 61 30.5745 61 31.4965C61 32.4186 60.8055 33.3302 60.4291 34.1719C60.0528 35.0136 59.5031 35.7665 58.8159 36.3813L56.2531 38.6754C55.5207 39.331 54.9451 40.143 54.5689 41.0513C54.1928 41.9595 54.0258 42.9407 54.0803 43.9223L54.2704 47.3634C54.3211 48.2838 54.1771 49.2045 53.8479 50.0655C53.5186 50.9265 53.0114 51.7083 52.3594 52.36C51.7075 53.0116 50.9254 53.5185 50.0642 53.8473C49.2031 54.1762 48.2823 54.3197 47.3619 54.2686L43.9241 54.0785C42.9431 54.0245 41.9625 54.1917 41.0549 54.5678C40.1472 54.9439 39.3358 55.5193 38.6805 56.2513L36.3864 58.8141C35.7716 59.5012 35.0187 60.0509 34.177 60.4273C33.3353 60.8036 32.4237 60.9982 31.5016 60.9982C30.5796 60.9982 29.668 60.8036 28.8262 60.4273C27.9845 60.0509 27.2317 59.5012 26.6169 58.8141L24.3228 56.2513C23.6672 55.5188 22.8551 54.9432 21.9469 54.5671C21.0387 54.191 20.0574 54.024 19.0759 54.0785L15.6348 54.2686C14.7144 54.3193 13.7936 54.1753 12.9327 53.846C12.0717 53.5168 11.2898 53.0096 10.6382 52.3576C9.98653 51.7057 9.47972 50.9236 9.15085 50.0624C8.82198 49.2013 8.67844 48.2805 8.72962 47.3601L8.9197 43.9223C8.97367 42.9413 8.80642 41.9607 8.43032 41.0531C8.05421 40.1454 7.47888 39.3339 6.74688 38.6786L4.18406 36.3846C3.49692 35.7698 2.94722 35.0169 2.57088 34.1752C2.19453 33.3335 2 32.4218 2 31.4998C2 30.5778 2.19453 29.6661 2.57088 28.8244C2.94722 27.9827 3.49692 27.2298 4.18406 26.6151L6.74688 24.321C7.47933 23.6653 8.05492 22.8533 8.43104 21.9451C8.80716 21.0368 8.97417 20.0556 8.9197 19.0741L8.72962 15.633C8.67936 14.7128 8.82368 13.7924 9.15318 12.9319C9.48267 12.0713 9.98992 11.2898 10.6418 10.6385C11.2937 9.98725 12.0757 9.48073 12.9366 9.15206C13.7975 8.82338 14.718 8.67993 15.6381 8.73106L19.0759 8.92114C20.0569 8.97512 21.0375 8.80787 21.9451 8.43176C22.8527 8.05566 23.6642 7.48033 24.3195 6.74832L26.6169 4.18223Z" stroke="#1A3E5A" stroke-width="3.1383"/>
<path d="M23.307 23.3033H23.3398V23.3361H23.307V23.3033ZM39.6933 39.6896H39.7261V39.7224H39.6933V39.6896Z" stroke="#1A3E5A" stroke-width="9.41369" stroke-linejoin="round"/>
<path d="M41.3316 21.6642L21.6681 41.3277" stroke="#1A3E5A" stroke-width="6.27579" stroke-linecap="round" stroke-linejoin="round"/>
</svg>
