<svg xmlns="http://www.w3.org/2000/svg" width="64" height="64" viewBox="0 0 64 64" fill="none">
  <path d="M54.6125 15.7522C53.0423 11.7383 50.4969 8.55281 47.3039 5.96976C45.0446 4.13226 42.5143 3.75949 39.8522 4.78368C38.7941 5.19034 37.7963 5.77773 36.6704 6.33124C36.5537 6.0639 36.3353 5.72502 36.2751 5.35977C36.1696 4.69707 36.132 4.01554 36.0944 3.34154C36.0266 2.39266 35.6613 1.95212 34.7765 2.0086C33.9104 2.07261 33.0369 2.16674 32.1821 2.37007C28.8535 3.1721 25.8827 4.85898 23.2206 7.10314C21.2664 8.7561 19.4778 10.6275 17.644 12.4199C16.9814 13.0712 16.2885 13.4365 15.2681 13.124C15.5091 12.6646 15.72 12.2617 15.9496 11.8663C16.3638 11.1509 16.3262 10.4995 15.8367 10.1041C15.366 9.7276 14.7673 9.86692 14.2778 10.443C12.5081 12.529 11.145 14.8861 10.1623 17.4956C9.12679 20.2706 8.7126 23.1436 9.20963 26.1333C9.74808 29.3903 11.2768 32.0751 13.4306 34.3493C13.9615 34.8916 14.1724 35.4375 14.1611 36.2282C14.1159 39.5606 14.1611 42.893 14.5866 46.1914H16.6726C16.3074 43.4804 16.2508 40.7354 16.232 37.9791C16.2208 37.147 16.232 36.3036 16.232 35.4677C16.232 32.7867 16.2508 30.1095 16.345 27.4286C16.4504 24.3824 19.0561 22.3001 21.8462 22.929C23.3335 23.2603 24.7983 23.7724 26.2856 24.0284C29.1887 24.5331 32.1219 24.6836 35.0551 24.4803C37.0545 24.3297 39.0539 24.0398 41.0458 23.7423C41.8817 23.6143 42.6988 23.2942 43.5159 23.057C46.7465 22.0969 49.5556 24.2958 49.5819 27.9068C49.6196 32.2746 49.6497 36.6538 49.5556 41.0216C49.5141 42.7649 49.4087 44.4857 49.1602 46.1914H51.2763C51.3705 45.412 51.4496 44.6325 51.4985 43.8418C51.6868 41.1081 51.6491 38.3519 51.747 35.607C51.7545 35.2229 51.9014 34.8087 52.0821 34.4548C52.8728 32.9072 53.8142 31.4199 54.4769 29.8083C56.3897 25.1732 56.4462 20.4513 54.6125 15.7522Z" stroke="#F1633D" stroke-width="1.52013" stroke-miterlimit="10"/>
  <path d="M21.1772 34.8556C21.7684 35.2209 23.2105 35.9966 25.2024 36.0078C27.247 36.0191 28.7192 35.2209 29.3142 34.8556" stroke="#F1633D" stroke-width="1.52013" stroke-miterlimit="10"/>
  <path d="M35.6362 34.8556C36.2311 35.2209 37.6695 35.9966 39.6614 36.0078C41.706 36.0191 43.182 35.2209 43.7732 34.8556" stroke="#F1633D" stroke-width="1.52013" stroke-miterlimit="10"/>
  <path d="M28.6606 48.9739C29.2518 49.3391 30.6939 50.1148 32.6858 50.1223C34.7266 50.1336 36.2027 49.3354 36.7938 48.9739" stroke="#F1633D" stroke-width="1.52013" stroke-miterlimit="10"/>
  <path d="M32.927 58.3348C25.0009 58.3348 18.5735 51.9072 18.5735 43.9774V35.6108C18.5735 33.2348 17.9522 27.6846 19.5562 26.171C20.7988 24.9999 23.058 26.3668 24.3683 26.7584C28.6985 28.0536 33.232 27.5905 37.6714 27.3721C39.1474 27.2968 40.5481 26.9429 41.9037 26.3592C42.9354 25.9149 44.449 24.8455 45.5222 25.753C47.3108 27.2742 47.2844 33.0804 47.2844 35.6108V43.9774" stroke="#F1633D" stroke-width="1.4459" stroke-miterlimit="10"/>
  <path d="M52.2003 56.5386C52.2003 60.1082 48.8415 63 44.6959 63C40.554 63 37.1953 60.1082 37.1953 56.5386C37.1953 52.9691 40.554 50.0773 44.6959 50.0773C48.8415 50.0773 52.2003 52.9691 52.2003 56.5386Z" stroke="#F1633D" stroke-width="1.02081" stroke-miterlimit="10"/>
  <path d="M41.9903 59.1405C41.2673 59.1405 40.6761 58.907 40.2281 58.4326C39.7762 57.9544 39.5503 57.3105 39.5503 56.5047C39.5503 55.7329 39.7649 55.0965 40.1979 54.592C40.6272 54.0912 41.2296 53.8389 42.0053 53.8389C42.7245 53.8389 43.3081 54.0761 43.7524 54.5468C44.2005 55.0212 44.4302 55.6538 44.4302 56.4445C44.4302 57.2578 44.2005 57.913 43.7524 58.4025C43.3006 58.8958 42.7094 59.1405 41.9903 59.1405ZM41.9903 57.9808C42.25 57.9808 42.4421 57.8678 42.5625 57.6344C42.6793 57.3972 42.7433 56.9679 42.7433 56.3542C42.7433 55.4617 42.4986 55.0137 42.0203 55.0137C41.497 55.0137 41.2372 55.522 41.2372 56.5349C41.2372 57.4988 41.4857 57.9808 41.9903 57.9808Z" fill="#F1633D"/>
  <path d="M45.0122 57.4988L46.3526 57.3331C46.4392 57.7963 46.6915 58.026 47.1057 58.026C47.294 58.026 47.4522 57.9808 47.5726 57.8904C47.6894 57.7925 47.7533 57.657 47.7533 57.4838C47.7533 57.3745 47.7157 57.2804 47.6479 57.1976C47.5877 57.1185 47.5161 57.062 47.4371 57.0319C47.3656 56.9943 47.245 56.9716 47.0756 56.9716H46.443V55.9023H46.9702C47.2488 55.9023 47.4295 55.8534 47.5124 55.7517C47.5915 55.6538 47.6329 55.5484 47.6329 55.4354C47.6329 55.2961 47.5801 55.1794 47.4822 55.089C47.3806 55.0024 47.2488 54.9534 47.0907 54.9534C46.7367 54.9534 46.5221 55.153 46.443 55.5408L45.208 55.345C45.3171 54.8668 45.5544 54.4941 45.9159 54.2305C46.2849 53.9707 46.7179 53.8389 47.2111 53.8389C47.7722 53.8389 48.2241 53.9782 48.5667 54.2455C48.9056 54.5091 49.0788 54.8593 49.0788 55.2998C49.0788 55.5634 49.0072 55.7931 48.8679 55.9927C48.7248 56.1847 48.5404 56.3165 48.3107 56.3842C48.9319 56.565 49.2444 56.9679 49.2444 57.5892C49.2444 58.0824 49.0524 58.4665 48.6721 58.7338C48.2993 59.0049 47.8174 59.1405 47.2262 59.1405C46.0213 59.1405 45.2796 58.5945 45.0122 57.4988Z" fill="#F1633D"/>
</svg>