<svg xmlns="http://www.w3.org/2000/svg" width="64" height="64" viewBox="0 0 64 64" fill="none">
  <g clip-path="url(#clip0_4_4187)">
    <path d="M37.7469 20.991L33.2383 21.4095C30.5105 21.5982 27.7826 21.4587 25.0794 20.991C23.6929 20.7531 22.3352 20.2732 20.9486 19.9655C18.3562 19.379 15.9319 21.3192 15.8334 24.1496C15.7432 26.6436 15.8047 29.1377 15.8047 31.6316H15.7268C15.7268 32.4069 15.7186 33.1904 15.7268 33.9657C15.7432 36.5295 15.7965 37.5058 16.137 40.0326H14.1967C13.8029 36.9602 13.7578 35.4383 13.8029 32.3372C13.8112 31.603 13.6143 31.0943 13.122 30.5897C11.1202 28.4731 9.69684 25.9791 9.1964 22.9477C8.73287 20.1666 9.11436 17.492 10.0824 14.9078C10.9931 12.4835 12.2647 10.2889 13.9096 8.3528C14.3649 7.81543 14.9187 7.68823 15.3576 8.0328C15.817 8.40202 15.8499 9.00909 15.4684 9.67358C15.251 10.0387 15.0541 10.4202 14.8326 10.8468C15.7801 11.1339 16.4242 10.7975 17.0394 10.1905C18.75 8.52095 20.4113 6.78169 22.2284 5.24344C24.7061 3.15551 27.4709 1.58855 30.5638 0.841978C31.3596 0.653288 32.1759 0.563046 32.9799 0.501512C33.8003 0.452289 34.1407 0.862486 34.2023 1.74443C34.2391 2.37203 34.2761 3.00784 34.3745 3.62314C34.4278 3.96361 34.6329 4.27947 34.7396 4.52559C35.7856 4.00873 36.7168 3.46317 37.7013 3.08578C40.1789 2.13411 42.5293 2.47868 44.6337 4.18922C47.6035 6.593 49.9704 9.55466 51.4307 13.2916C53.1371 17.6603 53.0838 22.0535 51.3035 26.3647C50.6883 27.866 49.8104 29.2443 49.0762 30.6882C48.9079 31.0164 48.7726 31.402 48.7644 31.7629C48.6742 34.3144 48.711 36.8781 48.5347 39.4214C48.4855 40.1557 48.4157 40.8817 48.3255 41.6077H46.3606C46.5903 40.0162 46.6887 38.4164 46.7257 36.7961L46.3606 29.0146" stroke="#F1633D" stroke-width="1.4145" stroke-miterlimit="10"/>
    <path d="M46.3612 41.6049C44.302 48.4019 37.9643 53.0249 30.9458 52.8896C29.0834 52.8739 24.5942 51.6926 22.3889 50.1174" stroke="#F1633D" stroke-width="1.4145" stroke-miterlimit="10"/>
    <path d="M23.558 50.8537V62.4788" stroke="#F1633D" stroke-width="1.4145" stroke-miterlimit="10"/>
    <path d="M40.848 49.4262V62.4788" stroke="#F1633D" stroke-width="1.4145" stroke-miterlimit="10"/>
    <path d="M37.71 20.9275C42.2796 20.0087 44.5439 16.7968 46.2791 12.5348C47.5958 17.1044 50.3606 19.7995 55 21.026C50.3893 22.3673 47.5261 25.0993 46.3447 29.5663C43.6743 24.0574 43.6743 24.0574 37.71 20.9275Z" stroke="#F1633D" stroke-width="1.67494" stroke-miterlimit="10"/>
    <path d="M22.873 46.3025C22.873 49.6333 20.1738 52.3325 16.843 52.3325C13.5122 52.3325 10.809 49.6333 10.809 46.3025C10.809 42.9717 13.5122 40.2726 16.843 40.2726C20.1738 40.2726 22.873 42.9717 22.873 46.3025Z" stroke="#F1633D" stroke-width="1.67494" stroke-miterlimit="10"/>
    <path d="M25.6809 38.6379C25.6809 39.8111 24.7292 40.7587 23.5601 40.7587C22.3869 40.7587 21.4353 39.8111 21.4353 38.6379C21.4353 37.4648 22.3869 36.5172 23.5601 36.5172C24.7292 36.5172 25.6809 37.4648 25.6809 38.6379Z" stroke="#F1633D" stroke-width="0.908346" stroke-miterlimit="10"/>
  </g>
  <defs>
    <clipPath id="clip0_4_4187">
      <rect width="64" height="64" fill="white"/>
    </clipPath>
  </defs>
</svg>