<svg xmlns="http://www.w3.org/2000/svg" width="64" height="64" viewBox="0 0 64 64" fill="none">
  <path d="M55.7942 16.512C54.0842 12.1259 51.3012 8.65242 47.8195 5.83247C45.349 3.82645 42.5907 3.41538 39.6844 4.53761C38.5293 4.98156 37.4359 5.61872 36.2068 6.2271C36.0835 5.93524 35.8409 5.56117 35.7793 5.16654C35.66 4.44305 35.6189 3.69491 35.5779 2.9632C35.5038 1.9232 35.1051 1.44636 34.1391 1.50391C33.1977 1.57379 32.24 1.68067 31.3068 1.90264C27.6729 2.77411 24.4297 4.6157 21.5234 7.06568C19.394 8.87435 17.4414 10.9133 15.4354 12.8741C14.712 13.5853 13.9555 13.9799 12.8416 13.6428C13.1047 13.1413 13.3349 12.6973 13.5897 12.2657C14.0378 11.4847 13.9967 10.7735 13.4623 10.3419C12.9485 9.93495 12.299 10.087 11.7605 10.716C9.83253 12.9892 8.34034 15.5666 7.27157 18.4112C6.13701 21.4449 5.68484 24.5814 6.23156 27.8453C6.81939 31.401 8.48833 34.3278 10.8397 36.8107C11.4152 37.4068 11.6453 38.0028 11.6371 38.8619C11.5837 42.4999 11.6371 46.1379 12.0975 49.743H14.3749C13.9761 46.7792 13.9144 43.7865 13.8939 40.7775C13.8816 39.865 13.8939 38.9441 13.8939 38.0357C13.8939 35.1088 13.9144 32.1821 14.0172 29.2553C14.1323 25.9338 16.9769 23.6606 20.0229 24.3471C21.6508 24.7088 23.2458 25.2679 24.8736 25.5473C28.0429 26.0941 31.2452 26.2585 34.4433 26.0365C36.6261 25.8721 38.813 25.5597 40.9834 25.2309C41.896 25.0911 42.788 24.7417 43.68 24.4868C47.207 23.4386 50.2736 25.8392 50.3024 29.7814C50.3476 34.5498 50.3764 39.3306 50.2736 44.099C50.2325 45.9981 50.1174 47.8767 49.842 49.743H52.1522C52.2591 48.8921 52.3412 48.0411 52.3947 47.1779C52.6044 44.1935 52.5633 41.1844 52.666 38.1878C52.6783 37.7685 52.8345 37.3122 53.0359 36.9258C53.8951 35.2363 54.9228 33.6167 55.6462 31.8573C57.7345 26.7971 57.8003 21.6422 55.7942 16.512Z" stroke="#F1633D" stroke-width="1.65954" stroke-miterlimit="10"/>
  <path d="M19.2945 37.3676C19.944 37.7664 21.5143 38.6132 23.6929 38.6255C25.9209 38.6378 27.5323 37.7664 28.1777 37.3676" stroke="#E9B124" stroke-width="1.07549" stroke-miterlimit="10"/>
  <path d="M35.0793 37.3676C35.7288 37.7664 37.2991 38.6132 39.4778 38.6255C41.7058 38.6378 43.3172 37.7664 43.9626 37.3676" stroke="#E9B124" stroke-width="1.07549" stroke-miterlimit="10"/>
  <path d="M27.4644 52.7807C28.1097 53.1753 29.6841 54.0221 31.8587 54.0344C34.0867 54.0468 35.6981 53.1753 36.3476 52.7807" stroke="#E9B124" stroke-width="1.07549" stroke-miterlimit="10"/>
  <path d="M39.6306 61.0885C37.4017 62.3072 34.8444 63 32.1256 63C23.4685 63 16.4516 55.983 16.4516 47.3259V38.1919C16.4516 35.598 15.7733 29.5348 17.5244 27.8864C18.8851 26.608 21.3474 28.096 22.7779 28.5236C27.5052 29.9376 32.4545 29.4361 37.301 29.1936C38.9124 29.1155 40.4416 28.7291 41.9214 28.0919C43.0478 27.6068 44.7002 26.4353 45.8718 27.4301C47.8244 29.0867 47.7956 35.4254 47.7956 38.1919V47.3259C47.7956 51.042 46.5027 54.4559 44.3424 57.1423" stroke="#E9B124" stroke-width="1.07549" stroke-miterlimit="10"/>
  <path d="M39.6298 59.3929C41.2495 59.0681 42.051 57.9295 42.6635 56.4208C43.1321 58.0405 44.1105 58.99 45.7547 59.4258C44.1187 59.9026 43.1074 60.8687 42.6882 62.4513C41.7427 60.4987 41.7427 60.4987 39.6298 59.3929Z" stroke="#E9B124" stroke-width="1.07549" stroke-miterlimit="10"/>
</svg>