<svg xmlns="http://www.w3.org/2000/svg" width="64" height="64" viewBox="0 0 64 64" fill="none">
  <path d="M55.7968 16.5078C54.0826 12.1258 51.2996 8.6482 47.8179 5.82825C45.3514 3.82223 42.589 3.41526 39.6828 4.53338C38.5277 4.97733 37.4383 5.6186 36.2092 6.22287C36.0818 5.93513 35.8433 5.56105 35.7776 5.16231C35.6624 4.43883 35.6214 3.69479 35.5803 2.95898C35.5063 1.92308 35.1075 1.44212 34.1416 1.50379C33.196 1.57367 32.2424 1.67644 31.3051 1.89842C27.6754 2.77399 24.432 4.61559 21.5258 7.06557C19.3923 8.87425 17.4397 10.9132 15.4378 12.8699C14.7102 13.5811 13.9579 13.9798 12.844 13.6386C13.107 13.1412 13.3372 12.6972 13.588 12.2656C14.0402 11.4846 13.999 10.7734 13.4646 10.3418C12.9467 9.93485 12.2972 10.0828 11.7628 10.7159C9.8308 12.9891 8.33861 15.5624 7.26983 18.4111C6.13528 21.4407 5.68721 24.5772 6.22982 27.8411C6.81765 31.3968 8.4866 34.3277 10.8379 36.8107C11.4175 37.4026 11.6477 37.9986 11.6354 38.8619C11.582 42.4999 11.6354 46.1378 12.0999 49.7429H14.3772C13.9785 46.7791 13.9128 43.7824 13.8922 40.7734C13.884 39.8649 13.8922 38.9441 13.8922 38.0357C13.8922 35.1088 13.9128 32.182 14.0196 29.2552C14.1347 25.9296 16.9793 23.6564 20.0253 24.3429C21.6491 24.7046 23.2441 25.2637 24.8719 25.5473C28.0412 26.0941 31.2435 26.2585 34.4457 26.0365C36.6285 25.8721 38.8113 25.5556 40.9817 25.2308C41.8984 25.091 42.7905 24.7416 43.6825 24.4867C47.2095 23.4344 50.272 25.835 50.3048 29.7772C50.3459 34.5457 50.3788 39.3264 50.272 44.099C50.2308 45.9981 50.1157 47.8767 49.8444 49.7429H52.1547C52.2574 48.8879 52.3397 48.037 52.3931 47.1737C52.6027 44.1893 52.5616 41.1803 52.6685 38.1836C52.6767 37.7643 52.8329 37.3122 53.0344 36.9257C53.8976 35.2363 54.9212 33.6166 55.6488 31.8531C57.737 26.7929 57.7986 21.638 55.7968 16.5078Z" stroke="#F1633D" stroke-width="1.65954" stroke-miterlimit="10"/>
  <path d="M19.2946 37.3654C19.9399 37.7642 21.5143 38.611 23.6889 38.6192C25.921 38.6315 27.5282 37.76 28.1737 37.3654" stroke="#F1633D" stroke-width="1.65954" stroke-miterlimit="10"/>
  <path d="M35.0793 37.3654C35.7247 37.7642 37.2991 38.611 39.4737 38.6192C41.7058 38.6315 43.313 37.76 43.9626 37.3654" stroke="#F1633D" stroke-width="1.65954" stroke-miterlimit="10"/>
  <path d="M27.4583 52.7744C28.1077 53.1732 29.678 54.0199 31.8567 54.0282C34.0847 54.0446 35.6961 53.1732 36.3415 52.7744" stroke="#F1633D" stroke-width="1.65954" stroke-miterlimit="10"/>
  <path d="M32.1178 63C23.4607 63 16.4438 55.983 16.4438 47.33V38.1919C16.4438 35.598 15.7696 29.5388 17.5207 27.8904C18.8773 26.6079 21.3437 28.1001 22.7742 28.5276C27.5015 29.9417 32.4508 29.4401 37.2973 29.1976C38.9087 29.1154 40.4338 28.729 41.9137 28.0959C43.0441 27.6068 44.6966 26.4394 45.8681 27.4342C47.8208 29.0907 47.792 35.4295 47.792 38.1919V47.33C47.792 55.983 40.775 63 32.1178 63Z" fill="#F1633D" fill-opacity="0.2" stroke="#F1633D" stroke-width="1.0755" stroke-miterlimit="10"/>
</svg>