<svg xmlns="http://www.w3.org/2000/svg" width="64" height="64" viewBox="0 0 64 64" fill="none">
  <path d="M55.5465 16.4367C53.841 12.0726 51.0761 8.61652 47.6077 5.81073C45.1536 3.81477 42.4092 3.40577 39.5134 4.52236C38.3642 4.96409 37.2802 5.59805 36.0574 6.20338C35.9305 5.91298 35.6933 5.54079 35.6279 5.14814C35.5133 4.42828 35.4725 3.6839 35.4316 2.95586C35.3579 1.92108 34.9612 1.44662 34 1.50389C33.0593 1.57342 32.1104 1.67976 31.1819 1.90062C27.5664 2.76772 24.3393 4.60007 21.4476 7.03775C19.3289 8.83735 17.3861 10.8661 15.3901 12.8171C14.6703 13.5246 13.9177 13.9173 12.8094 13.5819C13.0711 13.0829 13.3002 12.6412 13.5497 12.2117C13.9996 11.4345 13.9586 10.727 13.4269 10.2975C12.9157 9.89262 12.2654 10.0439 11.7337 10.6698C9.81133 12.9316 8.32663 15.496 7.26321 18.3264C6.13435 21.3448 5.68854 24.4656 6.22843 27.7131C6.8133 31.251 8.47387 34.1631 10.8134 36.6335C11.3901 37.2266 11.6191 37.8196 11.611 38.6744C11.5578 42.2942 11.611 45.9139 12.069 49.5009H14.3349C13.9382 46.5519 13.8769 43.5743 13.8523 40.5804C13.8441 39.6725 13.8523 38.7562 13.8523 37.8524C13.8523 34.9402 13.8769 32.0281 13.9791 29.116C14.0936 25.8112 16.924 23.5494 19.9547 24.2324C21.5743 24.5923 23.1613 25.1486 24.7769 25.4267C27.9303 25.9707 31.1165 26.1343 34.3027 25.9134C36.4745 25.7498 38.6463 25.439 40.81 25.1118C41.718 24.9727 42.6055 24.625 43.4931 24.3715C47.0024 23.3285 50.0536 25.7171 50.0821 29.6395C50.1231 34.384 50.1558 39.1407 50.0536 43.8852C50.0127 45.7748 49.894 47.644 49.6241 49.5009H51.9227C52.025 48.6543 52.1109 47.8075 52.16 46.9487C52.3726 43.9792 52.3276 40.9853 52.4339 38.0037C52.4462 37.5865 52.5976 37.1325 52.798 36.748C53.6569 35.067 54.6794 33.4555 55.3993 31.7049C57.477 26.6701 57.5384 21.5411 55.5465 16.4367Z" stroke="#F1633D" stroke-width="1.65121" stroke-miterlimit="10"/>
  <path d="M19.2273 37.1876C19.8735 37.5844 21.4359 38.4269 23.5996 38.4392C25.8205 38.4514 27.4238 37.5844 28.0659 37.1876" stroke="#F1633D" stroke-width="1.65121" stroke-miterlimit="10"/>
  <path d="M34.9332 37.1876C35.5794 37.5844 37.1418 38.4269 39.3095 38.4392C41.5263 38.4514 43.1297 37.5844 43.7718 37.1876" stroke="#F1633D" stroke-width="1.65121" stroke-miterlimit="10"/>
  <path d="M27.3563 52.5233C27.9985 52.916 29.565 53.7585 31.7286 53.7708C33.9454 53.7831 35.5487 52.916 36.1909 52.5233" stroke="#F1633D" stroke-width="1.65121" stroke-miterlimit="10"/>
  <path d="M40.7414 60.0042C38.2455 61.7003 35.2318 62.6914 31.9864 62.6914C23.3727 62.6914 16.391 55.7096 16.391 47.0959V38.0078C16.391 35.4269 15.7202 29.3941 17.4625 27.754C18.8123 26.482 21.2663 27.9626 22.6897 28.388C27.3933 29.7949 32.3177 29.2959 37.1399 29.0546C38.7432 28.9769 40.2606 28.5924 41.7371 27.9585C42.8578 27.4758 44.502 26.3101 45.6677 27.3C47.6105 28.9483 47.5818 35.2552 47.5818 38.0078V47.0959C47.5818 48.8654 47.2872 50.5659 46.7443 52.1513" stroke="#F1633D" stroke-width="1.57059" stroke-miterlimit="10"/>
  <path d="M38.7247 56.09C41.3914 55.5542 42.7166 53.6769 43.7268 51.1901C44.4957 53.8569 46.1113 55.4315 48.8189 56.1473C46.1277 56.9285 44.4549 58.5236 43.7636 61.1331C42.2053 57.9142 42.2053 57.9142 38.7247 56.09Z" stroke="#F1633D" stroke-width="0.97795" stroke-miterlimit="10"/>
</svg>