<svg xmlns="http://www.w3.org/2000/svg" width="64" height="64" viewBox="0 0 64 64" fill="none">
  <path d="M24.8227 25.9082L23.8024 24.7691L31.4612 19.3189L31.7685 19.6632L24.8227 25.9082Z" stroke="#F1633D" stroke-width="0.514031" stroke-miterlimit="10"/>
  <path d="M25.3886 26.523L24.3682 25.3838L31.9943 19.9582L32.3016 20.3065L25.3886 26.523Z" stroke="#F1633D" stroke-width="0.514031" stroke-miterlimit="10"/>
  <path d="M26.4929 27.7707L25.4684 26.6356L33.0945 21.206L33.4019 21.5543L26.4929 27.7707Z" stroke="#F1633D" stroke-width="0.514031" stroke-miterlimit="10"/>
  <path d="M27.5991 29.0186L26.5746 27.8793L34.2048 22.4538L34.508 22.8021L27.5991 29.0186Z" stroke="#F1633D" stroke-width="0.514031" stroke-miterlimit="10"/>
  <path d="M28.7012 30.2664L27.6808 29.1313L35.3069 23.7057L35.6143 24.0499L28.7012 30.2664Z" stroke="#F1633D" stroke-width="0.514031" stroke-miterlimit="10"/>
  <path d="M29.8014 31.5141L28.7811 30.375L36.4071 24.9495L36.7144 25.2978L29.8014 31.5141Z" stroke="#F1633D" stroke-width="0.514031" stroke-miterlimit="10"/>
  <path d="M30.9183 32.7559L29.8938 31.6166L37.5117 26.2034L37.8149 26.5476L30.9183 32.7559Z" stroke="#F1633D" stroke-width="0.514031" stroke-miterlimit="10"/>
  <path d="M31.916 33.8252L30.8957 32.686L38.5217 27.2605L38.829 27.6088L31.916 33.8252Z" stroke="#F1633D" stroke-width="0.514031" stroke-miterlimit="10"/>
  <path d="M33.0592 35.0669L32.0388 33.9318L39.6649 28.5022L39.9722 28.8505L33.0592 35.0669Z" stroke="#F1633D" stroke-width="0.514031" stroke-miterlimit="10"/>
  <path d="M25.923 27.1315L24.9026 25.9923L32.5573 20.5422L32.8647 20.8905L25.923 27.1315Z" stroke="#F1633D" stroke-width="0.514031" stroke-miterlimit="10"/>
  <path d="M27.0213 28.3548L25.9968 27.2156L33.6516 21.7696L33.9589 22.1179L27.0213 28.3548Z" stroke="#F1633D" stroke-width="0.514031" stroke-miterlimit="10"/>
  <path d="M28.1055 29.5841L27.0851 28.449L34.7439 22.9989L35.0513 23.3431L28.1055 29.5841Z" stroke="#F1633D" stroke-width="0.514031" stroke-miterlimit="10"/>
  <path d="M29.1807 30.8319L28.1603 29.6927L35.8356 24.2303L36.1388 24.5745L29.1807 30.8319Z" stroke="#F1633D" stroke-width="0.514031" stroke-miterlimit="10"/>
  <path d="M30.3589 32.1165L29.3345 30.9814L36.9359 25.5723L37.2433 25.9206L30.3589 32.1165Z" stroke="#F1633D" stroke-width="0.514031" stroke-miterlimit="10"/>
  <path d="M31.418 33.2476L30.3977 32.1124L38.0237 26.6869L38.327 27.0352L31.418 33.2476Z" stroke="#F1633D" stroke-width="0.514031" stroke-miterlimit="10"/>
  <path d="M32.5124 34.4768L31.492 33.3377L39.118 27.9122L39.4213 28.2605L32.5124 34.4768Z" stroke="#F1633D" stroke-width="0.514031" stroke-miterlimit="10"/>
  <path d="M33.6107 35.7L32.5862 34.5649L40.2164 29.1395L40.5196 29.4878L33.6107 35.7Z" stroke="#F1633D" stroke-width="0.514031" stroke-miterlimit="10"/>
  <path d="M40.9335 30.1988C37.4954 26.3468 34.0984 22.5399 30.6685 18.6962C30.9553 18.4503 30.8856 18.4995 31.1561 18.2781C32.1109 17.4995 33.0903 16.7578 34.0327 15.967C34.8729 15.2663 35.8522 14.7131 36.9258 14.4754C38.2043 14.1926 39.491 14.3893 40.6508 14.8278C41.7981 15.2622 42.9988 15.3359 44.1831 14.8278C44.8756 14.5287 45.5518 14.082 46.1131 13.5821C50.1126 10.021 54.0793 6.42725 58.0583 2.84164C59.3123 1.71065 60.3695 1.71884 61.4062 2.87033C61.6849 3.18177 61.9635 3.4973 62.2422 3.80873C63.156 4.84958 63.0085 5.89862 61.8202 6.79195C59.2836 8.69743 56.747 10.5947 54.2105 12.4961C52.3213 13.9099 50.4241 15.3154 48.5514 16.7415C46.8795 18.0159 46.1951 19.6181 46.5803 21.5318C47.0597 23.8881 46.4 25.8878 44.2774 27.5515C41.8965 29.4202 43.7979 27.8383 41.4539 29.752C41.3023 29.8791 41.1548 30.0266 40.9335 30.1988Z" stroke="#F1633D" stroke-width="1.2106" stroke-miterlimit="10"/>
  <path d="M47.6962 30.1645C48.4585 34.9958 46.5734 37.8684 42.615 40.1386C41.316 40.8844 39.8571 41.3434 38.4311 41.8023C36.7386 42.3432 34.8987 42.081 33.2473 43.0071C31.895 43.7692 30.4731 43.6463 29.1003 42.8965C27.6415 42.0932 26.1704 42.0728 24.7075 42.8718C23.2855 43.6504 21.8389 43.7242 20.3761 43.044C19.3557 42.5727 18.3067 42.4293 17.2002 42.3678C15.8356 42.2899 14.4547 42.0359 13.1311 41.6466C7.34908 39.9501 4.13229 34.6352 5.28788 28.4106C5.33295 28.177 5.32475 27.8943 5.25099 27.673C4.68959 26.0626 4.12819 24.4439 3.49712 22.8622C3.38648 22.5836 2.90703 22.2516 2.66936 22.309C2.4071 22.3704 2.2186 22.8458 2.026 23.1572C1.97273 23.2433 2.01781 23.4031 2.01781 23.5301C2.07518 28.7179 2.05059 33.9099 2.20631 39.0977C2.39891 45.4494 5.08708 50.252 10.2257 53.2926C13.8933 55.4644 17.6018 57.5462 21.3227 59.6074C24.5231 61.3735 27.8382 61.5006 31.0386 59.7549C35.329 57.4232 39.6113 55.0465 43.7337 52.3911C48.3806 49.3956 50.7368 44.7404 50.8557 38.815C50.9007 36.426 50.8147 34.037 50.7901 31.6479C50.7901 31.6479 50.7942 31.6479 50.7983 31.6479C50.7696 28.9393 50.7327 26.2388 50.7164 23.5342" stroke="#F1633D" stroke-width="1.5" stroke-miterlimit="10"/>
  <path d="M44.8798 30.7151C45.2035 34.7637 43.32 36.9839 39.7918 38.3484C36.28 39.7089 32.8132 39.4179 29.5309 37.5084C28.4163 36.8568 27.4779 35.8364 26.3755 34.9145C26.4739 34.8325 26.3755 34.8858 26.3141 34.9718C23.7119 38.5165 20.1714 39.4999 16.2293 39.2869C14.2132 39.1762 12.32 38.5246 10.7219 37.1068C8.48034 35.1153 7.78781 32.4681 8.13203 29.4316C8.15661 29.1857 8.45576 28.7718 8.61148 28.7841C8.98028 28.8005 9.44742 28.9194 9.67693 29.1939C10.7997 30.5421 12.2012 31.2141 13.8075 31.5379C15.8687 31.9558 17.7414 31.333 19.5444 30.37C20.4706 29.8741 21.3516 29.2718 22.2408 28.7021" stroke="#F1633D" stroke-width="1.57356" stroke-miterlimit="10"/>
</svg>