<svg xmlns="http://www.w3.org/2000/svg" width="64" height="64" viewBox="0 0 64 64" fill="none">
  <path d="M29.3465 19.3253C29.2393 18.6521 29.2011 17.9598 29.1629 17.279C29.094 16.3151 28.723 15.8714 27.828 15.9249C26.9483 15.99 26.0608 16.0894 25.1926 16.2921C21.8191 17.1069 18.8089 18.8166 16.1085 21.0924C14.1272 22.7715 12.3142 24.6648 10.4515 26.4854C9.77829 27.1472 9.07835 27.5144 8.04567 27.2007C8.28662 26.7341 8.50084 26.321 8.73797 25.9232C9.15488 25.1965 9.11662 24.5348 8.61937 24.1332C8.14129 23.7545 7.53694 23.896 7.0397 24.4813C5.24583 26.5926 3.86122 28.987 2.86675 31.63C1.81491 34.4451 1.39417 37.3596 1.90288 40.3927C2.44601 43.6974 3.99892 46.4132 6.18293 48.7195C6.71841 49.2742 6.9326 49.8288 6.92113 50.6281C6.87523 54.0055 6.92113 57.3868 7.35334 60.7335H9.46853C9.09752 57.9834 9.04009 55.1989 9.01718 52.4029C9.00954 51.5576 9.01718 50.7046 9.01718 49.8594H9.10516C9.10516 47.1398 9.04009 44.4204 9.13571 41.7009C9.24286 38.618 11.8858 36.5029 14.7124 37.1455C16.2233 37.4782 17.7073 37.9984 19.2181 38.2585C22.1633 38.7672 25.1352 38.9202 28.111 38.7136C30.1382 38.5607 32.1654 38.2699 34.1849 37.9678C35.0341 37.8378 35.8602 37.5126 36.6902 37.2716C39.9643 36.2963 42.8138 38.5301 42.8406 42.1905C42.8789 46.6197 42.9095 51.0604 42.8138 55.4896C42.7756 57.2567 42.6647 59.0008 42.4122 60.7335H44.558C44.6536 59.9417 44.7339 59.15 44.7837 58.3506C44.9787 55.5775 44.9366 52.7815 45.0361 50.0009C45.0476 49.6107 45.1929 49.1862 45.3765 48.8304C46.1759 47.2584 47.1321 45.7552 47.8053 44.1182C49.7445 39.4174 49.8019 34.6287 47.943 29.8629C47.4658 28.6423 46.8992 27.4974 46.2523 26.422" stroke="#F1633D" stroke-width="1.5" stroke-miterlimit="10"/>
  <path d="M27.5228 23.5785L26.5704 22.5152L33.7192 17.4281L34.006 17.7494L27.5228 23.5785Z" stroke="#F1633D" stroke-width="0.479793" stroke-miterlimit="10"/>
  <path d="M28.0502 24.158L27.0979 23.0947L34.216 18.0305L34.5029 18.3556L28.0502 24.158Z" stroke="#F1633D" stroke-width="0.479793" stroke-miterlimit="10"/>
  <path d="M29.0815 25.3227L28.1253 24.2632L35.2434 19.1991L35.5303 19.5242L29.0815 25.3227Z" stroke="#F1633D" stroke-width="0.479793" stroke-miterlimit="10"/>
  <path d="M30.1104 26.4873L29.1581 25.424L36.2762 20.3598L36.5592 20.6849L30.1104 26.4873Z" stroke="#F1633D" stroke-width="0.479793" stroke-miterlimit="10"/>
  <path d="M31.1427 27.652L30.1903 26.5925L37.3084 21.5283L37.5953 21.8496L31.1427 27.652Z" stroke="#F1633D" stroke-width="0.479793" stroke-miterlimit="10"/>
  <path d="M32.1701 28.8166L31.2177 27.7533L38.3358 22.6892L38.6227 23.0143L32.1701 28.8166Z" stroke="#F1633D" stroke-width="0.479793" stroke-miterlimit="10"/>
  <path d="M33.212 29.9699L32.2558 28.9066L39.3663 23.8539L39.6493 24.1752L33.212 29.9699Z" stroke="#F1633D" stroke-width="0.479793" stroke-miterlimit="10"/>
  <path d="M34.1436 30.9739L33.1912 29.9106L40.3093 24.8465L40.5963 25.1716L34.1436 30.9739Z" stroke="#F1633D" stroke-width="0.479793" stroke-miterlimit="10"/>
  <path d="M35.2106 32.1329L34.2583 31.0734L41.3764 26.0093L41.6633 26.3306L35.2106 32.1329Z" stroke="#F1633D" stroke-width="0.479793" stroke-miterlimit="10"/>
  <path d="M28.5497 24.7259L27.5974 23.6626L34.7422 18.5793L35.029 18.9006L28.5497 24.7259Z" stroke="#F1633D" stroke-width="0.479793" stroke-miterlimit="10"/>
  <path d="M29.5747 25.8677L28.6185 24.8044L35.7633 19.7211L36.0502 20.0463L29.5747 25.8677Z" stroke="#F1633D" stroke-width="0.479793" stroke-miterlimit="10"/>
  <path d="M30.5867 27.0152L29.6343 25.9557L36.783 20.8686L37.0699 21.1937L30.5867 27.0152Z" stroke="#F1633D" stroke-width="0.479793" stroke-miterlimit="10"/>
  <path d="M31.5904 28.1798L30.6379 27.1165L37.8019 22.0179L38.0888 22.3392L31.5904 28.1798Z" stroke="#F1633D" stroke-width="0.479793" stroke-miterlimit="10"/>
  <path d="M32.6902 29.3732L31.7341 28.3137L38.833 23.2648L39.116 23.5899L32.6902 29.3732Z" stroke="#F1633D" stroke-width="0.479793" stroke-miterlimit="10"/>
  <path d="M33.679 30.4289L32.7266 29.3694L39.8447 24.3053L40.1278 24.6266L33.679 30.4289Z" stroke="#F1633D" stroke-width="0.479793" stroke-miterlimit="10"/>
  <path d="M34.7001 31.5763L33.7478 30.513L40.8659 25.4489L41.1489 25.774L34.7001 31.5763Z" stroke="#F1633D" stroke-width="0.479793" stroke-miterlimit="10"/>
  <path d="M35.7213 32.7238L34.7689 31.6605L41.887 26.5964L42.1701 26.9215L35.7213 32.7238Z" stroke="#F1633D" stroke-width="0.479793" stroke-miterlimit="10"/>
  <path d="M42.5581 27.5831C39.3491 23.9877 36.1782 20.4345 32.973 16.8466C33.2445 16.621 33.1795 16.6631 33.4319 16.4565C34.3193 15.7298 35.2411 15.0375 36.117 14.2993C36.9011 13.6491 37.8152 13.1289 38.8174 12.9109C40.0107 12.6431 41.2117 12.8306 42.2942 13.2398C43.3613 13.6453 44.4858 13.7103 45.5913 13.236C46.2377 12.9606 46.8687 12.5437 47.3928 12.0732C51.1258 8.7494 54.8283 5.39498 58.5423 2.05202C59.7127 0.992534 60.6995 1.00401 61.6672 2.07497C61.9273 2.36567 62.1874 2.66018 62.4475 2.9547C63.3004 3.9224 63.1627 4.90156 62.0535 5.73539C59.686 7.51396 57.3183 9.28872 54.9469 11.0596C53.1874 12.383 51.4165 13.6912 49.6685 15.0261C48.108 16.2156 47.4692 17.7073 47.8326 19.4935C48.2763 21.6928 47.6605 23.5632 45.6792 25.1123C43.4569 26.8564 45.2317 25.38 43.0439 27.1662C42.9023 27.2848 42.7646 27.4225 42.5581 27.5831Z" stroke="#F1633D" stroke-width="1.12997" stroke-miterlimit="10"/>
</svg>