<svg xmlns="http://www.w3.org/2000/svg" width="64" height="64" viewBox="0 0 64 64" fill="none">
  <path d="M44.34 24.2427C45.884 28.1935 45.8341 32.1621 44.2259 36.0594C43.6696 37.4144 42.8781 38.6624 42.2148 39.9639C42.0616 40.2599 41.9403 40.6093 41.9296 40.9337C41.8512 43.2408 41.8832 45.5549 41.7228 47.8548C41.68 48.5181 41.6158 49.1741 41.5338 49.8302H39.7581C39.9685 48.3933 40.0576 46.9491 40.0897 45.4836C40.1681 41.8109 40.1432 38.1311 40.1146 34.4584C40.0897 31.424 37.7292 29.577 35.0121 30.3828C34.3275 30.5825 33.6393 30.85 32.9368 30.9605C31.2645 31.2101 29.5815 31.4526 27.9021 31.5774C25.4382 31.7485 22.9707 31.6237 20.5317 31.1994C19.2802 30.9854 18.05 30.554 16.7985 30.2758C14.4522 29.7481 12.2629 31.4989 12.1737 34.0555C12.0953 36.309 12.1488 38.5626 12.1488 40.8161H12.0775C12.0775 41.515 12.0703 42.2245 12.0775 42.927C12.0953 45.2411 12.1416 47.5482 12.4483 49.8302H10.694C10.341 47.0561 10.3017 44.2534 10.341 41.4543C10.3481 40.7876 10.1698 40.3311 9.72765 39.8748C7.91628 37.96 6.62905 35.7064 6.17621 32.968C5.75902 30.4541 6.10489 28.0402 6.9785 25.7046C7.80217 23.5153 8.95033 21.5327 10.4372 19.782C10.8509 19.2971 11.3501 19.1794 11.7458 19.4931C12.1595 19.8248 12.1915 20.3739 11.8421 20.9765C11.6496 21.3081 11.4713 21.6504 11.268 22.0355C12.1274 22.2958 12.7086 21.9892 13.2648 21.4436C14.8088 19.9353 16.3135 18.3628 17.9537 16.9722C20.193 15.0859 22.689 13.6668 25.4845 12.9928C26.2048 12.8252 26.9393 12.7432 27.6667 12.6898C28.4119 12.6434 28.25 12.9929 28.7757 13.8129" stroke="#F1633D" stroke-width="1.02692" stroke-miterlimit="10"/>
  <path d="M23.9284 21.7984L23.0405 20.8107L29.7049 16.0683L29.9723 16.3678L23.9284 21.7984Z" stroke="#F1633D" stroke-width="0.447282" stroke-miterlimit="10"/>
  <path d="M24.4205 22.3386L23.5326 21.3509L30.1684 16.6299L30.4358 16.9329L24.4205 22.3386Z" stroke="#F1633D" stroke-width="0.447282" stroke-miterlimit="10"/>
  <path d="M25.3832 23.4243L24.4954 22.4331L31.1311 17.7121L31.3986 18.0152L25.3832 23.4243Z" stroke="#F1633D" stroke-width="0.447282" stroke-miterlimit="10"/>
  <path d="M26.3441 24.5102L25.4528 23.5224L32.0921 18.8015L32.3559 19.1045L26.3441 24.5102Z" stroke="#F1633D" stroke-width="0.447282" stroke-miterlimit="10"/>
  <path d="M27.3034 25.5959L26.4155 24.6047L33.0513 19.8836L33.3187 20.1867L27.3034 25.5959Z" stroke="#F1633D" stroke-width="0.447282" stroke-miterlimit="10"/>
  <path d="M28.2607 26.6816L27.3729 25.6939L34.0087 20.973L34.2761 21.276L28.2607 26.6816Z" stroke="#F1633D" stroke-width="0.447282" stroke-miterlimit="10"/>
  <path d="M29.2378 27.7567L28.3463 26.769L34.9714 22.0551L35.2388 22.3582L29.2378 27.7567Z" stroke="#F1633D" stroke-width="0.447282" stroke-miterlimit="10"/>
  <path d="M30.1006 28.6927L29.2128 27.705L35.8451 22.984L36.1125 23.2835L30.1006 28.6927Z" stroke="#F1633D" stroke-width="0.447282" stroke-miterlimit="10"/>
  <path d="M31.0955 29.7731L30.2076 28.7818L36.8434 24.0608L37.1108 24.3639L31.0955 29.7731Z" stroke="#F1633D" stroke-width="0.447282" stroke-miterlimit="10"/>
  <path d="M24.8857 22.8628L23.9979 21.8751L30.6586 17.1327L30.9261 17.4358L24.8857 22.8628Z" stroke="#F1633D" stroke-width="0.447282" stroke-miterlimit="10"/>
  <path d="M25.8414 23.9325L24.95 22.9413L31.6107 18.2024L31.8781 18.5019L25.8414 23.9325Z" stroke="#F1633D" stroke-width="0.447282" stroke-miterlimit="10"/>
  <path d="M26.7845 25.0022L25.8966 24.0145L32.5609 19.2685L32.8283 19.5716L26.7845 25.0022Z" stroke="#F1633D" stroke-width="0.447282" stroke-miterlimit="10"/>
  <path d="M27.7259 26.0826L26.838 25.0949L33.5166 20.3382L33.7804 20.6413L27.7259 26.0826Z" stroke="#F1633D" stroke-width="0.447282" stroke-miterlimit="10"/>
  <path d="M28.7421 27.2058L27.8542 26.2145L34.4686 21.5113L34.7361 21.8144L28.7421 27.2058Z" stroke="#F1633D" stroke-width="0.447282" stroke-miterlimit="10"/>
  <path d="M29.6728 28.19L28.7849 27.1987L35.4172 22.4813L35.6846 22.7808L29.6728 28.19Z" stroke="#F1633D" stroke-width="0.447282" stroke-miterlimit="10"/>
  <path d="M30.6229 29.2596L29.7316 28.2684L36.3673 23.5474L36.6348 23.8505L30.6229 29.2596Z" stroke="#F1633D" stroke-width="0.447282" stroke-miterlimit="10"/>
  <path d="M31.575 30.324L30.6836 29.3363L37.3194 24.6153L37.5868 24.9149L31.575 30.324Z" stroke="#F1633D" stroke-width="0.447282" stroke-miterlimit="10"/>
  <path d="M37.9452 25.5371C34.9536 22.1853 31.9976 18.8727 29.0095 15.5245C29.2627 15.3142 29.202 15.357 29.4374 15.1644C30.2646 14.4869 31.1204 13.8379 31.9405 13.1533C32.6679 12.5436 33.5237 12.0622 34.4579 11.8554C35.5704 11.6094 36.69 11.7805 37.6956 12.1621C38.694 12.54 39.7423 12.6006 40.7728 12.1585C41.3754 11.9018 41.9638 11.5131 42.4522 11.0781C45.9323 7.97947 49.384 4.84879 52.8463 1.73235C53.9374 0.748221 54.8574 0.755352 55.7559 1.75731C56.002 2.02831 56.2444 2.29931 56.4869 2.57386C57.2784 3.47599 57.1537 4.38881 56.116 5.16614C53.9124 6.82419 51.7017 8.47869 49.4945 10.1331C47.8543 11.3633 46.2034 12.5828 44.5739 13.8273C43.1191 14.9362 42.5236 16.3268 42.8587 17.992C43.2759 20.0423 42.7018 21.7859 40.8548 23.2336C38.7795 24.8596 40.4376 23.4832 38.398 25.1484C38.2661 25.2554 38.1377 25.3837 37.9452 25.5371Z" stroke="#F1633D" stroke-width="1.0534" stroke-miterlimit="10"/>
  <path d="M39.3067 46.5648C39.3209 47.8235 39.3673 49.0858 39.3388 50.3444C39.2746 53.4644 37.998 55.9213 35.4771 57.5009C33.2414 58.9021 30.9201 60.1538 28.5953 61.3839C26.8588 62.3039 25.0617 62.2396 23.3251 61.3054C21.3105 60.2215 19.2995 59.1268 17.3098 57.9822C14.525 56.3776 13.0702 53.8495 12.9668 50.4978C12.8812 47.7664 12.8955 45.028 12.8669 42.2931C12.8669 42.2289 12.8419 42.1469 12.8705 42.1006C12.9739 41.933 13.0773 41.6834 13.2199 41.6512C13.3483 41.6227 13.6086 41.7939 13.6692 41.9436C14.0115 42.778 14.3111 43.6302 14.6177 44.4788C14.6569 44.5965 14.6641 44.7427 14.6391 44.8675C14.008 48.148 15.7551 50.9506 18.8894 51.842C19.6061 52.0453 20.3549 52.1808 21.093 52.22C21.6956 52.2557 22.2625 52.327 22.8152 52.5766C23.6104 52.9367 24.3948 52.8975 25.1615 52.4874C25.9567 52.0631 26.7554 52.0774 27.5434 52.4982C28.2886 52.8939 29.0588 52.9581 29.7934 52.5552C30.6883 52.0667 31.6868 52.2058 32.6031 51.9205C33.3769 51.678 34.1685 51.4356 34.8745 51.0434C37.0175 49.8453 38.0444 47.499 37.6308 44.9531C37.5951 44.7499 37.6058 44.5216 37.6593 44.3256C37.859 43.5946 38.0979 42.8779 38.2976 42.1505C38.3867 41.8153 38.5365 41.6049 38.8824 41.6619C39.2175 41.7119 39.2639 41.9758 39.2675 42.2895C39.2746 43.7158 39.296 45.1385 39.3102 46.5648C39.3067 46.5648 39.3067 46.5648 39.3067 46.5648Z" stroke="#F1633D" stroke-width="1.02692" stroke-miterlimit="10"/>
  <path d="M26.109 45.0551C26.8222 44.4025 27.5353 44.4952 28.2734 44.9018C29.0187 45.3118 29.7567 45.7432 30.5269 46.0927C31.5396 46.5455 32.6058 46.624 33.6256 46.1711C34.1568 45.9358 34.6062 45.5008 35.1053 45.1763C35.3157 45.0372 35.5938 44.8162 35.7686 44.8732C35.929 44.9267 36.0681 45.3047 36.0859 45.5472C36.2642 47.683 35.2515 49.3767 33.3403 50.097C31.4362 50.8173 29.5571 50.6639 27.7778 49.6549C27.1716 49.3125 26.6653 48.7741 26.0662 48.2892C26.1197 48.2464 26.0662 48.2749 26.0341 48.3177C24.6221 50.1897 22.7002 50.7103 20.568 50.5962C19.4733 50.5392 18.4463 50.1969 17.5799 49.448C16.3639 48.3997 15.9896 47.002 16.175 45.4045C16.1928 45.2726 16.3532 45.0551 16.4388 45.0622C16.635 45.0729 16.8917 45.1335 17.0129 45.2797C17.6227 45.9893 18.3821 46.3423 19.2522 46.5134C20.3683 46.731 21.3845 46.4065 22.3651 45.8966C22.8642 45.6327 23.342 45.319 23.827 45.0158C24.5829 44.5451 25.3388 44.4061 26.109 45.0551Z" stroke="#F1633D" stroke-width="1.02692" stroke-miterlimit="10"/>
</svg>