<svg xmlns="http://www.w3.org/2000/svg" width="64" height="64" viewBox="0 0 64 64" fill="none">
  <path d="M21.7084 37.3438L20.6267 36.1361L28.7459 30.3584L29.0718 30.7276L21.7084 37.3438Z" stroke="#F1633D" stroke-width="0.544928" stroke-miterlimit="10"/>
  <path d="M22.3079 38.002L21.2262 36.7943L29.3106 31.0426L29.6321 31.4118L22.3079 38.002Z" stroke="#F1633D" stroke-width="0.544928" stroke-miterlimit="10"/>
  <path d="M23.4808 39.3182L22.3991 38.1149L30.4836 32.3633L30.8094 32.7282L23.4808 39.3182Z" stroke="#F1633D" stroke-width="0.544928" stroke-miterlimit="10"/>
  <path d="M24.6537 40.6475L23.572 39.4398L31.6565 33.6882L31.9822 34.0574L24.6537 40.6475Z" stroke="#F1633D" stroke-width="0.544928" stroke-miterlimit="10"/>
  <path d="M25.818 41.9637L24.7319 40.7604L32.8207 35.0087L33.1422 35.3736L25.818 41.9637Z" stroke="#F1633D" stroke-width="0.544928" stroke-miterlimit="10"/>
  <path d="M26.9866 43.293L25.9048 42.0854L33.9893 36.3338L34.3151 36.703L26.9866 43.293Z" stroke="#F1633D" stroke-width="0.544928" stroke-miterlimit="10"/>
  <path d="M28.1768 44.6028L27.0908 43.3952L35.1622 37.6566L35.4881 38.0215L28.1768 44.6028Z" stroke="#F1633D" stroke-width="0.544928" stroke-miterlimit="10"/>
  <path d="M29.2325 45.7431L28.1464 44.5355L36.2309 38.7839L36.5566 39.1531L29.2325 45.7431Z" stroke="#F1633D" stroke-width="0.544928" stroke-miterlimit="10"/>
  <path d="M30.4401 47.0594L29.3584 45.8561L37.4428 40.1045L37.7686 40.4694L30.4401 47.0594Z" stroke="#F1633D" stroke-width="0.544928" stroke-miterlimit="10"/>
  <path d="M22.8813 38.6405L21.7996 37.4329L29.9145 31.6595L30.2403 32.0244L22.8813 38.6405Z" stroke="#F1633D" stroke-width="0.544928" stroke-miterlimit="10"/>
  <path d="M24.0412 39.9438L22.9595 38.7361L31.0744 32.9628L31.3958 33.332L24.0412 39.9438Z" stroke="#F1633D" stroke-width="0.544928" stroke-miterlimit="10"/>
  <path d="M25.188 41.247L24.1063 40.0393L32.2255 34.2616L32.547 34.6309L25.188 41.247Z" stroke="#F1633D" stroke-width="0.544928" stroke-miterlimit="10"/>
  <path d="M26.3392 42.5632L25.2532 41.3556L33.3897 35.5648L33.7156 35.9298L26.3392 42.5632Z" stroke="#F1633D" stroke-width="0.544928" stroke-miterlimit="10"/>
  <path d="M27.573 43.9251L26.4913 42.7218L34.5497 36.9875L34.8755 37.3568L27.573 43.9251Z" stroke="#F1633D" stroke-width="0.544928" stroke-miterlimit="10"/>
  <path d="M28.7112 45.1241L27.6251 43.9208L35.7096 38.1692L36.0353 38.5384L28.7112 45.1241Z" stroke="#F1633D" stroke-width="0.544928" stroke-miterlimit="10"/>
  <path d="M29.871 46.4274L28.785 45.2241L36.8694 39.4724L37.1952 39.8374L29.871 46.4274Z" stroke="#F1633D" stroke-width="0.544928" stroke-miterlimit="10"/>
  <path d="M31.0266 47.7306L29.9449 46.5229L38.0293 40.7713L38.3552 41.1405L31.0266 47.7306Z" stroke="#F1633D" stroke-width="0.544928" stroke-miterlimit="10"/>
  <path d="M38.7852 41.8921C35.1405 37.8086 31.5392 33.7729 27.8988 29.6981C28.2072 29.4374 28.1334 29.4895 28.4201 29.255C29.4279 28.4296 30.4705 27.6433 31.4697 26.8049C32.3559 26.0621 33.3985 25.4756 34.5366 25.2237C35.892 24.9239 37.2561 25.1324 38.4811 25.5972C39.6975 26.0577 40.9747 26.1359 42.2301 25.5972C42.9643 25.2845 43.6811 24.8066 44.2762 24.2766C48.5161 20.5015 52.7212 16.6917 56.9394 12.8906C58.2687 11.6916 59.3895 11.7047 60.4842 12.921C60.7839 13.2512 61.0794 13.5857 61.3747 13.9202C62.3392 15.0192 62.1871 16.1313 60.923 17.0784C58.2383 19.0984 55.5449 21.1141 52.8559 23.1254C50.8575 24.6241 48.8463 26.1142 46.861 27.626C45.0886 28.977 44.3631 30.6755 44.7715 32.7042C45.2797 35.2021 44.5803 37.3221 42.33 39.0858C39.8017 41.0667 41.8218 39.3898 39.3369 41.4186C39.1762 41.5533 39.0198 41.7096 38.7852 41.8921Z" stroke="#F1633D" stroke-width="1.28337" stroke-miterlimit="10"/>
  <path d="M47.5099 37.2215C47.8878 37.3475 48.2136 38.2641 48.2614 38.8636C48.6828 44.0636 46.2892 48.1905 41.7583 49.9455C37.249 51.6919 32.7963 51.3183 28.5825 48.8638C27.1489 48.0298 25.9456 46.7178 24.5337 45.5362C24.6554 45.4276 24.5337 45.4971 24.4556 45.6057C21.1106 50.1583 16.5666 51.4225 11.51 51.1488C8.92095 51.0055 6.48387 50.1714 4.43344 48.3512C1.55762 45.7925 0.66707 42.391 1.10584 38.4987C1.14058 38.1773 1.52287 37.6516 1.72705 37.6603C2.19621 37.6863 2.80005 37.8384 3.09544 38.1903C4.53336 39.9192 6.33183 40.7837 8.39532 41.2008C11.0408 41.7351 13.4432 40.9358 15.763 39.6977C16.9489 39.0591 18.0828 38.2902 19.2252 37.556" stroke="#F1633D" stroke-width="1.5" stroke-miterlimit="10"/>
</svg>